<svg width="24" height="24" fill="none" xmlns="http://www.w3.org/2000/svg"><path d="M22.62 18.5H1.38c-.21 0-.38-.147-.38-.329V6.33C1 6.147 1.17 6 1.38 6h21.24c.21 0 .38.147.38.329v11.842c0 .182-.17.33-.38.33z" fill="#F5F5F5"/><path d="M23 6.962H1v-.633C1 6.147 1.17 6 1.38 6h21.24c.21 0 .38.147.38.329v.633zM23 9.846H1v.962h22v-.962zM23 7.923H1v.961h22v-.961zM23 12.73H1.38c-.21 0-.38-.147-.38-.328v-.633h22v.962zM23 15.616H1v.961h22v-.961zM22.62 18.5H1.38c-.21 0-.38-.147-.38-.329v-.632h22v.632c0 .182-.17.33-.38.33zM23 13.692H1v.962h22v-.962z" fill="#FF4B55"/><path d="M10.862 6H1.379C1.17 6 1 6.147 1 6.329v6.073c0 .182.17.329.38.329h9.482c.21 0 .38-.147.38-.33V6.33c0-.182-.17-.329-.38-.329z" fill="#41479B"/><path d="M2.066 6.755l.083.218.266.002c.034 0 .048.038.02.056l-.213.137.08.22c.01.028-.026.051-.054.034l-.216-.134-.216.134c-.028.017-.066-.006-.055-.035l.08-.219-.214-.137c-.027-.018-.013-.055.021-.056l.266-.002.084-.218c.01-.028.057-.028.068 0zM2.066 7.897l.083.219.266.001c.034 0 .048.039.02.056l-.213.137.08.22c.01.028-.026.051-.054.034l-.216-.134-.216.134c-.028.017-.066-.006-.055-.035l.08-.219-.214-.137c-.027-.017-.013-.055.021-.056l.266-.001.084-.219c.01-.028.057-.028.068 0zM2.066 9.04l.083.218.266.002c.034 0 .048.038.02.056l-.213.137.08.219c.01.028-.026.052-.054.035l-.216-.134-.216.134c-.028.017-.066-.007-.055-.035l.08-.22-.214-.136c-.027-.018-.013-.056.021-.056l.266-.002.084-.218c.01-.029.057-.029.068 0zM2.066 10.182l.083.218.266.002c.034 0 .048.038.02.056l-.213.137.08.22c.01.027-.026.051-.054.034l-.216-.134-.216.134c-.028.017-.066-.006-.055-.035l.08-.22-.214-.136c-.027-.018-.013-.056.021-.056l.266-.002.084-.218c.01-.028.057-.028.068 0zM2.066 11.325l.083.218.266.002c.034 0 .048.038.02.056l-.213.136.08.22c.01.028-.026.052-.054.034l-.216-.133-.216.133c-.028.018-.066-.006-.055-.034l.08-.22-.214-.136c-.027-.018-.013-.056.021-.056l.266-.002.084-.218c.01-.029.057-.029.068 0zM3.088 7.315l.084.218.265.002c.035 0 .049.039.021.056l-.213.137.08.22c.01.028-.027.051-.055.034l-.216-.134-.216.134c-.028.017-.065-.006-.055-.035l.08-.219-.213-.137c-.028-.018-.014-.055.02-.056l.266-.002.084-.218c.011-.028.057-.028.068 0zM3.088 8.458l.084.218.265.002c.035 0 .049.038.021.056l-.213.137.08.219c.01.028-.027.052-.055.035l-.216-.134-.216.134c-.028.017-.065-.007-.055-.035l.08-.22-.213-.136c-.028-.018-.014-.056.02-.056l.266-.002.084-.218c.011-.029.057-.029.068 0zM3.088 9.6l.084.218.265.002c.035 0 .049.038.021.056l-.213.137.08.22c.01.027-.027.051-.055.034l-.216-.134-.216.134c-.028.017-.065-.006-.055-.035l.08-.22-.213-.136c-.028-.018-.014-.056.02-.056l.266-.002.084-.218c.011-.028.057-.028.068 0zM3.088 10.742l.084.218.265.002c.035 0 .049.038.021.056l-.213.137.08.22c.01.028-.027.051-.055.034l-.216-.134-.216.134c-.028.017-.065-.006-.055-.035l.08-.22-.213-.136c-.028-.018-.014-.056.02-.056l.266-.002.084-.218c.011-.028.057-.028.068 0zM4.11 6.755l.084.218.266.002c.034 0 .048.038.02.056l-.213.137.08.22c.01.028-.027.051-.055.034l-.215-.134-.216.134c-.028.017-.066-.006-.055-.035l.08-.219-.214-.137c-.027-.018-.013-.056.021-.056l.266-.002.084-.218c.01-.028.057-.028.067 0zM4.11 7.897l.084.219.266.001c.034 0 .048.039.02.056l-.213.137.08.22c.01.028-.027.051-.055.034l-.215-.134-.216.134c-.028.017-.066-.006-.055-.035l.08-.219-.214-.137c-.027-.017-.013-.055.021-.056l.266-.001.084-.219c.01-.028.057-.028.067 0zM4.11 9.04l.084.218.266.002c.034 0 .048.038.02.056l-.213.137.08.22c.01.027-.027.051-.055.034l-.215-.134-.216.134c-.028.017-.066-.007-.055-.035l.08-.22-.214-.136c-.027-.018-.013-.056.021-.056l.266-.002.084-.218c.01-.029.057-.029.067 0zM4.11 10.182l.084.218.266.002c.034 0 .048.038.02.056l-.213.137.08.22c.01.028-.027.051-.055.034l-.215-.134-.216.134c-.028.017-.066-.006-.055-.035l.08-.22-.214-.136c-.027-.018-.013-.056.021-.056l.266-.002.084-.218c.01-.028.057-.028.067 0zM4.11 11.325l.084.218.266.002c.034 0 .048.038.02.056l-.213.136.08.22c.01.028-.027.052-.055.034l-.215-.133-.216.133c-.028.018-.066-.006-.055-.034l.08-.22-.214-.136c-.027-.018-.013-.056.021-.056l.266-.002.084-.218c.01-.029.057-.029.067 0zM5.132 7.315l.084.218.265.002c.035 0 .049.039.021.056l-.213.137.08.22c.01.028-.027.051-.055.034l-.216-.134-.216.134c-.028.017-.065-.006-.055-.035l.08-.219-.213-.137c-.028-.018-.014-.055.02-.056l.266-.002.084-.218c.01-.028.057-.028.068 0zM5.132 8.458l.084.218.265.002c.035 0 .049.038.021.056l-.213.137.08.219c.01.028-.027.052-.055.035l-.216-.134-.216.134c-.028.017-.065-.007-.055-.035l.08-.22-.213-.136c-.028-.018-.014-.056.02-.056l.266-.002.084-.218c.01-.029.057-.029.068 0zM5.132 9.6l.084.218.265.002c.035 0 .049.038.021.056l-.213.137.08.22c.01.027-.027.051-.055.034l-.216-.134-.216.134c-.028.017-.065-.006-.055-.035l.08-.22-.213-.136c-.028-.018-.014-.056.02-.056l.266-.002.084-.218c.01-.028.057-.028.068 0zM5.132 10.742l.084.218.265.002c.035 0 .049.038.021.056l-.213.137.08.22c.01.028-.027.051-.055.034l-.216-.134-.216.134c-.028.017-.065-.006-.055-.035l.08-.22-.213-.136c-.028-.018-.014-.056.02-.056l.266-.002.084-.218c.01-.028.057-.028.068 0zM6.155 6.755l.084.218.265.002c.035 0 .049.038.021.056l-.213.137.08.22c.01.028-.027.051-.055.034l-.216-.134-.216.134c-.028.017-.065-.006-.055-.035l.08-.219-.213-.137c-.028-.018-.014-.056.02-.056l.266-.002.084-.218c.011-.028.057-.028.068 0zM6.155 7.897l.084.219.265.001c.035 0 .049.039.021.056l-.213.137.08.22c.01.028-.027.051-.055.034L6.12 8.43l-.216.134c-.028.017-.065-.006-.055-.035l.08-.219-.213-.137c-.028-.017-.014-.055.02-.056l.266-.001.084-.219c.011-.028.057-.028.068 0zM6.155 9.04l.084.218.265.002c.035 0 .049.038.021.056l-.213.137.08.22c.01.027-.027.051-.055.034l-.216-.134-.216.134c-.028.017-.065-.007-.055-.035l.08-.22-.213-.136c-.028-.018-.014-.056.02-.056l.266-.002.084-.218c.011-.029.057-.029.068 0zM6.155 10.182l.084.218.265.002c.035 0 .049.038.021.056l-.213.137.08.22c.01.028-.027.051-.055.034l-.216-.134-.216.134c-.028.017-.065-.006-.055-.035l.08-.22-.213-.136c-.028-.018-.014-.056.02-.056l.266-.002.084-.218c.011-.028.057-.028.068 0zM6.155 11.325l.084.218.265.002c.035 0 .049.038.021.056l-.213.136.08.22c.01.028-.027.052-.055.034l-.216-.133-.216.133c-.028.018-.065-.006-.055-.034l.08-.22-.213-.136c-.028-.018-.014-.056.02-.056l.266-.002.084-.218c.011-.029.057-.029.068 0zM7.177 7.315l.084.218.265.002c.035 0 .049.039.021.056l-.213.137.08.22c.01.028-.027.051-.055.034l-.216-.134-.216.134c-.028.017-.065-.006-.055-.035l.08-.219-.213-.137c-.028-.018-.014-.055.02-.056l.266-.002.084-.218c.01-.028.057-.028.068 0zM7.177 8.458l.084.218.265.002c.035 0 .049.038.021.056l-.213.137.08.219c.01.028-.027.052-.055.035l-.216-.134-.216.134c-.028.017-.065-.007-.055-.035l.08-.22-.213-.136c-.028-.018-.014-.056.02-.056l.266-.002.084-.218c.01-.029.057-.029.068 0zM7.177 9.6l.084.218.265.002c.035 0 .049.038.021.056l-.213.137.08.22c.01.027-.027.051-.055.034l-.216-.134-.216.134c-.028.017-.065-.006-.055-.035l.08-.22-.213-.136c-.028-.018-.014-.056.02-.056l.266-.002.084-.218c.01-.028.057-.028.068 0zM7.177 10.742l.084.218.265.002c.035 0 .049.038.021.056l-.213.137.08.22c.01.028-.027.051-.055.034l-.216-.134-.216.134c-.028.017-.065-.006-.055-.035l.08-.22-.213-.136c-.028-.018-.014-.056.02-.056l.266-.002.084-.218c.01-.028.057-.028.068 0zM8.2 6.755l.084.218.265.002c.035 0 .049.038.021.056l-.213.137.08.22c.01.028-.027.051-.055.034l-.216-.134-.216.134c-.028.017-.065-.006-.055-.035l.08-.219-.213-.137c-.028-.018-.014-.056.02-.056l.266-.002.084-.218c.01-.028.057-.028.068 0zM8.2 7.897l.084.219.265.001c.035 0 .049.039.021.056l-.213.137.08.22c.01.028-.027.051-.055.034l-.216-.134-.216.134c-.028.017-.065-.006-.055-.035l.08-.219-.213-.137c-.028-.017-.014-.055.02-.056l.266-.001.084-.219c.01-.028.057-.028.068 0zM8.2 9.04l.084.218.265.002c.035 0 .049.038.021.056l-.213.137.08.22c.01.027-.027.051-.055.034l-.216-.134-.216.134c-.028.017-.065-.007-.055-.035l.08-.22-.213-.136c-.028-.018-.014-.056.02-.056l.266-.002.084-.218c.01-.029.057-.029.068 0zM8.2 10.182l.084.218.265.002c.035 0 .049.038.021.056l-.213.137.08.22c.01.028-.027.051-.055.034l-.216-.134-.216.134c-.028.017-.065-.006-.055-.035l.08-.22-.213-.136c-.028-.018-.014-.056.02-.056l.266-.002.084-.218c.01-.028.057-.028.068 0zM8.2 11.325l.084.218.265.002c.035 0 .049.038.021.056l-.213.136.08.22c.01.028-.027.052-.055.034l-.216-.133-.216.133c-.028.018-.065-.006-.055-.034l.08-.22-.213-.136c-.028-.018-.014-.056.02-.056l.266-.002.084-.218c.01-.029.057-.029.068 0zM9.222 7.315l.084.218.266.002c.034 0 .048.039.02.056l-.213.137.08.22c.01.028-.027.051-.055.034l-.216-.134-.216.134c-.028.017-.065-.006-.054-.035l.08-.219-.214-.137c-.028-.018-.013-.055.021-.056l.265-.002.084-.218c.011-.028.057-.028.068 0zM9.222 8.458l.084.218.266.002c.034 0 .048.038.02.056l-.213.137.08.219c.01.028-.027.052-.055.035l-.216-.134-.216.134c-.028.017-.065-.007-.054-.035l.08-.22-.214-.136c-.028-.018-.013-.056.021-.056l.265-.002.084-.218c.011-.029.057-.029.068 0zM9.222 9.6l.084.218.266.002c.034 0 .048.038.02.056l-.213.137.08.22c.01.027-.027.051-.055.034l-.216-.134-.216.134c-.028.017-.065-.006-.054-.035l.08-.22-.214-.136c-.028-.018-.013-.056.021-.056l.265-.002.084-.218c.011-.028.057-.028.068 0zM9.222 10.742l.084.218.266.002c.034 0 .048.038.02.056l-.213.137.08.22c.01.028-.027.051-.055.034l-.216-.134-.216.134c-.028.017-.065-.006-.054-.035l.08-.22-.214-.136c-.028-.018-.013-.056.021-.056l.265-.002.084-.218c.011-.028.057-.028.068 0zM10.244 6.755l.084.218.265.002c.034 0 .049.038.021.056l-.213.137.08.22c.01.028-.027.051-.055.034l-.216-.134-.216.134c-.028.017-.065-.006-.055-.035l.08-.219-.213-.137c-.028-.018-.014-.056.02-.056l.266-.002.084-.218c.01-.028.057-.028.068 0zM10.244 7.897l.084.219.265.001c.034 0 .049.039.021.056l-.213.137.08.22c.01.028-.027.051-.055.034l-.216-.134-.216.134c-.028.017-.065-.006-.055-.035l.08-.219-.213-.137c-.028-.017-.014-.055.02-.056l.266-.001.084-.219c.01-.028.057-.028.068 0zM10.244 9.04l.084.218.265.002c.034 0 .049.038.021.056l-.213.137.08.22c.01.027-.027.051-.055.034l-.216-.134-.216.134c-.028.017-.065-.007-.055-.035l.08-.22-.213-.136c-.028-.018-.014-.056.02-.056l.266-.002.084-.218c.01-.029.057-.029.068 0zM10.244 10.182l.084.218.265.002c.034 0 .049.038.021.056l-.213.137.08.22c.01.028-.027.051-.055.034l-.216-.134-.216.134c-.028.017-.065-.006-.055-.035l.08-.22-.213-.136c-.028-.018-.014-.056.02-.056l.266-.002.084-.218c.01-.028.057-.028.068 0zM10.244 11.325l.084.218.265.002c.034 0 .049.038.021.056l-.213.136.08.22c.01.028-.027.052-.055.034l-.216-.133-.216.133c-.028.018-.065-.006-.055-.034l.08-.22-.213-.136c-.028-.018-.014-.056.02-.056l.266-.002.084-.218c.01-.029.057-.029.068 0z" fill="#F5F5F5"/></svg>
