<svg width="24" height="24" fill="none" xmlns="http://www.w3.org/2000/svg"><mask id="a" maskUnits="userSpaceOnUse" x="1" y="6" width="22" height="13"><path d="M22.62 18.5H1.38c-.21 0-.38-.147-.38-.329V6.33C1 6.147 1.17 6 1.38 6h21.24c.21 0 .38.147.38.329v11.842c0 .182-.17.33-.38.33z" fill="#F5F5F5"/></mask><g mask="url(#a)"><path d="M23 10H1V6.316C1 6.14 1.17 6 1.38 6h21.24c.21 0 .38.141.38.316V10z" fill="#F5F5F5"/><path d="M22.62 19H1.38a.387.387 0 01-.38-.395V14h22v4.605c0 .218-.17.395-.38.395z" fill="#FF4B55"/><path d="M23 10H1v4h22v-4z" fill="#41479B"/></g></svg>
