<svg width="88" height="45" viewBox="0 0 88 45" fill="none" xmlns="http://www.w3.org/2000/svg">
<g clip-path="url(#clip0)">
<path d="M49.5603 19.2902C48.2789 19.2902 47.0286 19.7252 46.0268 20.5254V14H42.5322V31.3933H46.0268V30.3523C47.0286 31.1602 48.2712 31.5953 49.5603 31.5953C52.7909 31.5953 55.4157 28.8375 55.4157 25.4427C55.4157 22.048 52.7909 19.2902 49.5603 19.2902ZM48.939 28.6044C47.5334 28.6044 46.3608 27.5946 46.0268 26.2273C45.9026 25.7146 45.9026 25.1786 46.0268 24.6581C46.3608 23.2909 47.5334 22.281 48.939 22.281C50.6009 22.281 51.9444 23.6948 51.9444 25.4427C51.9444 27.1906 50.6009 28.6044 48.939 28.6044Z" fill="#212473"/>
<path d="M67.133 28.3015V31.1525C63.685 32.0924 60.0506 32.0847 56.6104 31.1292V29.0395L57.0375 28.5345L58.9712 26.2351H57.3947V24.0677H60.7961L62.9395 21.5275C62.5823 21.512 62.2173 21.5042 61.86 21.5042C60.1516 21.5042 58.4431 21.6829 56.7657 22.0324V19.2436C60.1593 18.5367 63.654 18.5444 67.0476 19.2669V21.4576L66.6205 21.947L64.78 24.06H66.3798V26.2273H62.9007L60.4544 29.0317C60.8505 29.055 61.2466 29.0705 61.6426 29.0705C63.4986 29.0705 65.3469 28.8142 67.133 28.3015Z" fill="#212473"/>
<path d="M2.55457 29.3759C2.99237 28.646 4.37875 28.7676 4.79223 28.792C5.18138 28.8163 6.56776 29.0109 7.5893 30.0571C8.00278 30.4951 7.90549 30.5924 8.31897 30.9574C8.97568 31.517 9.36483 31.3223 10.4593 31.8576C11.4322 32.3199 11.9917 32.6118 12.2106 32.8551C12.3322 33.0011 12.7213 32.6362 13.3537 32.5145C14.0834 32.3928 14.7644 32.0522 15.5184 31.59C16.2481 31.1277 16.4426 30.7141 16.6615 30.3978C16.8318 30.1301 17.0994 29.8868 17.148 28.4513C17.221 26.6022 17.0021 25.6777 16.9534 25.4831C16.8561 24.9721 16.5399 23.8286 16.8075 23.2447C16.8318 23.1717 16.9048 23.0744 16.9291 22.9284C16.9777 22.5148 16.6615 22.1985 16.7832 22.0525C16.8561 21.9795 16.9534 22.0038 16.9534 21.9552C16.9534 21.9065 16.7102 21.9065 16.4913 21.7605C16.321 21.6389 16.2967 21.5416 16.1265 21.3226C15.9319 21.0793 15.7937 20.8652 15.6235 20.6949C14.7722 19.7947 14.3752 19.1572 14.3752 19.1572C14.278 18.9382 14.205 18.7436 14.0104 18.6219C13.6942 18.4273 13.4267 18.6949 12.7456 18.7436C12.0403 18.7922 12.0646 18.5489 11.3349 18.6219C10.8971 18.6706 10.6296 18.7679 10.3377 18.5976C10.1918 18.5246 10.0945 18.4029 9.94857 18.4029C9.77832 18.4273 9.70535 18.5976 9.60806 18.7192C9.38916 18.9869 9.09729 19.0599 8.61084 19.1815C8.3433 19.2545 5.40029 19.9358 4.74358 18.7436C4.549 18.3786 4.52468 17.819 4.79223 17.5514C4.91384 17.4297 5.05977 17.4054 5.32732 17.3567C5.64351 17.2838 5.93538 17.1134 6.49479 16.7485C7.61362 16.0672 7.69077 15.5298 8.51773 15.1406C8.85825 14.9702 9.51077 14.9237 10.8728 14.9237C12.7943 14.9237 12.7456 15.0454 13.5483 14.9724C15.0319 14.8021 15.2995 14.3641 16.1021 14.5344C16.8561 14.6804 17.2453 15.1913 18.0966 16.1646C18.2911 16.3835 20.1153 18.4273 21.9395 20.0087C22.353 20.3737 23.3988 21.2496 24.615 22.5148C25.0041 22.9284 25.296 23.269 25.5392 23.7799C25.9527 24.6072 25.9041 25.1911 26.0013 26.2616C26.0013 26.3589 26.2202 27.3808 26.6337 29.4732C26.9986 31.3223 27.1931 32.2469 27.2661 32.6118C27.8012 35.0448 28.0687 36.2614 28.4093 37.1616C28.8714 38.3538 29.1633 38.743 29.1146 39.5946C29.0416 40.7625 28.3606 41.614 28.1174 41.906C26.6581 43.6578 24.2745 43.8524 22.6692 43.9497C22.28 43.9741 18.9965 44.193 16.8318 42.8305C15.6157 42.0763 14.7401 41.2004 14.7401 41.2004C14.4239 40.8841 14.278 40.7138 13.8645 40.3732C13.2078 39.8136 12.9889 39.7649 12.4781 39.2783C12.0646 38.8647 12.0889 38.7674 11.6998 38.4268C11.3349 38.0861 10.9944 37.9158 10.6296 37.6968C9.82696 37.2346 9.04864 36.7236 8.29465 36.3344C7.12718 35.7261 6.85963 35.7504 6.42183 35.4341C6.15428 35.2395 6.00835 35.0935 5.69216 34.9475C5.49758 34.8502 5.41653 34.8384 5.29492 34.7168C5.10034 34.4978 4.90663 33.9741 4.90663 33.9011C4.8823 33.3415 4.50036 32.8795 4.08688 32.1252C3.40585 30.8844 2.33567 30.6167 2.43296 29.7652C2.43296 29.7165 2.45728 29.5462 2.55457 29.3759Z" fill="#212473"/>
<path d="M16.9817 14.9852C17.2006 14.8149 17.0256 14.2911 16.8067 12.515C16.7094 11.7607 16.6364 11.2255 16.5878 11.0308C16.2716 8.79244 16.3202 8.62212 16.1013 7.62458C15.8338 6.4324 15.7608 6.6757 15.5176 5.55651C15.2732 3.91534 15.5254 2.53711 15.6227 2.24515C15.7686 1.8802 15.9222 1.25002 16.5546 1.07971C16.9924 0.958058 17.4391 1.05541 17.4877 1.07974C17.6093 1.1284 17.9498 1.27438 18.1444 1.63934C18.3147 1.97996 18.1687 2.1746 18.2174 2.80719C18.2417 3.00183 18.2903 3.26947 18.4363 3.82906C18.5336 4.19402 18.6552 4.70495 18.8498 5.31321C19.02 5.82414 19.1173 6.01879 19.2876 6.52972C19.5794 7.30829 19.7983 8.01387 20.1875 9.40069C20.4307 10.2523 20.5523 10.6659 20.601 10.9335C20.6253 11.0552 20.6983 11.3714 20.8685 11.6147C20.9172 11.6877 20.8442 11.6877 21.0144 11.858C21.209 12.0527 21.1604 12.0527 21.2333 12.15C21.4766 12.4906 21.3306 12.7583 21.5495 13.1476C21.7198 13.4882 22.036 13.4395 22.0846 13.7072C22.1576 14.0964 21.8657 14.2667 21.963 14.3641C22.0117 14.4127 22.0846 14.3884 22.1819 14.4127C22.5224 14.51 22.4008 15.5806 22.5468 15.6049C22.6197 15.6049 22.6927 15.2886 22.8143 14.6074C23.0089 13.6098 22.9359 13.4638 23.0332 12.3203C23.1305 11.2498 23.3251 10.5929 23.2764 10.1306C23.2521 9.93596 23.3251 9.83864 23.3008 9.71699C23.3008 9.40069 23.2035 9.25471 23.2764 9.01141C23.3007 8.86543 23.398 8.79244 23.4224 8.71945C23.471 8.30583 23.3737 7.67324 23.398 7.45427C23.4953 6.16477 23.7872 4.65629 24.7844 4.0237C24.8574 3.97504 25.0276 3.75607 25.4898 3.73174C25.8789 3.70741 26.5356 3.80473 26.7545 4.21835C26.8761 4.43732 26.8275 4.68062 26.7545 4.99691C26.7545 4.99691 26.5356 6.14044 26.4627 7.62458C26.4383 8.13552 26.414 8.0382 26.4627 9.13306C26.487 9.76565 26.5599 9.91163 26.5356 11.7851C26.5356 12.8313 26.5356 12.9043 26.5356 13.0259C26.6329 13.8045 26.7545 13.9991 26.7789 14.6804C26.8032 15.4103 26.6816 15.8239 26.7302 15.8482C26.8032 15.8725 26.9734 15.021 27.6545 14.2667C27.8734 13.9991 28.3355 13.4882 28.8706 13.5855C29.0652 13.6098 29.2841 13.7558 29.3813 13.9505C29.5273 14.2424 29.3327 14.583 29.1138 15.1183C28.9435 15.5076 28.8219 15.8725 28.5787 16.6268C28.3112 17.5027 28.3112 17.7216 27.995 18.5245C27.8734 18.8408 27.8734 18.7922 27.7274 19.1571C27.2653 20.3007 27.3626 20.4466 26.9005 21.7118C26.8032 22.0038 26.6329 22.466 26.6086 23.0013C26.6086 23.196 26.6086 23.3906 26.6086 23.3906C26.6086 23.7312 26.6329 23.9745 26.6572 24.2178C26.7302 24.9721 26.6329 24.1935 26.7789 26.5292C26.9734 29.4732 27.1923 31.7845 27.1194 31.8089C27.0464 31.8089 26.8032 29.5705 26.0492 26.3832C25.5871 24.4611 25.3682 23.5123 24.906 22.8067C24.1764 21.7118 23.7872 21.8821 21.3793 19.5464C19.847 18.0623 20.0172 18.0136 19.3119 17.527C18.339 16.8701 17.4634 16.6025 17.1472 15.7022C17.0985 15.3616 17.2492 15.2285 16.9817 14.9852C16.4952 14.5473 15.4446 14.5344 15.4203 14.6317C15.4203 14.7047 16.5439 15.3015 16.9817 14.9852Z" fill="#212473"/>
<path d="M14.666 32.0036C14.9579 31.736 16.0037 31.6387 16.6604 30.5925C16.8064 30.3492 16.8793 30.0815 17.0009 29.5463C17.1955 28.6461 17.1955 27.6972 17.0982 26.9916C17.0739 26.7483 17.0496 26.505 17.0009 26.2617C16.928 25.7994 16.9766 25.6291 16.9766 25.4831L16.9523 25.2155C16.9523 24.8505 16.8064 24.6559 16.7577 24.1936C16.7334 23.853 16.7334 23.5124 16.8793 23.3177C16.9766 23.1717 17.0009 23.0014 17.0009 23.0014C17.0253 22.6851 16.6361 22.2472 16.855 22.1255C17.1225 21.9796 16.9036 22.0282 16.8064 21.9552C16.6847 21.8822 16.4415 21.7363 16.174 21.42C15.4443 20.5441 15.0065 20.0088 14.4228 19.1573C14.3255 19.0113 14.1795 18.9383 14.1066 18.695C14.0579 18.5247 13.8147 18.549 13.8147 18.549C13.0364 18.7923 12.8661 18.5977 11.4068 18.6706C10.896 18.695 10.4339 18.7923 10.3123 18.5247C10.2636 18.3787 9.99609 18.5247 9.99609 18.5247C9.87447 18.5977 9.92312 18.695 9.26641 19.0113C8.41513 19.4249 8.51242 19.3519 8.43945 19.3519C8.19623 19.4006 7.75843 19.4735 7.22333 19.4979C6.93146 19.5222 5.35051 19.6925 4.76677 18.695C4.62084 18.4517 4.62084 18.2327 4.64516 18.0624C4.64516 17.9407 4.69381 17.8191 4.74245 17.7218C4.7911 17.6488 4.86406 17.5515 4.93703 17.5028C5.47212 17.2352 5.69102 17.2108 6.05586 17.0892C6.27476 17.0162 6.49366 16.7972 7.32062 16.1403C8.2692 15.3861 8.19623 15.3131 8.36649 15.2157C8.56107 15.1184 9.02319 14.9968 10.5312 14.9724C11.8932 14.9481 12.3797 15.0454 13.4255 14.9724C14.3984 14.8995 14.6417 14.8265 14.9092 14.7291C15.1524 14.6562 15.4686 14.3885 15.8578 14.4615C16.0037 14.4858 16.2226 14.5345 16.5631 14.7535C17.1225 15.1184 17.4631 15.5807 17.536 15.678C17.7792 16.0186 18.29 16.4809 19.3116 17.4298C20.0656 18.1354 20.5763 18.549 20.6979 18.7923C20.7223 18.841 20.7466 18.8653 20.8195 18.914C20.9655 19.0843 21.0384 19.1573 21.0628 19.1816C21.2087 19.3276 21.306 19.4249 21.4033 19.4492C21.6465 19.5709 21.8654 19.8385 22.1816 20.1791C22.6924 20.7144 23.1545 21.0064 23.8112 21.6146C24.7598 22.4905 25.2462 22.9041 25.5624 23.634C25.684 23.9017 25.8056 24.6559 26.0489 26.1644C26.1705 26.9673 26.2191 27.2836 26.3407 27.9891C26.4623 28.6461 26.5596 28.9867 26.6812 29.4976C26.7542 29.7653 26.8029 30.0086 26.8515 30.2275C26.9488 30.7385 26.9974 30.9818 27.1434 31.736C27.265 32.3199 27.2407 32.2226 27.3136 32.6362C27.5812 34.023 27.6298 34.461 27.873 35.3612C27.8974 35.4342 27.8974 35.4829 27.9217 35.5559C28.0433 35.9208 28.2379 36.5047 28.627 37.6483C29.0892 39.0351 29.1621 39.1567 29.1621 39.473C29.2108 40.6165 28.5054 41.5168 28.1649 41.9304C26.5596 43.9498 23.6409 43.9741 22.1816 43.9985C20.6736 44.0228 19.5548 43.7552 18.7521 43.5362C17.9252 43.3415 16.928 42.9279 16.7577 42.7576L16.174 42.5143C15.9794 42.3683 16.028 42.2953 15.7362 42.0034C15.2984 41.5654 14.9822 41.4681 14.8849 41.3708L14.593 41.1518C14.3255 41.0058 14.3011 40.8355 14.0093 40.5192C13.4012 39.838 12.8904 39.6677 12.7688 39.5217L12.5499 39.327C12.3067 39.1811 12.2094 38.9378 12.1121 38.8404C11.9419 38.6215 11.6743 38.3295 10.6041 37.6726C8.58539 36.4804 7.58817 35.8721 7.0774 35.7748C6.95579 35.7505 6.68824 35.6288 6.51799 35.4585C6.46934 35.4099 6.39637 35.4099 6.39637 35.4099C6.27476 35.4342 6.22612 35.2396 5.95857 35.0206C5.64238 34.7773 5.47212 34.8503 5.32619 34.7286L5.13161 34.3393C5.03432 34.1447 4.91271 33.9501 4.64516 33.2688C4.42626 32.6849 4.256 32.2713 3.91549 31.8333C3.74523 31.6144 3.79388 31.7117 3.23446 31.1034C2.65073 30.4465 2.50479 30.2275 2.48047 29.9112C2.48047 29.6436 2.57776 29.449 2.60208 29.376C2.8453 28.8894 3.35608 28.7677 3.52633 28.6947C3.84252 28.5974 4.11007 28.5974 4.37762 28.6461C5.39916 28.865 5.93425 28.8407 6.98011 29.4976C7.05308 29.5463 7.27198 29.7896 7.49088 29.8869C7.53953 29.9112 7.58817 29.9112 7.61249 29.9599L7.7341 30.2275C7.88004 30.5681 8.0503 30.5438 8.22055 30.7628C8.43945 31.0791 8.90158 31.2251 9.87447 31.5414C10.0204 31.59 11.577 32.101 11.9662 32.4659C12.0878 32.5876 12.1608 32.7335 12.1608 32.7335C12.2581 32.9525 12.2581 33.1715 12.2824 33.1715C12.3067 33.1715 12.2337 32.9039 12.331 32.7335C12.4283 32.5632 12.6715 32.5146 12.7932 32.5146C13.7661 32.3443 13.7661 32.3443 14.3741 32.1253L14.666 32.0036Z" stroke="#F6F7FC" stroke-width="0.182477" stroke-miterlimit="10"/>
<path d="M22.1098 14.1452C22.1828 13.9749 22.0855 13.8046 21.9882 13.6099C21.8909 13.4153 21.6477 13.318 21.5747 13.1477C21.5261 13.0504 21.5261 12.9287 21.5261 12.9287C21.5261 12.88 21.4774 12.7097 21.4045 12.4178C21.3558 12.2475 21.3072 12.1501 21.2585 12.0528C21.1369 11.8582 21.0396 11.8338 20.9424 11.6635C20.8694 11.5419 20.8694 11.4202 20.8451 11.3472C20.8451 11.3229 20.6991 10.885 20.4559 10.0091C20.0181 8.54925 19.7992 7.79501 19.6046 7.23542C19.1182 5.82426 18.9722 5.65395 18.6804 4.58342C18.5101 3.95083 18.4372 3.63454 18.3885 3.26958C18.2182 2.17472 18.3885 1.8341 18.0966 1.44481C17.7804 1.05553 17.1724 0.909546 16.6859 1.05553C16.0049 1.25017 15.7374 1.98008 15.5914 2.3207C15.3969 2.85597 15.4212 3.41556 15.4698 4.53476C15.4941 4.87538 15.4941 5.16734 15.5671 5.5323C15.6644 6.18921 15.8103 6.45685 15.9563 7.04077C16.0779 7.47872 16.1508 7.94099 16.2968 8.86554C16.4427 9.76576 16.5157 10.4227 16.5643 10.9336C16.6859 12.0285 17.0508 13.1233 17.0021 14.2182C17.0021 14.3885 16.9535 14.8265 17.1967 15.2887C17.367 15.605 17.5859 15.7753 17.6832 15.8727C18.5588 16.5782 19.2884 17.4541 20.1154 18.2084C20.5289 18.5733 20.7964 18.841 21.2829 19.2789C23.4232 21.2496 23.1314 21.0793 23.5935 21.4443C24.2259 21.9552 24.5907 22.1742 25.0285 22.7581C25.369 23.1961 25.5393 23.6097 25.6123 23.7557C25.8068 24.1936 25.8555 24.5342 26.0014 25.4345C26.123 26.286 26.196 26.6996 26.2446 27.0889C26.4635 29.0353 27.023 31.1277 27.1202 31.1034C27.2175 31.0791 26.9013 29.8382 26.9013 27.6972C26.9013 26.797 26.9743 26.14 26.804 25.0452C26.7068 24.4612 26.6338 23.9503 26.3419 23.3664C26.269 23.2204 26.1717 23.0258 25.5879 22.1499C24.9555 21.201 24.9312 21.201 24.7366 20.909C24.2016 20.0575 23.9827 19.3032 23.7394 18.476C23.3503 17.1865 23.4476 17.0405 23.107 16.3836C22.8638 15.9213 22.6692 15.7267 22.5476 15.2157C22.4503 14.8021 22.4747 14.4858 22.2801 14.3885C22.2071 14.3885 22.0125 14.3885 22.1098 14.1452Z" stroke="#F6F7FC" stroke-width="0.182477" stroke-miterlimit="10"/>
<path d="M26.8279 15.824C26.9009 15.678 26.9252 15.4104 26.8765 15.2401C26.7792 14.6562 26.7792 14.0722 26.6333 13.5126C26.5847 13.318 26.5603 12.5881 26.536 11.1283C26.536 10.885 26.4874 8.7439 26.536 6.8948C26.536 6.48118 26.5603 6.38386 26.5603 6.26221C26.6576 5.48364 26.8522 5.16735 26.8279 4.51043C26.8279 4.26713 26.8036 4.12115 26.7063 3.9995C26.4144 3.61021 25.6847 3.65887 25.2226 3.80485C24.6146 4.02383 24.2984 4.51043 24.1038 4.80239C23.52 5.70261 23.4714 6.72449 23.4714 7.18676C23.4714 7.52738 23.4714 7.64904 23.4714 7.86801C23.4714 7.96533 23.4471 8.11131 23.4471 8.28162C23.3741 9.01153 23.3741 9.01153 23.3498 9.18184V9.27916C23.3255 9.37649 23.3741 10.301 23.2282 11.5662C23.1552 12.1745 23.0093 12.9044 23.0336 13.391C23.0336 13.464 23.0579 13.5856 23.0336 13.7559C22.985 14.1209 22.8633 14.2182 22.8877 14.3642C22.8877 14.4372 22.8633 14.5588 22.8633 14.5588C22.8147 14.6075 22.8147 14.6562 22.7417 14.9968C22.6444 15.4104 22.6201 15.4347 22.6201 15.5807C22.6444 15.7997 22.7417 15.9457 22.8877 16.116C23.0336 16.3106 22.9606 16.2863 23.4957 17.7948C23.6417 18.2327 23.6417 18.2084 23.7146 18.403C23.9335 19.0599 23.9335 19.2059 24.0551 19.5952C24.2011 20.0575 24.4443 20.4711 24.9307 21.2983C25.3442 22.0039 25.4415 22.0769 25.5145 22.0526C25.6847 22.0039 25.5874 21.4686 25.782 20.5441C25.928 19.9115 26.0253 19.9358 26.1469 19.3276C26.2685 18.6706 26.1469 18.6706 26.2928 17.8921C26.4144 17.2352 26.4874 16.9189 26.5847 16.6999C26.682 16.5296 26.8036 16.3593 26.7792 16.1646C26.7792 16.1646 26.7306 15.97 26.8279 15.824Z" stroke="#F6F7FC" stroke-width="0.182477" stroke-miterlimit="10"/>
<path d="M26.8042 22.1012C26.7312 22.2715 26.7556 22.4175 26.7556 22.4904C26.7069 23.1717 26.8042 23.0257 26.7799 23.8043C26.7556 24.3639 26.7556 24.7288 26.7069 24.7532C26.634 24.7532 26.7556 23.9016 26.2205 23.269C26.0989 23.123 25.8556 22.8311 25.6367 22.3931C25.6124 22.3201 25.5881 22.2471 25.5638 22.1742C25.4422 21.7362 25.5395 21.4686 25.5638 21.1766C25.5881 20.8117 25.7584 20.69 25.9529 20.0088C26.0016 19.8384 26.0502 19.6438 26.0989 19.3762C26.1962 18.8652 26.1232 18.7679 26.1962 18.184C26.2448 17.6731 26.2934 17.4054 26.4151 17.1864C26.4637 17.0891 26.5853 16.8702 26.7069 16.5052C26.8042 16.2619 26.7556 16.2619 26.7556 16.1402L26.9015 15.6536C27.1934 15.24 27.0961 15.167 27.388 14.7048C27.7041 14.1938 28.0447 13.9505 28.2392 13.8289C28.4581 13.6829 28.6527 13.5612 28.8959 13.6099C29.0662 13.6342 29.3094 13.7559 29.4067 13.9749C29.5526 14.2911 29.3094 14.6561 28.9203 15.7023C28.8716 15.8483 28.823 15.9943 28.7743 16.1402C28.7014 16.3592 28.6527 16.5295 28.6284 16.6512C28.4095 17.4297 28.4095 17.6001 28.2636 17.9893L27.7771 19.1572C27.7041 19.3275 27.6798 19.4978 27.5582 19.6925C27.2663 20.2034 27.4366 20.3251 27.1204 21.1523C26.9745 21.5172 26.8772 21.6389 26.8042 21.8335V22.1012Z" stroke="#F6F7FC" stroke-width="0.182477" stroke-miterlimit="10"/>
<path d="M8.98307 25.9102C9.89805 23.5336 8.7524 20.8647 6.42266 19.9494C4.09292 19.0341 1.45562 20.2109 0.540639 22.5875C-0.374342 24.9642 0.771308 27.6331 3.10105 28.5484C5.43848 29.4637 8.06809 28.2792 8.98307 25.9102Z" fill="#E29813"/>
<path d="M7.91264 26.81C9.57344 24.9026 9.41197 21.9875 7.54357 20.2954C5.67516 18.6033 2.8072 18.7879 1.14639 20.6954C-0.514415 22.6028 -0.352946 25.5179 1.51546 27.21C3.38387 28.8944 6.25183 28.7175 7.91264 26.81Z" fill="#EEBE13"/>
<path opacity="0.2" d="M4.52242 27.1177C6.42927 27.1024 7.96705 25.5564 7.95936 23.6643C7.95167 21.7722 6.39851 20.2493 4.49166 20.2647C2.58481 20.2801 1.04703 21.8261 1.05472 23.7181C1.06241 25.6179 2.61557 27.1331 4.52242 27.1177Z" fill="white"/>
<path opacity="0.3" d="M4.49178 20.2725C6.36788 20.2571 7.89798 21.7646 7.95949 23.649C7.95949 23.6106 7.96718 23.5875 7.95949 23.549C7.9518 21.6108 6.40632 20.0571 4.49178 20.0648C2.59262 20.0802 1.05484 21.6646 1.06253 23.6106C1.06253 23.649 1.07022 23.6721 1.06253 23.7106C1.10866 21.8262 2.61569 20.2956 4.49178 20.2725Z" fill="black"/>
<path d="M6.04502 24.672C6.03733 24.1797 5.81435 23.8567 5.46835 23.7259C5.7144 23.5721 5.87586 23.2721 5.87586 22.8876C5.86818 22.3953 5.60675 22.0569 5.09929 21.9492L5.09159 21.3493H4.54568V21.9031H4.23813V21.3493H3.69221V21.9031L3.20012 21.9108L2.85412 21.9185V22.4722L3.20012 22.4645L3.2155 25.1565H2.83105V25.7103H3.2155L3.70759 25.7026V26.3564H4.2535V25.7026H4.56106V26.3564H5.10697V25.6872C5.73746 25.6026 6.05271 25.2411 6.04502 24.672ZM3.9075 22.4876L4.64564 22.4799C5.05315 22.4799 5.28382 22.6491 5.29151 23.0029C5.2992 23.3567 5.06084 23.5183 4.65333 23.526L3.81524 23.5413L3.80755 22.4953L3.9075 22.4876ZM4.77635 25.1642L3.88444 25.1719L3.82292 25.1642V24.072L4.77635 24.0567C5.22231 24.049 5.46066 24.2182 5.46835 24.5951C5.46066 25.0027 5.22231 25.1642 4.77635 25.1642Z" fill="#E29813"/>
</g>
<defs>
<clipPath id="clip0">
<rect width="88" height="45" fill="white"/>
</clipPath>
</defs>
</svg>