<svg width="16" height="16" fill="none" xmlns="http://www.w3.org/2000/svg"><path d="M3.63 10.46c.156-.262.652-.218.8-.21.14.009.635.079 1 .453.149.157.114.191.262.322.235.2.374.13.766.322.348.165.548.27.626.357.044.052.183-.078.41-.122.26-.043.504-.165.773-.33.261-.166.331-.314.41-.427.06-.096.156-.183.173-.697.027-.661-.052-.992-.07-1.061-.034-.183-.147-.592-.051-.801.008-.026.034-.061.043-.113.018-.148-.096-.261-.052-.314.026-.026.06-.017.06-.034 0-.018-.086-.018-.165-.07-.06-.044-.07-.078-.13-.157-.07-.087-.12-.163-.18-.224a3.915 3.915 0 0 1-.447-.55c-.034-.079-.06-.148-.13-.192-.113-.07-.209.026-.452.044-.253.017-.244-.07-.505-.044-.157.018-.252.052-.357-.009-.052-.026-.087-.07-.14-.07-.06.01-.086.07-.12.114-.08.096-.184.122-.358.165-.095.026-1.148.27-1.383-.156-.07-.13-.078-.331.017-.427.044-.043.096-.052.192-.07.113-.026.217-.087.417-.217.4-.244.428-.436.724-.575.122-.061.355-.078.843-.078.687 0 .67.044.957.018.53-.061.626-.218.913-.157.27.052.41.235.714.583.07.078.722.81 1.374 1.375.148.13.523.444.958.897.139.148.243.27.33.452.148.296.13.505.166.888 0 .035.078.4.226 1.15.13.66.2.991.226 1.122.191.87.287 1.305.409 1.627.165.427.27.566.252.87-.026.419-.27.723-.356.828-.522.626-1.375.696-1.95.73-.139.01-1.313.088-2.088-.4-.435-.27-.748-.583-.748-.583-.113-.113-.165-.174-.313-.296-.235-.2-.314-.217-.496-.391-.148-.148-.14-.183-.279-.305-.13-.122-.252-.183-.383-.261-.287-.165-.565-.348-.835-.487-.418-.218-.513-.21-.67-.323-.096-.07-.148-.121-.26-.174-.07-.034-.1-.039-.143-.082a.842.842 0 0 1-.139-.292c-.009-.2-.145-.365-.293-.635-.244-.444-.627-.54-.592-.844a.33.33 0 0 1 .044-.14z" fill="#212473"/><path d="M8.79 5.312c.08-.061.017-.249-.062-.884a7.39 7.39 0 0 0-.078-.531c-.113-.8-.096-.862-.174-1.219-.096-.426-.122-.34-.209-.74-.087-.587.003-1.08.038-1.184.052-.13.107-.356.333-.417a.653.653 0 0 1 .334 0 .45.45 0 0 1 .235.2c.06.122.009.192.026.418.009.07.026.165.078.366.035.13.079.313.148.53.061.183.096.253.157.436.104.278.183.53.322 1.027.087.304.13.452.148.548a.685.685 0 0 0 .095.244c.018.026-.008.026.053.087.07.07.052.07.078.104.087.122.035.218.113.357.06.122.174.105.191.2.027.14-.078.2-.043.235.017.018.043.01.078.018.122.035.079.418.13.426.027 0 .053-.113.096-.357.07-.356.044-.409.079-.818.035-.383.104-.618.087-.783-.009-.07.017-.105.008-.148 0-.113-.034-.165-.008-.252.008-.053.043-.079.052-.105.017-.148-.017-.374-.009-.452.035-.462.14-1.001.496-1.228.026-.017.087-.096.253-.104.139-.009.374.026.452.174.044.078.026.165 0 .278 0 0-.078.41-.104.94-.009.183-.018.148 0 .54.008.226.035.279.026.949v.444c.035.278.078.348.087.592.009.26-.035.409-.018.417.027.009.087-.296.331-.565.078-.096.244-.279.435-.244.07.009.148.06.183.13.052.105-.018.227-.096.418-.06.14-.104.27-.191.54-.096.313-.096.392-.21.679-.043.113-.043.095-.095.226-.165.41-.13.461-.296.914-.034.104-.095.27-.104.461v.14c0 .121.009.208.017.295.026.27-.008-.008.044.827.07 1.054.148 1.88.122 1.89-.026 0-.113-.802-.383-1.942-.166-.688-.244-1.027-.41-1.28-.26-.391-.4-.33-1.26-1.166-.55-.53-.488-.548-.74-.722-.349-.235-.662-.33-.775-.653-.017-.122.037-.17-.06-.256-.173-.157-.549-.162-.558-.127 0 .026.402.24.559.127z" fill="#212473"/><g stroke="#f6f7fc" stroke-miterlimit="10" stroke-width=".06"><path d="M7.962 11.4c.105-.096.479-.13.714-.505.052-.087.078-.182.122-.374.07-.322.07-.661.035-.914a2.674 2.674 0 0 0-.035-.261c-.026-.165-.009-.226-.009-.279l-.009-.095c0-.13-.052-.2-.07-.366-.008-.122-.008-.244.044-.313.035-.052.044-.113.044-.113.008-.113-.13-.27-.052-.314.095-.052.017-.034-.018-.06a.848.848 0 0 1-.226-.192 9.709 9.709 0 0 1-.627-.81c-.034-.052-.087-.078-.113-.165-.017-.06-.104-.052-.104-.052-.279.087-.34.017-.861.043-.183.01-.349.044-.392-.052-.017-.052-.113 0-.113 0-.044.026-.026.061-.261.174-.305.148-.27.122-.296.122a2.947 2.947 0 0 1-.435.052c-.104.009-.67.07-.879-.287a.328.328 0 0 1-.043-.226c0-.044.017-.087.034-.122a.3.3 0 0 1 .07-.078c.191-.096.27-.105.4-.148.079-.026.157-.105.453-.34.34-.27.313-.296.374-.33.07-.035.235-.079.774-.088.488-.008.662.026 1.036 0 .348-.026.435-.052.53-.087.087-.026.2-.122.34-.095.052.008.13.026.252.104.2.13.322.296.348.33.087.123.27.288.635.627.27.253.453.4.496.488.009.017.018.026.044.043.052.061.078.087.087.096.052.052.087.087.122.096.087.043.165.14.278.261.183.192.348.296.583.514.34.313.513.46.627.722.043.096.087.366.174.905.043.287.06.4.104.653.043.235.078.357.122.54.026.095.043.182.06.26l.105.54c.044.21.035.174.061.322.096.497.113.653.2.975.009.026.009.044.018.07.043.13.113.34.252.748.165.497.191.54.191.653.018.41-.235.731-.356.88-.575.722-1.619.73-2.14.74-.54.008-.94-.088-1.228-.166-.296-.07-.652-.218-.713-.279l-.209-.087c-.07-.052-.052-.078-.157-.183-.156-.156-.27-.191-.304-.226l-.105-.078c-.095-.052-.104-.113-.208-.227-.218-.243-.4-.304-.444-.356l-.078-.07c-.087-.052-.122-.14-.157-.174-.061-.078-.157-.183-.54-.418-.722-.426-1.078-.644-1.261-.679a.476.476 0 0 1-.2-.113c-.018-.017-.044-.017-.044-.017-.043.008-.06-.061-.157-.14-.113-.087-.174-.06-.226-.104l-.07-.14c-.034-.069-.078-.139-.173-.382-.079-.21-.14-.357-.261-.514-.061-.078-.044-.043-.244-.26-.209-.236-.261-.314-.27-.427 0-.096.035-.166.044-.192.087-.174.27-.218.33-.244a.614.614 0 0 1 .305-.017c.365.078.557.07.93.305.027.017.105.104.184.139.017.009.034.009.043.026l.044.096c.052.122.113.113.174.191.078.113.243.166.591.279.053.017.61.2.749.33.043.044.07.096.07.096.034.079.034.157.043.157.008 0-.018-.096.017-.157.035-.06.122-.078.166-.078.348-.061.348-.061.565-.14z" stroke-width=".065718"/><path d="M10.625 5.011c.027-.06-.008-.122-.043-.191-.035-.07-.122-.105-.148-.166-.017-.035-.017-.078-.017-.078 0-.018-.018-.079-.044-.183a.67.67 0 0 0-.052-.13c-.044-.07-.078-.079-.113-.14-.026-.043-.026-.087-.035-.113 0-.009-.052-.165-.14-.479-.156-.522-.234-.792-.304-.992-.174-.505-.226-.566-.33-.949a3.474 3.474 0 0 1-.105-.47c-.06-.391 0-.513-.104-.652a.493.493 0 0 0-.505-.14c-.243.07-.34.331-.391.453-.07.191-.061.392-.044.792.009.122.009.226.035.357.035.235.087.33.14.54.043.156.069.322.12.652.053.322.08.557.097.74.043.392.174.783.156 1.175 0 .061-.017.218.07.383.06.113.14.174.174.209.313.252.574.566.87.836.148.13.244.226.418.383.765.705.66.644.826.774.226.183.357.261.514.47.121.157.182.305.208.357.07.157.087.279.14.6.043.305.07.453.087.592.078.697.278 1.445.313 1.437.035-.009-.078-.453-.078-1.219 0-.322.026-.557-.035-.949-.035-.209-.061-.391-.166-.6a3.852 3.852 0 0 0-.27-.435c-.226-.34-.234-.34-.304-.444-.191-.305-.27-.575-.357-.87-.139-.462-.104-.514-.226-.75-.087-.165-.156-.234-.2-.417-.035-.148-.026-.261-.096-.296-.026 0-.095 0-.06-.087z" stroke-width=".065718"/><path d="M12.313 5.612a.34.34 0 0 0 .017-.21c-.034-.208-.034-.417-.087-.617-.017-.07-.026-.331-.034-.853 0-.087-.018-.853 0-1.515 0-.148.008-.183.008-.226.035-.279.105-.392.096-.627 0-.087-.009-.139-.043-.183-.105-.139-.366-.121-.531-.07-.218.08-.33.253-.4.358-.21.322-.227.687-.227.853v.243c0 .035-.008.087-.008.148-.026.262-.026.262-.035.322v.035c-.009.035.009.366-.044.818-.026.218-.078.48-.07.653 0 .026.01.07 0 .13-.017.131-.06.166-.051.218 0 .026-.01.07-.01.07-.016.017-.016.035-.043.157-.034.148-.043.156-.043.209.009.078.043.13.096.191.052.07.026.061.217.6.052.157.052.149.078.218.079.235.079.287.122.427.052.165.14.313.313.609.148.252.183.279.21.27.06-.018.025-.21.095-.54.052-.226.087-.217.13-.435.044-.235 0-.235.053-.514.043-.235.07-.348.104-.426.035-.061.079-.122.07-.192 0 0-.018-.07.017-.121z" stroke-width=".065718"/><path d="M12.304 7.857c-.026.061-.017.113-.017.14-.017.243.017.19.009.47-.009.2-.009.33-.027.339-.026 0 .018-.305-.174-.531-.043-.052-.13-.157-.208-.313l-.026-.079c-.044-.156-.01-.252 0-.357.008-.13.07-.174.139-.417.017-.061.035-.131.052-.227.035-.183.009-.217.035-.426.017-.183.035-.279.078-.357.017-.035.061-.113.104-.244.035-.087.018-.087.018-.13l.052-.174c.105-.148.07-.174.174-.34a.931.931 0 0 1 .305-.313c.078-.052.148-.096.235-.079.06.01.148.053.182.131.053.113-.034.244-.174.618l-.052.157c-.026.078-.043.139-.052.182-.078.279-.078.34-.13.48l-.175.417c-.026.06-.034.122-.078.191-.104.183-.043.227-.157.523-.052.13-.087.174-.113.243z" stroke-width=".065718"/></g><g stroke-width=".327"><path d="M5.93 9.22c.327-.85-.083-1.805-.916-2.133a1.623 1.623 0 0 0-2.105.944c-.327.85.083 1.805.916 2.133A1.625 1.625 0 0 0 5.93 9.22z" fill="#e29813"/><path d="M5.547 9.542a1.673 1.673 0 0 0-.132-2.33 1.6 1.6 0 0 0-2.289.142 1.673 1.673 0 0 0 .132 2.33c.668.603 1.694.54 2.289-.142z" fill="#eebe13"/><path d="M4.334 9.652a1.236 1.236 0 0 0 1.23-1.236A1.225 1.225 0 0 0 4.322 7.2a1.236 1.236 0 0 0-1.23 1.236c.003.68.559 1.221 1.24 1.216z" fill="#fff" opacity=".2"/><path d="M4.323 7.203a1.24 1.24 0 0 1 1.24 1.208c0-.014.003-.022 0-.036a1.24 1.24 0 0 0-1.24-1.246c-.68.005-1.23.572-1.227 1.268 0 .014.003.022 0 .036a1.252 1.252 0 0 1 1.227-1.23z" fill="#000" opacity=".3"/><path d="M4.878 8.777c-.002-.176-.082-.292-.206-.339.088-.055.146-.162.146-.3-.003-.176-.096-.297-.278-.335l-.003-.215h-.195v.198h-.11v-.198h-.195v.198l-.176.003-.124.003v.198l.124-.003.005.963H3.73v.198h.137l.176-.002v.233h.196v-.233h.11v.233h.195V9.14c.225-.03.338-.16.335-.363zm-.764-.782.264-.002c.146 0 .228.06.23.187.004.126-.082.184-.227.187l-.3.005-.003-.374zm.31.958-.318.003-.023-.003v-.39l.342-.006c.16-.003.244.058.247.192-.003.146-.088.204-.247.204z" fill="#e29813"/></g></svg>