<svg xmlns="http://www.w3.org/2000/svg" viewBox="0 0 16 16"><defs><style>.cls-2{fill:#212473}.cls-3{fill:none;stroke:#dde3fb;stroke-miterlimit:10;stroke-width:.25px}.cls-4{fill:#e29813}</style></defs><circle cx="8" cy="8" r="8" fill="#dde3fb"/><path class="cls-2" d="M206.38 302.05c.13-.22.54-.18.66-.18a1.41 1.41 0 01.84.38c.12.13.09.16.21.27s.31.11.64.27a1.83 1.83 0 01.52.29c0 .05.15-.06.34-.1a2.09 2.09 0 00.65-.27 1.08 1.08 0 00.34-.36c0-.08.13-.15.14-.58a3 3 0 00-.06-.88 1.37 1.37 0 010-.67.39.39 0 000-.09c0-.13-.08-.22 0-.26s-.07 0-.13-.06a.75.75 0 01-.11-.13c-.06-.07-.1-.14-.15-.19a2.71 2.71 0 01-.37-.46c0-.06-.05-.12-.11-.15s-.18 0-.38 0-.2-.06-.42 0-.21 0-.3 0-.07-.06-.11-.06-.07.06-.1.09a.5.5 0 01-.3.14c-.08 0-1 .23-1.15-.13a.32.32 0 010-.35.24.24 0 01.16-.06 1 1 0 00.35-.18c.33-.2.36-.36.6-.48a1.89 1.89 0 01.7-.07h.8c.44-.05.52-.18.76-.13s.34.19.59.48a12.7 12.7 0 001.15 1.15c.12.11.43.37.79.74a1.43 1.43 0 01.28.38 1.88 1.88 0 01.14.74l.18 1c.12.67.17.82.19.93a11.2 11.2 0 00.34 1.35c.14.36.23.48.21.73a1.24 1.24 0 01-.29.69 2.22 2.22 0 01-1.63.61 3.29 3.29 0 01-1.73-.34 4.09 4.09 0 01-.63-.48 1.56 1.56 0 00-.26-.25c-.19-.17-.26-.18-.41-.33a2.84 2.84 0 00-.23-.25 2 2 0 00-.32-.22c-.24-.13-.47-.29-.69-.4s-.43-.18-.56-.27a.83.83 0 00-.22-.14l-.12-.07a.82.82 0 01-.11-.25 1.34 1.34 0 00-.25-.52c-.2-.37-.52-.45-.49-.71a.29.29 0 01.05-.17z" transform="translate(-202 -292)"/><path class="cls-2" d="M210.67 297.76c.07-.05 0-.2 0-.73a3.27 3.27 0 00-.07-.44c-.09-.67-.08-.72-.14-1s-.1-.28-.17-.61a2.46 2.46 0 010-1c0-.11.09-.3.27-.35a.77.77 0 01.28 0 .41.41 0 01.2.17v.35a3 3 0 00.06.3c0 .11.07.26.13.44s.08.21.13.37.15.44.27.85c.07.25.1.38.12.46a.68.68 0 00.08.2v.07a.3.3 0 01.07.09c.07.1 0 .18.09.3s.15.08.16.16-.06.17 0 .2h.07c.1 0 .06.35.11.36s0-.1.08-.3a4.65 4.65 0 00.06-.68c0-.32.09-.51.08-.65s0-.09 0-.13v-.21-.08-.38a1.35 1.35 0 01.41-1 .41.41 0 01.21-.09c.12 0 .32 0 .38.15s0 .14 0 .23-.06.34-.09.78v.45a7.61 7.61 0 010 .79v.37c0 .23.06.29.07.49a2.73 2.73 0 010 .35 3 3 0 01.28-.47c.06-.08.2-.23.36-.2a.19.19 0 01.15.11c0 .08 0 .18-.08.34s-.08.23-.16.45-.08.33-.17.57l-.08.18c-.14.35-.11.39-.25.77a1.37 1.37 0 00-.08.38v.12a1.7 1.7 0 000 .24v.69c.06.88.12 1.56.1 1.57s-.09-.67-.32-1.61a3.57 3.57 0 00-.34-1.07c-.22-.32-.33-.27-1.05-1-.46-.44-.4-.46-.61-.6s-.55-.28-.65-.54c0-.1 0-.14-.05-.22a.57.57 0 00-.46-.1s.42.21.55.11z" transform="translate(-202 -292)"/><path class="cls-3" d="M210 302.83c.09-.08.4-.11.6-.42a1.24 1.24 0 00.1-.31 2.21 2.21 0 000-.76v-.22a1 1 0 010-.23v-.08-.31a.43.43 0 010-.26.25.25 0 000-.09c0-.09-.11-.23-.05-.26s0 0 0-.05a.71.71 0 01-.19-.16 6.15 6.15 0 01-.52-.68s-.07-.06-.09-.13-.09-.05-.09-.05c-.23.08-.28 0-.72 0H208.62a.52.52 0 01-.21.14c-.26.12-.23.1-.25.1a1.92 1.92 0 01-.36.05c-.09 0-.56.05-.73-.24a.24.24 0 010-.19.17.17 0 010-.1.19.19 0 01.06-.07 2 2 0 01.33-.12 2.58 2.58 0 00.38-.28c.28-.23.26-.25.31-.28a1.79 1.79 0 01.64-.07h.86a1.3 1.3 0 00.44-.07c.08 0 .17-.1.29-.08a.46.46 0 01.21.08 1.26 1.26 0 01.29.28 4.23 4.23 0 00.53.52 2.92 2.92 0 01.41.41l.08.08a.22.22 0 00.1.08 1.13 1.13 0 01.23.22c.15.16.29.25.48.43a1.83 1.83 0 01.53.6 5.89 5.89 0 01.14.75c0 .24 0 .33.09.54a3.42 3.42 0 00.1.45c0 .08 0 .16.05.22s0 .22.09.45 0 .14.05.27c.08.41.09.54.16.81v.06c0 .11.09.28.21.62a1.93 1.93 0 01.16.54 1.13 1.13 0 01-.3.73 2.24 2.24 0 01-1.78.62 3.23 3.23 0 01-1-.14 2 2 0 01-.59-.23l-.18-.07c-.06 0 0-.07-.13-.15a1.53 1.53 0 00-.25-.19l-.09-.07c-.08 0-.09-.09-.17-.19a2 2 0 00-.37-.29l-.07-.06c-.07 0-.1-.12-.13-.15a1.54 1.54 0 00-.45-.34 5.27 5.27 0 00-1.05-.57.44.44 0 01-.16-.09s-.05 0-.13-.11-.14-.05-.19-.09l-.06-.12s-.06-.11-.14-.31a1.58 1.58 0 00-.22-.43 1.66 1.66 0 00-.2-.22c-.17-.19-.22-.26-.22-.35a.4.4 0 010-.16c.07-.15.23-.18.28-.21a.71.71 0 01.25 0 1.83 1.83 0 01.77.25.82.82 0 00.16.12v.08c0 .1.09.09.14.16s.21.14.5.23a3.11 3.11 0 01.62.28.21.21 0 01.06.08.33.33 0 010 .13v-.13a.17.17 0 01.14-.07 2.53 2.53 0 00.47-.11z" transform="translate(-202 -292)"/><path class="cls-3" d="M212.2 297.51v-.16c0-.06-.1-.08-.12-.13a.14.14 0 010-.07V297a.58.58 0 00-.05-.11c0-.06-.06-.07-.09-.12a.47.47 0 010-.09l-.11-.4c-.13-.43-.2-.66-.26-.82-.14-.42-.19-.47-.27-.79s-.07-.29-.09-.39c-.05-.33 0-.43-.09-.55a.4.4 0 00-.42-.11c-.2.05-.28.27-.32.37a1.77 1.77 0 000 .66v.3a3.31 3.31 0 00.12.45c0 .13 0 .27.1.54s.06.46.08.62a8.06 8.06 0 01.13 1 .53.53 0 00.06.32.61.61 0 00.14.18c.26.21.48.47.72.69l.35.32c.64.59.55.54.69.65a1.81 1.81 0 01.43.39 1.5 1.5 0 01.17.29 2.14 2.14 0 01.12.5c0 .26 0 .38.07.5a4.48 4.48 0 00.26 1.19s-.07-.38-.07-1a4.27 4.27 0 000-.79 1.5 1.5 0 00-.14-.5 2.2 2.2 0 00-.23-.36 3.07 3.07 0 00-.25-.37 3 3 0 01-.3-.73 3.06 3.06 0 00-.18-.62 1 1 0 01-.17-.35c0-.12 0-.22-.08-.24s-.23-.04-.2-.12z" transform="translate(-202 -292)"/><path class="cls-3" d="M213.6 298a.32.32 0 000-.17 4.67 4.67 0 00-.08-.52 6.67 6.67 0 010-.71v-1.44a2.85 2.85 0 00.08-.53.22.22 0 000-.15c-.09-.11-.31-.1-.45-.06a.7.7 0 00-.33.3 1.36 1.36 0 00-.19.71v.33a1.53 1.53 0 000 .27v.69c0 .18-.06.39-.06.54a.39.39 0 010 .11c0 .11-.05.13 0 .18a.35.35 0 010 .06v.13a.81.81 0 000 .17.3.3 0 00.08.16 3.29 3.29 0 01.18.5.72.72 0 00.07.18c.06.2.06.24.1.36a2.18 2.18 0 00.26.5c.12.21.15.23.17.23s0-.18.08-.45.07-.18.11-.36 0-.2 0-.43a2 2 0 01.09-.36.25.25 0 00.06-.16.12.12 0 01-.17-.08z" transform="translate(-202 -292)"/><path class="cls-3" d="M213.6 299.88a.2.2 0 000 .12v.39a2.07 2.07 0 010 .28.9.9 0 00-.15-.44 1.27 1.27 0 01-.17-.26v-.07a.56.56 0 010-.29c0-.11.05-.15.11-.35a1.67 1.67 0 000-.19v-.35a.72.72 0 01.07-.3s.05-.1.09-.2a.15.15 0 000-.11v-.15c.09-.12.06-.14.15-.28a.88.88 0 01.25-.26.32.32 0 01.2-.07.23.23 0 01.15.11c0 .1 0 .21-.14.52v.28c-.07.23-.07.28-.11.4l-.14.34a.77.77 0 01-.07.16c-.09.16 0 .19-.13.44s-.07.14-.09.2z" transform="translate(-202 -292)"/><path class="cls-4" d="M208.29 301a1.38 1.38 0 00-.76-1.78 1.35 1.35 0 00-1.75.79 1.37 1.37 0 00.76 1.77 1.35 1.35 0 001.75-.78z" transform="translate(-202 -292)"/><path d="M208 301.28a1.39 1.39 0 00-.11-1.94 1.33 1.33 0 00-1.9.12 1.38 1.38 0 00.11 1.94 1.33 1.33 0 001.9-.12z" transform="translate(-202 -292)" fill="#eebe13"/><path d="M207 301.37a1 1 0 100-2 1 1 0 00-1 1 1 1 0 001 1z" transform="translate(-202 -292)" style="isolation:isolate" fill="#fff" opacity=".2"/><path d="M207 299.34a1 1 0 011 1 1 1 0 10-2.06 0 1 1 0 011.06-1z" transform="translate(-202 -292)" style="isolation:isolate" opacity=".3"/><path class="cls-4" d="M207.42 300.65a.3.3 0 00-.18-.29.26.26 0 00.13-.24.27.27 0 00-.24-.28v-.18H207v.16h-.09v-.16h-.16v.16h-.25v.18h.1v.8h-.11v.2h.26v.2h.16v-.2h.09v.2h.17v-.2a.29.29 0 00.25-.35zm-.64-.65h.22c.12 0 .19.05.19.16s-.07.15-.19.16h-.25V300zm.26.79h-.29v-.32h.25c.13 0 .2.05.2.16s-.03.16-.2.16z" transform="translate(-202 -292)"/></svg>
