<svg viewBox="0 0 105 30" fill="none" xmlns="http://www.w3.org/2000/svg">
<path d="M104.417 26.5403C104.417 28.1391 103.08 29.4341 101.427 29.4341H3.57741C1.92487 29.4341 0.583496 28.1391 0.583496 26.5403V3.46368C0.583496 1.8657 1.92487 0.566162 3.57741 0.566162H101.426C103.08 0.566162 104.416 1.8657 104.416 3.46368L104.417 26.5403Z" fill="white"/>
<path d="M101.111 0.600939C102.912 0.600939 104.377 2.01375 104.377 3.75V26.25C104.377 27.9863 102.912 29.3991 101.111 29.3991H3.88889C2.08833 29.3991 0.623194 27.9863 0.623194 26.25V3.75C0.623194 2.01375 2.08833 0.600939 3.88889 0.600939H101.111ZM101.111 1.90735e-06H3.88889C1.75097 1.90735e-06 0 1.68844 0 3.75V26.25C0 28.3116 1.75097 30 3.88889 30H101.111C103.249 30 105 28.3116 105 26.25V3.75C105 1.68844 103.249 1.90735e-06 101.111 1.90735e-06Z" fill="#A6A6A6"/>
<path d="M23.4324 14.8376C23.4098 12.4204 25.4849 11.2444 25.5798 11.1896C24.4046 9.53735 22.583 9.3116 21.9429 9.2936C20.413 9.13835 18.929 10.1764 18.1497 10.1764C17.3548 10.1764 16.1547 9.3086 14.8612 9.3341C13.1968 9.35885 11.6397 10.2881 10.7857 11.7311C9.02325 14.6734 10.3377 18.9971 12.0262 21.3754C12.8709 22.5401 13.8579 23.8406 15.1498 23.7949C16.4137 23.7446 16.8858 23.0179 18.411 23.0179C19.9222 23.0179 20.3656 23.7949 21.6831 23.7656C23.0396 23.7446 23.8936 22.5956 24.7087 21.4204C25.6848 20.0854 26.0768 18.7706 26.0924 18.7031C26.0605 18.6926 23.458 17.7349 23.4324 14.8376Z" fill="black"/>
<path d="M20.9435 7.7291C21.6232 6.90935 22.0884 5.7941 21.9592 4.66235C20.9754 4.70435 19.7449 5.3186 19.0364 6.12035C18.4095 6.82685 17.8495 7.98485 17.9941 9.07385C19.0994 9.15335 20.2341 8.5361 20.9435 7.7291Z" fill="black"/>
<path d="M38.15 7.50677C38.15 8.38952 37.8754 9.05402 37.3271 9.50027C36.8192 9.91202 36.0974 10.1183 35.1625 10.1183C34.699 10.1183 34.3023 10.0988 33.9702 10.0598V5.23652C34.4034 5.16902 34.8701 5.13452 35.3741 5.13452C36.2647 5.13452 36.9359 5.32127 37.3886 5.69477C37.8957 6.11702 38.15 6.72077 38.15 7.50677ZM37.2906 7.52852C37.2906 6.95627 37.1334 6.51752 36.8192 6.21152C36.505 5.90627 36.0461 5.75327 35.4418 5.75327C35.1851 5.75327 34.9665 5.76977 34.7853 5.80427V9.47102C34.8857 9.48602 35.0692 9.49277 35.336 9.49277C35.9598 9.49277 36.4412 9.32552 36.7803 8.99102C37.1194 8.65652 37.2906 8.16902 37.2906 7.52852Z" fill="black"/>
<path d="M42.7072 8.27778C42.7072 8.82153 42.5462 9.26703 42.2242 9.61653C41.8867 9.97578 41.4394 10.155 40.881 10.155C40.3428 10.155 39.9142 9.98328 39.5945 9.63828C39.2757 9.29403 39.1162 8.85978 39.1162 8.33628C39.1162 7.78878 39.2803 7.33953 39.6101 6.99078C39.9399 6.64204 40.3832 6.46729 40.9417 6.46729C41.4799 6.46729 41.9123 6.63903 42.2398 6.98328C42.5509 7.31778 42.7072 7.74978 42.7072 8.27778ZM41.8618 8.30328C41.8618 7.97703 41.7887 7.69728 41.6432 7.46403C41.4721 7.18203 41.2287 7.04103 40.9121 7.04103C40.5847 7.04103 40.3358 7.18203 40.1647 7.46403C40.0184 7.69728 39.9461 7.98153 39.9461 8.31753C39.9461 8.64378 40.0192 8.92353 40.1647 9.15678C40.3412 9.43878 40.587 9.57978 40.9043 9.57978C41.2154 9.57978 41.4597 9.43653 41.6354 9.14928C41.7863 8.91153 41.8618 8.62953 41.8618 8.30328Z" fill="black"/>
<path d="M48.8171 6.53931L47.6699 10.0748H46.9232L46.448 8.53956C46.3274 8.15631 46.2294 7.77531 46.1532 7.39731H46.1384C46.0677 7.78581 45.9697 8.16606 45.8437 8.53956L45.3389 10.0748H44.5837L43.5049 6.53931H44.3425L44.7571 8.22006C44.8574 8.61756 44.9399 8.99631 45.006 9.35481H45.0208C45.0814 9.05931 45.1818 8.68281 45.3233 8.22756L45.8437 6.54006H46.5079L47.0064 8.19156C47.127 8.59431 47.225 8.98206 47.3004 9.35556H47.323C47.3782 8.99181 47.4614 8.60406 47.5719 8.19156L48.0168 6.54006H48.8171V6.53931Z" fill="black"/>
<path d="M53.0429 10.0746H52.2278V8.04959C52.2278 7.42559 51.982 7.11359 51.4889 7.11359C51.247 7.11359 51.0518 7.19909 50.9001 7.37084C50.75 7.54259 50.6738 7.74509 50.6738 7.97684V10.0738H49.8587V7.54934C49.8587 7.23884 49.8485 6.90209 49.8291 6.53759H50.5454L50.5835 7.09034H50.6061C50.701 6.91859 50.8425 6.77684 51.0284 6.66359C51.2493 6.53159 51.4967 6.46484 51.7673 6.46484C52.1095 6.46484 52.3942 6.57134 52.6205 6.78509C52.9021 7.04684 53.0429 7.43759 53.0429 7.95659V10.0746Z" fill="black"/>
<path d="M55.2909 10.0747H54.4766V4.91699H55.2909V10.0747Z" fill="black"/>
<path d="M60.0895 8.27778C60.0895 8.82153 59.9285 9.26703 59.6065 9.61653C59.269 9.97578 58.821 10.155 58.2633 10.155C57.7243 10.155 57.2958 9.98328 56.9769 9.63828C56.658 9.29403 56.4985 8.85978 56.4985 8.33628C56.4985 7.78878 56.6626 7.33953 56.9924 6.99078C57.3222 6.64204 57.7655 6.46729 58.3232 6.46729C58.8622 6.46729 59.2939 6.63903 59.6221 6.98328C59.9332 7.31778 60.0895 7.74978 60.0895 8.27778ZM59.2433 8.30328C59.2433 7.97703 59.1702 7.69728 59.0248 7.46403C58.8544 7.18203 58.6102 7.04103 58.2944 7.04103C57.9662 7.04103 57.7173 7.18203 57.547 7.46403C57.4008 7.69728 57.3284 7.98153 57.3284 8.31753C57.3284 8.64378 57.4015 8.92353 57.547 9.15678C57.7235 9.43878 57.9693 9.57978 58.2866 9.57978C58.5978 9.57978 58.8412 9.43653 59.017 9.14928C59.1686 8.91153 59.2433 8.62953 59.2433 8.30328Z" fill="black"/>
<path d="M64.0344 10.0748H63.3025L63.2419 9.66753H63.2193C62.9689 9.99228 62.6119 10.155 62.1483 10.155C61.8022 10.155 61.5222 10.0478 61.3114 9.83478C61.1201 9.64128 61.0244 9.40053 61.0244 9.11478C61.0244 8.68278 61.2111 8.35353 61.5867 8.12553C61.9616 7.89753 62.489 7.78578 63.168 7.79103V7.72503C63.168 7.25928 62.9144 7.02679 62.4065 7.02679C62.0449 7.02679 61.726 7.11454 61.4506 7.28854L61.285 6.77253C61.6256 6.56928 62.0464 6.46729 62.5426 6.46729C63.5009 6.46729 63.9815 6.95478 63.9815 7.92978V9.23178C63.9815 9.58503 63.9994 9.86628 64.0344 10.0748ZM63.1882 8.85978V8.31453C62.2891 8.29953 61.8395 8.53728 61.8395 9.02703C61.8395 9.21153 61.8909 9.34953 61.9959 9.44178C62.1009 9.53403 62.2346 9.57978 62.3941 9.57978C62.573 9.57978 62.7402 9.52503 62.8926 9.41628C63.0459 9.30678 63.14 9.16803 63.175 8.99778C63.1835 8.95953 63.1882 8.91303 63.1882 8.85978Z" fill="black"/>
<path d="M68.666 10.0747H67.9427L67.9046 9.50699H67.882C67.651 9.93899 67.2575 10.155 66.7045 10.155C66.2627 10.155 65.8948 9.98774 65.6031 9.65324C65.3115 9.31874 65.166 8.88449 65.166 8.35124C65.166 7.77899 65.3239 7.31549 65.6412 6.96149C65.9485 6.63149 66.3249 6.46649 66.7729 6.46649C67.2652 6.46649 67.6098 6.62624 67.8058 6.94649H67.8213V4.91699H68.6372V9.12224C68.6372 9.46649 68.6466 9.78374 68.666 10.0747ZM67.8213 8.58374V7.99424C67.8213 7.89224 67.8136 7.80974 67.7988 7.74674C67.7529 7.55774 67.6541 7.39874 67.504 7.27049C67.3523 7.14224 67.1696 7.07774 66.9588 7.07774C66.6547 7.07774 66.4167 7.19399 66.2417 7.42724C66.0682 7.66049 65.9803 7.95824 65.9803 8.32199C65.9803 8.67149 66.0636 8.95499 66.2308 9.17324C66.4073 9.40574 66.6453 9.52199 66.9432 9.52199C67.2108 9.52199 67.4247 9.42524 67.5872 9.23099C67.7443 9.05174 67.8213 8.83574 67.8213 8.58374Z" fill="black"/>
<path d="M75.6374 8.27778C75.6374 8.82153 75.4764 9.26703 75.1544 9.61653C74.8168 9.97578 74.3704 10.155 73.8112 10.155C73.2737 10.155 72.8452 9.98328 72.5247 9.63828C72.2058 9.29403 72.0464 8.85978 72.0464 8.33628C72.0464 7.78878 72.2105 7.33953 72.5403 6.99078C72.8701 6.64204 73.3134 6.46729 73.8726 6.46729C74.41 6.46729 74.8433 6.63903 75.1699 6.98328C75.4811 7.31778 75.6374 7.74978 75.6374 8.27778ZM74.7927 8.30328C74.7927 7.97703 74.7196 7.69728 74.5742 7.46403C74.4023 7.18203 74.1596 7.04103 73.8423 7.04103C73.5156 7.04103 73.2667 7.18203 73.0948 7.46403C72.9486 7.69728 72.8763 7.98153 72.8763 8.31753C72.8763 8.64378 72.9494 8.92353 73.0948 9.15678C73.2714 9.43878 73.5172 9.57978 73.8345 9.57978C74.1456 9.57978 74.3906 9.43653 74.5664 9.14928C74.7165 8.91153 74.7927 8.62953 74.7927 8.30328Z" fill="black"/>
<path d="M80.0201 10.0746H79.2058V8.04959C79.2058 7.42559 78.96 7.11359 78.4661 7.11359C78.2242 7.11359 78.029 7.19909 77.8781 7.37084C77.7272 7.54259 77.6518 7.74509 77.6518 7.97684V10.0738H76.8359V7.54934C76.8359 7.23884 76.8266 6.90209 76.8071 6.53759H77.5227L77.5608 7.09034H77.5834C77.679 6.91859 77.8206 6.77684 78.0057 6.66359C78.2273 6.53159 78.4739 6.46484 78.7454 6.46484C79.0868 6.46484 79.3715 6.57134 79.5978 6.78509C79.8801 7.04684 80.0201 7.43759 80.0201 7.95659V10.0746Z" fill="black"/>
<path d="M85.5059 7.12794H84.6084V8.84544C84.6084 9.28194 84.7678 9.50019 85.0836 9.50019C85.2298 9.50019 85.3512 9.48819 85.4468 9.46344L85.4678 10.0597C85.3068 10.1182 85.0953 10.1474 84.8347 10.1474C84.5127 10.1474 84.2623 10.0529 84.0811 9.86394C83.8991 9.67494 83.8088 9.35694 83.8088 8.91069V7.12794H83.2729V6.53919H83.8088V5.89119L84.6076 5.65869V6.53844H85.5052V7.12794H85.5059Z" fill="black"/>
<path d="M89.821 10.0747H89.0051V8.06474C89.0051 7.43099 88.7593 7.11374 88.2669 7.11374C87.8889 7.11374 87.6307 7.29749 87.4892 7.66499C87.4651 7.74224 87.4511 7.83674 87.4511 7.94774V10.074H86.6367V4.91699H87.4511V7.04774H87.4666C87.7233 6.65999 88.0912 6.46649 88.568 6.46649C88.9055 6.46649 89.1847 6.57299 89.4064 6.78674C89.6825 7.05299 89.821 7.44899 89.821 7.97249V10.0747Z" fill="black"/>
<path d="M94.2719 8.1397C94.2719 8.2807 94.261 8.3992 94.2415 8.49595H91.797C91.8079 8.84545 91.9245 9.1117 92.1509 9.2962C92.3578 9.4612 92.6245 9.5437 92.9512 9.5437C93.3129 9.5437 93.6427 9.4882 93.9398 9.37645L94.0673 9.92245C93.7197 10.0679 93.3105 10.1407 92.8369 10.1407C92.2691 10.1407 91.8219 9.97945 91.4983 9.65695C91.1732 9.33445 91.0122 8.9017 91.0122 8.3587C91.0122 7.82545 91.1623 7.38145 91.4649 7.02745C91.7807 6.64945 92.2077 6.46045 92.7467 6.46045C93.274 6.46045 93.6745 6.64945 93.9452 7.02745C94.1638 7.32745 94.2719 7.6987 94.2719 8.1397ZM93.4941 7.93645C93.5003 7.7032 93.4466 7.5022 93.3362 7.3327C93.1946 7.11445 92.9792 7.00495 92.6875 7.00495C92.4215 7.00495 92.2045 7.11145 92.0389 7.3252C91.9035 7.49545 91.8234 7.6987 91.797 7.93645H93.4941Z" fill="black"/>
<path d="M41.7237 23.628H39.9573L38.9898 20.6962H35.6267L34.705 23.628H32.9854L36.3173 13.647H38.3753L41.7237 23.628ZM38.6981 19.4662L37.8231 16.86C37.7306 16.5937 37.5571 15.9667 37.3012 14.9797H37.2701C37.1682 15.4042 37.0041 16.0312 36.7786 16.86L35.9191 19.4662H38.6981Z" fill="black"/>
<path d="M50.2924 19.9407C50.2924 21.1647 49.9494 22.1322 49.2634 22.8425C48.649 23.4747 47.886 23.7905 46.9752 23.7905C45.9921 23.7905 45.2859 23.45 44.8558 22.769H44.8246V26.5602H43.1664V18.8C43.1664 18.0305 43.1454 17.2407 43.105 16.4307H44.5633L44.6559 17.5715H44.687C45.24 16.712 46.0792 16.283 47.2054 16.283C48.0859 16.283 48.8209 16.6182 49.4089 17.2895C49.9984 17.9615 50.2924 18.845 50.2924 19.9407ZM48.6031 19.9992C48.6031 19.2987 48.4398 18.7212 48.1115 18.2667C47.753 17.7927 47.2715 17.5557 46.668 17.5557C46.2589 17.5557 45.8871 17.6877 45.555 17.948C45.2221 18.2105 45.0043 18.5532 44.9024 18.9777C44.8511 19.1757 44.8254 19.3377 44.8254 19.4652V20.6652C44.8254 21.1887 44.9919 21.6305 45.3248 21.9912C45.6576 22.352 46.0901 22.532 46.6221 22.532C47.2466 22.532 47.7328 22.2995 48.0804 21.836C48.4289 21.3717 48.6031 20.7597 48.6031 19.9992Z" fill="black"/>
<path d="M58.8771 19.9407C58.8771 21.1647 58.5341 22.1322 57.8473 22.8425C57.2337 23.4747 56.4707 23.7905 55.5599 23.7905C54.5768 23.7905 53.8705 23.45 53.4412 22.769H53.4101V26.5602H51.7519V18.8C51.7519 18.0305 51.7309 17.2407 51.6904 16.4307H53.1488L53.2413 17.5715H53.2724C53.8246 16.712 54.6639 16.283 55.7909 16.283C56.6705 16.283 57.4055 16.6182 57.9951 17.2895C58.5823 17.9615 58.8771 18.845 58.8771 19.9407ZM57.1878 19.9992C57.1878 19.2987 57.0237 18.7212 56.6954 18.2667C56.3369 17.7927 55.857 17.5557 55.2527 17.5557C54.8428 17.5557 54.4718 17.6877 54.1389 17.948C53.806 18.2105 53.589 18.5532 53.4871 18.9777C53.4365 19.1757 53.4101 19.3377 53.4101 19.4652V20.6652C53.4101 21.1887 53.5765 21.6305 53.9079 21.9912C54.2408 22.3512 54.6732 22.532 55.2068 22.532C55.8313 22.532 56.3174 22.2995 56.6651 21.836C57.0135 21.3717 57.1878 20.7597 57.1878 19.9992Z" fill="black"/>
<path d="M68.4746 20.8287C68.4746 21.6777 68.1689 22.3685 67.5552 22.9017C66.8809 23.4845 65.9421 23.7755 64.7358 23.7755C63.622 23.7755 62.7291 23.5685 62.0532 23.1537L62.4374 21.821C63.1654 22.2455 63.9642 22.4585 64.8346 22.4585C65.4591 22.4585 65.9452 22.322 66.2944 22.0505C66.6421 21.779 66.8156 21.4145 66.8156 20.96C66.8156 20.555 66.6724 20.2137 66.3854 19.937C66.1 19.6602 65.6232 19.403 64.9574 19.1652C63.1452 18.5135 62.2399 17.5587 62.2399 16.3032C62.2399 15.4827 62.5572 14.81 63.1927 14.2865C63.8258 13.7622 64.6704 13.5005 65.7267 13.5005C66.6686 13.5005 67.451 13.6587 68.0756 13.9745L67.661 15.278C67.0777 14.972 66.4181 14.819 65.68 14.819C65.0967 14.819 64.6409 14.9577 64.3142 15.2337C64.0381 15.4805 63.8997 15.7812 63.8997 16.1375C63.8997 16.532 64.0576 16.8582 64.3749 17.1147C64.651 17.3517 65.1527 17.6082 65.8807 17.885C66.7712 18.2307 67.4253 18.635 67.8461 19.0985C68.2653 19.5605 68.4746 20.1387 68.4746 20.8287Z" fill="black"/>
<path d="M73.9574 17.6309H72.1297V21.1252C72.1297 22.0139 72.4517 22.4579 73.0972 22.4579C73.3936 22.4579 73.6393 22.4332 73.8338 22.3837L73.8797 23.5979C73.553 23.7157 73.1229 23.7749 72.5901 23.7749C71.9352 23.7749 71.4234 23.5822 71.054 23.1974C70.6861 22.8119 70.501 22.1654 70.501 21.2572V17.6294H69.4121V16.4294H70.501V15.1117L72.1297 14.6377V16.4294H73.9574V17.6309Z" fill="black"/>
<path d="M82.2039 19.9702C82.2039 21.0764 81.8757 21.9847 81.2208 22.6949C80.534 23.4262 79.6224 23.7907 78.4861 23.7907C77.391 23.7907 76.5191 23.4404 75.8689 22.7399C75.2187 22.0394 74.8936 21.1552 74.8936 20.0894C74.8936 18.9742 75.228 18.0607 75.8992 17.3504C76.5689 16.6394 77.4727 16.2839 78.609 16.2839C79.7041 16.2839 80.5853 16.6342 81.2503 17.3354C81.8865 18.0157 82.2039 18.8939 82.2039 19.9702ZM80.4834 20.0219C80.4834 19.3582 80.3364 18.7889 80.0385 18.3142C79.6909 17.7397 79.1939 17.4532 78.5499 17.4532C77.8833 17.4532 77.377 17.7404 77.0293 18.3142C76.7314 18.7897 76.5844 19.3679 76.5844 20.0519C76.5844 20.7157 76.7314 21.2849 77.0293 21.7589C77.3879 22.3334 77.8888 22.6199 78.5351 22.6199C79.1682 22.6199 79.6652 22.3274 80.0238 21.7439C80.3294 21.2602 80.4834 20.6849 80.4834 20.0219Z" fill="black"/>
<path d="M87.5937 17.837C87.4296 17.8077 87.2546 17.7927 87.071 17.7927C86.4877 17.7927 86.0366 18.005 85.7193 18.4302C85.4431 18.8052 85.3047 19.2792 85.3047 19.8515V23.6277H83.6473L83.6628 18.6972C83.6628 17.8677 83.6418 17.1125 83.6006 16.4315H85.0449L85.1056 17.8085H85.1515C85.3265 17.3352 85.6026 16.9542 85.9806 16.6685C86.35 16.4112 86.749 16.283 87.1792 16.283C87.3324 16.283 87.4708 16.2935 87.5937 16.3122V17.837Z" fill="black"/>
<path d="M95.0103 19.6888C95.0103 19.9753 94.9909 20.2168 94.9497 20.414H89.975C89.9944 21.125 90.2348 21.6688 90.6968 22.0438C91.116 22.379 91.6581 22.547 92.3239 22.547C93.0604 22.547 93.7324 22.4338 94.3368 22.2065L94.5965 23.3165C93.8903 23.6135 93.0565 23.7613 92.0944 23.7613C90.9371 23.7613 90.0287 23.4328 89.3676 22.7765C88.708 22.1203 88.3774 21.239 88.3774 20.1335C88.3774 19.0483 88.6847 18.1445 89.2999 17.4238C89.9439 16.6543 90.8142 16.2695 91.9093 16.2695C92.985 16.2695 93.7993 16.6543 94.3523 17.4238C94.7902 18.035 95.0103 18.791 95.0103 19.6888ZM93.4291 19.274C93.44 18.8 93.3319 18.3905 93.1071 18.0448C92.8201 17.6 92.3791 17.378 91.7857 17.378C91.2436 17.378 90.8026 17.5948 90.4658 18.0298C90.1897 18.3755 90.0256 18.7903 89.975 19.2733H93.4291V19.274Z" fill="black"/>
</svg>
