<svg viewBox="0 0 17 19" fill="currentColor" xmlns="http://www.w3.org/2000/svg">
<path d="M1.92894 17.0711C-0.220661 14.9215 -0.220661 11.4425 1.92894 9.29292L9.35356 1.8683C10.9163 0.305593 13.4477 0.305593 15.0104 1.8683C16.5731 3.431 16.5731 5.96245 15.0104 7.52515L9.00001 13.5356C8.0242 14.5114 6.44028 14.5114 5.46448 13.5356C4.48867 12.5598 4.48867 10.9758 5.46448 10L10.7678 4.69673L12.182 6.11094L6.81505 11.4779C6.42614 11.8668 7.13325 12.5739 7.52216 12.185L13.5962 6.11094C14.374 5.33312 14.374 4.06033 13.5962 3.28251C12.8184 2.50469 11.5456 2.50469 10.7678 3.28251L3.34316 10.7071C1.97844 12.0718 1.97844 14.2922 3.34316 15.6569C4.70787 17.0216 6.92819 17.0216 8.2929 15.6569L15.0104 8.93937L16.4246 10.3536L9.70712 17.0711C7.55751 19.2207 4.07855 19.2207 1.92894 17.0711Z" />
</svg>
