<svg height="24" viewBox="0 0 24 24" width="24" xmlns="http://www.w3.org/2000/svg"
    xmlnsXlink="http://www.w3.org/1999/xlink">
    <path fill="currentColor"
        d="m12.75 0c-1.348 0-2.69.516-3.715 1.535l.012-.012-8.25 7.875 1.031 1.079 8.262-7.875h.012a3.72 3.72 0 0 1 5.296 0 3.726 3.726 0 0 1 0 5.296l-10.048 9.434-.006.012a2.246 2.246 0 0 1 -3.188 0 2.25 2.25 0 0 1 0-3.182v-.006l10.055-9.426.006-.006a.736.736 0 0 1 1.066 0 .732.732 0 0 1 0 1.054l-8.73 8.11 1.02 1.101 8.759-8.138.012-.006c.867-.873.873-2.315 0-3.188-.873-.867-2.315-.873-3.188 0l-10.049 9.433-.005.012a3.752 3.752 0 0 0 0 5.296 3.752 3.752 0 0 0 5.296 0l10.055-9.427.006-.006a5.266 5.266 0 0 0 0-7.43 5.23 5.23 0 0 0 -3.709-1.535z" />
</svg>