<svg width="19" height="27" viewBox="0 0 19 27" fill="none" xmlns="http://www.w3.org/2000/svg">
<path d="M2.06102 17.7796C2.32859 17.3351 3.1759 17.4092 3.42861 17.424C3.66645 17.4388 4.51376 17.5573 5.13809 18.1944C5.3908 18.4611 5.33134 18.5204 5.58404 18.7426C5.9854 19.0834 6.22324 18.9648 6.89215 19.2908C7.48675 19.5723 7.8287 19.7501 7.96249 19.8982C8.03681 19.9871 8.27461 19.7649 8.66111 19.6908C9.10708 19.6167 9.52329 19.4093 9.98411 19.1278C10.4301 18.8463 10.549 18.5945 10.6827 18.4019C10.7868 18.2389 10.9504 18.0907 10.9801 17.2166C11.0247 16.0906 10.8909 15.5276 10.8611 15.4091C10.8017 15.0979 10.6084 14.4016 10.772 14.0461C10.7868 14.0016 10.8314 13.9424 10.8463 13.8535C10.876 13.6016 10.6827 13.409 10.7571 13.3201C10.8017 13.2756 10.8611 13.2904 10.8611 13.2608C10.8611 13.2312 10.7125 13.2312 10.5787 13.1423C10.4746 13.0682 10.4598 13.009 10.3558 12.8756C10.2368 12.7275 10.1524 12.5971 10.0483 12.4934C9.52806 11.9452 9.28542 11.557 9.28542 11.557C9.22602 11.4237 9.1814 11.3052 9.06247 11.2311C8.86922 11.1126 8.70573 11.2755 8.28946 11.3052C7.8584 11.3348 7.87326 11.1866 7.42729 11.2311C7.15972 11.2607 6.99623 11.32 6.81783 11.2163C6.72866 11.1718 6.66919 11.0977 6.58 11.0977C6.47595 11.1126 6.43136 11.2163 6.3719 11.2903C6.23811 11.4533 6.05973 11.4978 5.76243 11.5718C5.59891 11.6163 3.80024 12.0311 3.39888 11.3052C3.27996 11.0829 3.26509 10.7421 3.42861 10.5792C3.50293 10.5051 3.59212 10.4903 3.75564 10.4606C3.94889 10.4162 4.12727 10.3125 4.46916 10.0903C5.15296 9.67541 5.20011 9.34816 5.70552 9.11116C5.91364 9.0074 6.31244 8.97908 7.14487 8.97908C8.31923 8.97908 8.28946 9.05319 8.78005 9.00874C9.68678 8.90504 9.85033 8.63832 10.3409 8.74202C10.8017 8.83093 11.0395 9.14204 11.5598 9.73472C11.6787 9.86801 12.7936 11.1126 13.9085 12.0755C14.1612 12.2978 14.8004 12.8312 15.5437 13.6016C15.7815 13.8535 15.9599 14.0609 16.1085 14.372C16.3612 14.8757 16.3315 15.2313 16.3909 15.8832C16.3909 15.9424 16.5247 16.5647 16.7774 17.8388C17.0005 18.9648 17.1193 19.5279 17.1639 19.7501C17.491 21.2316 17.6545 21.9724 17.8626 22.5206C18.145 23.2466 18.3234 23.4836 18.2937 24.0022C18.2491 24.7133 17.8329 25.2318 17.6842 25.4097C16.7923 26.4764 15.3356 26.5949 14.3545 26.6541C14.1166 26.669 12.1098 26.8023 10.7868 25.9726C10.0436 25.5134 9.50844 24.98 9.50844 24.98C9.31519 24.7874 9.22602 24.6837 8.9733 24.4763C8.57194 24.1355 8.43816 24.1059 8.12597 23.8095C7.87326 23.5577 7.88811 23.4984 7.6503 23.291C7.42729 23.0836 7.21918 22.9799 6.99623 22.8465C6.50568 22.5651 6.03 22.2539 5.56918 22.0169C4.85566 21.6465 4.69214 21.6613 4.42457 21.4687C4.26105 21.3502 4.17187 21.2613 3.97862 21.1724C3.8597 21.1131 3.81016 21.1059 3.73584 21.0319C3.61692 20.8985 3.49853 20.5796 3.49853 20.5352C3.48366 20.1944 3.25023 19.9131 2.99752 19.4537C2.5813 18.6982 1.92724 18.5352 1.9867 18.0166C1.9867 17.987 2.00156 17.8833 2.06102 17.7796Z" fill="#22246F"/>
<path d="M10.8761 9.01602C11.0099 8.91232 10.9029 8.59336 10.7692 7.51182C10.7097 7.0525 10.6651 6.72659 10.6354 6.60803C10.4421 5.24501 10.4718 5.14129 10.338 4.53385C10.1746 3.80789 10.1299 3.95604 9.98131 3.27452C9.83194 2.27515 9.98607 1.43589 10.0455 1.25811C10.1347 1.03588 10.2286 0.652136 10.6151 0.548427C10.8827 0.474349 11.1557 0.53363 11.1854 0.548446C11.2597 0.578077 11.4678 0.66697 11.5867 0.889208C11.6908 1.09662 11.6016 1.21515 11.6313 1.60036C11.6462 1.71888 11.6759 1.88186 11.7651 2.22261C11.8246 2.44485 11.8989 2.75598 12.0178 3.12637C12.1219 3.43749 12.1813 3.55602 12.2854 3.86715C12.4638 4.34125 12.5975 4.77091 12.8354 5.61539C12.984 6.13397 13.0584 6.38583 13.0881 6.54878C13.103 6.62289 13.1476 6.81544 13.2516 6.96359C13.2814 7.00804 13.2368 7.00804 13.3408 7.11175C13.4597 7.23031 13.43 7.23031 13.4746 7.28956C13.6233 7.49696 13.534 7.65997 13.6678 7.89703C13.7719 8.10444 13.9651 8.07478 13.9949 8.2378C14.0395 8.47479 13.8611 8.5785 13.9205 8.63781C13.9503 8.6674 13.9949 8.6526 14.0543 8.6674C14.2624 8.72665 14.1881 9.37858 14.2773 9.39338C14.3219 9.39338 14.3665 9.20077 14.4408 8.78596C14.5598 8.17848 14.5151 8.08958 14.5746 7.39326C14.6341 6.74139 14.753 6.34138 14.7232 6.05986C14.7084 5.94134 14.753 5.88208 14.7382 5.808C14.7382 5.6154 14.6787 5.5265 14.7232 5.37835C14.7381 5.28945 14.7976 5.24501 14.8125 5.20056C14.8422 4.94869 14.7827 4.56348 14.7976 4.43014C14.857 3.64492 15.0354 2.72635 15.6449 2.34114C15.6895 2.31151 15.7935 2.17817 16.076 2.16335C16.3138 2.14854 16.7152 2.2078 16.8489 2.45967C16.9233 2.59301 16.8936 2.74116 16.8489 2.93376C16.8489 2.93376 16.7152 3.6301 16.6706 4.53385C16.6557 4.84498 16.6408 4.78572 16.6706 5.45242C16.6855 5.83763 16.73 5.92653 16.7152 7.06735C16.7152 7.70443 16.7152 7.74888 16.7152 7.82293C16.7746 8.29705 16.8489 8.41554 16.8639 8.83041C16.8787 9.27488 16.8044 9.52674 16.8341 9.54153C16.8787 9.55633 16.9827 9.03782 17.399 8.5785C17.5328 8.41554 17.8152 8.10444 18.1422 8.16369C18.2612 8.17848 18.395 8.26739 18.4544 8.38595C18.5436 8.5637 18.4247 8.7711 18.2909 9.09707C18.1868 9.33413 18.1125 9.55633 17.9638 10.0157C17.8004 10.549 17.8004 10.6823 17.6071 11.1712C17.5328 11.3638 17.5328 11.3342 17.4436 11.5565C17.1611 12.2528 17.2206 12.3417 16.9382 13.1121C16.8787 13.2899 16.7746 13.5714 16.7598 13.8973C16.7598 14.0159 16.7598 14.1344 16.7598 14.1344C16.7598 14.3418 16.7746 14.49 16.7895 14.6381C16.8341 15.0974 16.7746 14.6233 16.8639 16.0456C16.9827 17.8383 17.1165 19.2458 17.072 19.2606C17.0273 19.2606 16.8787 17.8976 16.4179 15.9567C16.1355 14.7863 16.0017 14.2085 15.7192 13.7788C15.2733 13.1121 15.0354 13.2158 13.5638 11.7935C12.6273 10.8898 12.7313 10.8601 12.3003 10.5638C11.7057 10.1638 11.1705 10.0009 10.9773 9.45263C10.9475 9.24522 11.0396 9.16417 10.8761 9.01602C10.5788 8.74936 9.93669 8.74151 9.92184 8.80076C9.92184 8.84521 10.6085 9.20863 10.8761 9.01602Z" fill="#22246F"/>
<path d="M9.46457 19.3791C9.64297 19.2162 10.2821 19.1569 10.6835 18.5199C10.7727 18.3717 10.8173 18.2087 10.8916 17.8828C11.0105 17.3346 11.0105 16.7568 10.9511 16.3271C10.9362 16.179 10.9213 16.0308 10.8916 15.8827C10.847 15.6011 10.8767 15.4974 10.8767 15.4085L10.8619 15.2456C10.8619 15.0233 10.7727 14.9048 10.7429 14.6233C10.7281 14.4159 10.7281 14.2085 10.8173 14.0899C10.8767 14.001 10.8916 13.8973 10.8916 13.8973C10.9065 13.7047 10.6686 13.4381 10.8024 13.364C10.9659 13.2751 10.8321 13.3047 10.7727 13.2603C10.6983 13.2158 10.5497 13.127 10.3862 12.9344C9.94024 12.401 9.67267 12.075 9.31593 11.5565C9.25646 11.4676 9.16723 11.4232 9.12268 11.275C9.09292 11.1713 8.94428 11.1861 8.94428 11.1861C8.46861 11.3343 8.36452 11.2158 7.47265 11.2601C7.16046 11.275 6.87804 11.3343 6.80372 11.1713C6.77396 11.0824 6.61046 11.1713 6.61046 11.1713C6.53613 11.2158 6.56587 11.275 6.16451 11.4676C5.64423 11.7195 5.70369 11.675 5.65909 11.675C5.51045 11.7047 5.24288 11.7491 4.91584 11.7639C4.73746 11.7787 3.77123 11.8824 3.41447 11.275C3.32528 11.1268 3.32528 10.9935 3.34014 10.8898C3.34014 10.8157 3.36988 10.7416 3.3996 10.6824C3.42934 10.6379 3.47393 10.5787 3.51852 10.549C3.84555 10.3861 3.97934 10.3712 4.20232 10.2972C4.3361 10.2527 4.46989 10.1194 4.9753 9.71935C5.55504 9.26008 5.51045 9.21563 5.6145 9.15632C5.73342 9.09707 6.01586 9.02302 6.93751 9.00817C7.76992 8.99337 8.06725 9.05262 8.70641 9.00817C9.30102 8.96377 9.44972 8.91932 9.6132 8.86001C9.76184 8.81562 9.95509 8.65261 10.193 8.69706C10.2821 8.71186 10.4159 8.74151 10.624 8.87487C10.9659 9.09707 11.1741 9.37858 11.2186 9.43783C11.3673 9.64524 11.6794 9.92675 12.3038 10.5046C12.7646 10.9342 13.0768 11.1861 13.1511 11.3343C13.166 11.3639 13.1808 11.3787 13.2254 11.4084C13.3146 11.5121 13.3592 11.5565 13.3741 11.5713C13.4633 11.6602 13.5227 11.7195 13.5822 11.7343C13.7308 11.8084 13.8646 11.9713 14.0579 12.1787C14.3701 12.5047 14.6525 12.6825 15.0538 13.0529C15.6336 13.5862 15.9309 13.8381 16.1241 14.2826C16.1984 14.4456 16.2727 14.9048 16.4214 15.8234C16.4958 16.3123 16.5255 16.5049 16.5998 16.9345C16.6741 17.3346 16.7336 17.542 16.8079 17.8531C16.8525 18.0161 16.8823 18.1643 16.912 18.2976C16.9714 18.6088 17.0011 18.7569 17.0904 19.2162C17.1647 19.5717 17.1498 19.5125 17.1944 19.7643C17.3579 20.6088 17.3876 20.8755 17.5363 21.4237C17.5512 21.4682 17.5512 21.4978 17.566 21.5423C17.6404 21.7645 17.7593 22.12 17.9971 22.8164C18.2796 23.6609 18.3241 23.7349 18.3241 23.9275C18.3539 24.6239 17.9228 25.1721 17.7147 25.4239C16.7336 26.6536 14.9497 26.6684 14.0579 26.6833C13.1362 26.6981 12.4524 26.5351 11.9619 26.4018C11.4565 26.2832 10.847 26.0314 10.7429 25.9277L10.3862 25.7795C10.2673 25.6906 10.297 25.6461 10.1186 25.4684C9.85107 25.2017 9.65782 25.1424 9.59835 25.0832L9.41995 24.9498C9.25646 24.8609 9.24155 24.7572 9.06321 24.5646C8.69156 24.1498 8.37938 24.0461 8.30506 23.9572L8.17127 23.8386C8.02264 23.7498 7.96317 23.6016 7.9037 23.5423C7.79968 23.409 7.63613 23.2312 6.98206 22.8312C5.74829 22.1052 5.13882 21.7348 4.82665 21.6756C4.75233 21.6608 4.58881 21.5867 4.48476 21.483C4.45502 21.4534 4.41043 21.4534 4.41043 21.4534C4.3361 21.4682 4.30638 21.3497 4.14286 21.2163C3.94961 21.0681 3.84555 21.1126 3.75637 21.0385L3.63745 20.8014C3.57798 20.6829 3.50366 20.5644 3.34014 20.1496C3.20636 19.794 3.1023 19.5421 2.89419 19.2754C2.79013 19.1421 2.81987 19.2014 2.47797 18.831C2.12121 18.4309 2.03201 18.2976 2.01715 18.105C2.01715 17.942 2.07661 17.8235 2.09148 17.7791C2.24012 17.4828 2.5523 17.4087 2.65635 17.3642C2.84959 17.305 3.01311 17.305 3.17663 17.3346C3.80096 17.4679 4.12799 17.4531 4.76719 17.8531C4.81179 17.8828 4.94557 18.0309 5.07936 18.0902C5.10909 18.105 5.13882 18.105 5.15368 18.1346L5.22801 18.2976C5.3172 18.505 5.42126 18.4902 5.52531 18.6236C5.65909 18.8162 5.94153 18.9051 6.53613 19.0977C6.62532 19.1273 7.57667 19.4384 7.81453 19.6606C7.88885 19.7347 7.93347 19.8236 7.93347 19.8236C7.99293 19.957 7.99293 20.0903 8.00779 20.0903C8.02264 20.0903 7.97802 19.9274 8.03749 19.8236C8.09696 19.7199 8.24559 19.6903 8.31997 19.6903C8.91458 19.5866 8.91458 19.5866 9.28617 19.4532L9.46457 19.3791Z" stroke="white" stroke-width="0.182477" stroke-miterlimit="10"/>
<path d="M14.0143 8.50462C14.0589 8.40092 13.9994 8.29722 13.9399 8.17866C13.8805 8.06016 13.7318 8.00091 13.6872 7.8972C13.6575 7.83795 13.6575 7.76385 13.6575 7.76385C13.6575 7.73419 13.6278 7.63049 13.5832 7.45274C13.5534 7.34904 13.5237 7.28973 13.494 7.23048C13.4197 7.11198 13.3602 7.09712 13.3008 6.99342C13.2562 6.91937 13.2562 6.84526 13.2413 6.80081C13.2413 6.78601 13.1521 6.51936 13.0035 5.98599C12.7359 5.09703 12.6021 4.63774 12.4832 4.29699C12.1859 3.43768 12.0967 3.33397 11.9183 2.68208C11.8142 2.29687 11.7697 2.10427 11.7399 1.88203C11.6358 1.21533 11.7399 1.00792 11.5615 0.770862C11.3683 0.533814 10.9967 0.444919 10.6993 0.533814C10.2831 0.652338 10.1197 1.09681 10.0304 1.30422C9.91155 1.63017 9.9264 1.97093 9.9561 2.65245C9.97096 2.85987 9.97096 3.03765 10.0156 3.25989C10.075 3.65991 10.1642 3.82289 10.2534 4.17846C10.3278 4.44514 10.3723 4.72664 10.4615 5.28963C10.5507 5.83781 10.5953 6.23785 10.625 6.54895C10.6993 7.21568 10.9224 7.88235 10.8926 8.54907C10.8926 8.65277 10.8629 8.91949 11.0115 9.20094C11.1156 9.39355 11.2494 9.49725 11.3089 9.55656C11.844 9.98617 12.2899 10.5195 12.7954 10.9789C13.0481 11.2011 13.2116 11.3641 13.5089 11.6307C14.817 12.8308 14.6386 12.7271 14.9211 12.9493C15.3076 13.2604 15.5305 13.3938 15.7981 13.7493C16.0062 14.0161 16.1103 14.2679 16.1549 14.3568C16.2738 14.6235 16.3035 14.8309 16.3927 15.3791C16.467 15.8976 16.5116 16.1495 16.5413 16.3865C16.6751 17.5718 17.0171 18.8459 17.0765 18.8311C17.1359 18.8163 16.9427 18.0607 16.9427 16.757C16.9427 16.2088 16.9873 15.8087 16.8832 15.1421C16.8238 14.7864 16.7792 14.4753 16.6008 14.1198C16.5562 14.0309 16.4968 13.9124 16.14 13.379C15.7535 12.8012 15.7386 12.8012 15.6197 12.6234C15.2927 12.1048 15.1589 11.6455 15.0102 11.1418C14.7724 10.3566 14.8319 10.2677 14.6237 9.86767C14.4751 9.58616 14.3562 9.46766 14.2818 9.15649C14.2224 8.90463 14.2373 8.71202 14.1183 8.65278C14.0737 8.65278 13.9548 8.65277 14.0143 8.50462Z" stroke="white" stroke-width="0.182477" stroke-miterlimit="10"/>
<path d="M16.8939 9.5273C16.9386 9.4384 16.9534 9.27544 16.9236 9.17174C16.8642 8.81618 16.8642 8.46056 16.775 8.1198C16.7453 8.0013 16.7304 7.55684 16.7155 6.66791C16.7155 6.51975 16.6858 5.21595 16.7155 4.08997C16.7155 3.8381 16.7304 3.77883 16.7304 3.70476C16.7899 3.23066 16.9088 3.03805 16.8939 2.63803C16.8939 2.48988 16.8791 2.40098 16.8196 2.3269C16.6412 2.08985 16.1953 2.11948 15.9128 2.20837C15.5412 2.34172 15.348 2.63803 15.2291 2.81582C14.8723 3.36399 14.8426 3.98626 14.8426 4.26775C14.8426 4.47517 14.8426 4.54925 14.8426 4.68259C14.8426 4.74185 14.8277 4.83075 14.8277 4.93445C14.7831 5.37892 14.7831 5.37892 14.7682 5.48263V5.54189C14.7534 5.60116 14.7831 6.16413 14.6939 6.93456C14.6493 7.30498 14.5601 7.74944 14.575 8.04575C14.575 8.09021 14.5898 8.16425 14.575 8.26796C14.5453 8.49022 14.4709 8.54947 14.4858 8.63837C14.4858 8.68282 14.4709 8.75687 14.4709 8.75687C14.4412 8.78653 14.4412 8.81618 14.3966 9.02359C14.3371 9.27544 14.3223 9.29024 14.3223 9.37915C14.3371 9.5125 14.3966 9.60141 14.4858 9.70511C14.575 9.82361 14.5304 9.80881 14.8574 10.7274C14.9466 10.9941 14.9466 10.9793 14.9912 11.0978C15.125 11.4978 15.125 11.5867 15.1993 11.8237C15.2885 12.1052 15.4372 12.3571 15.7344 12.8608C15.9872 13.2905 16.0466 13.3349 16.0912 13.3201C16.1953 13.2905 16.1358 12.9645 16.2547 12.4016C16.344 12.0163 16.4034 12.0311 16.4777 11.6608C16.5521 11.2607 16.4777 11.2607 16.5669 10.7866C16.6412 10.3866 16.6858 10.194 16.7453 10.0607C16.8048 9.95697 16.8791 9.85327 16.8642 9.73471C16.8642 9.73471 16.8345 9.61621 16.8939 9.5273Z" stroke="white" stroke-width="0.182477" stroke-miterlimit="10"/>
<path d="M16.8842 13.3497C16.8395 13.4534 16.8545 13.5423 16.8545 13.5867C16.8247 14.0016 16.8842 13.9127 16.8693 14.3868C16.8545 14.7275 16.8545 14.9497 16.8247 14.9646C16.7801 14.9646 16.8545 14.446 16.5274 14.0608C16.4531 13.9719 16.3044 13.7942 16.1706 13.5274C16.1558 13.483 16.1409 13.4385 16.1261 13.3941C16.0517 13.1274 16.1112 12.9645 16.1261 12.7867C16.1409 12.5645 16.245 12.4904 16.3639 12.0755C16.3936 11.9718 16.4233 11.8533 16.4531 11.6903C16.5126 11.3792 16.4679 11.3199 16.5126 10.9644C16.5423 10.6532 16.572 10.4902 16.6464 10.3569C16.6761 10.2976 16.7504 10.1643 16.8247 9.94207C16.8842 9.79391 16.8545 9.79391 16.8545 9.7198L16.9436 9.42349C17.122 9.17164 17.0626 9.12718 17.241 8.84573C17.4341 8.53457 17.6423 8.38641 17.7612 8.31236C17.895 8.22346 18.0139 8.14935 18.1625 8.17901C18.2666 8.1938 18.4153 8.26791 18.4747 8.40127C18.5639 8.59382 18.4153 8.81608 18.1775 9.45315C18.1477 9.54206 18.118 9.63096 18.0882 9.7198C18.0437 9.85316 18.0139 9.95686 17.9991 10.031C17.8653 10.505 17.8653 10.6088 17.7761 10.8458L17.4788 11.557C17.4341 11.6607 17.4193 11.7644 17.345 11.8829C17.1666 12.194 17.2707 12.2682 17.0774 12.7719C16.9882 12.9941 16.9288 13.0682 16.8842 13.1867V13.3497Z" stroke="white" stroke-width="0.182477" stroke-miterlimit="10"/>
<path d="M5.98926 15.6684C6.54847 14.2212 5.84829 12.596 4.42442 12.0386C3.00056 11.4813 1.38872 12.1979 0.829513 13.6451C0.270305 15.0923 0.970491 16.7175 2.39436 17.2749C3.82292 17.8322 5.43006 17.111 5.98926 15.6684Z" fill="#E29813"/>
<path d="M5.33596 16.2165C6.35099 15.055 6.2523 13.2799 5.11039 12.2495C3.96848 11.2192 2.21567 11.3316 1.20064 12.4931C0.185606 13.6546 0.28429 15.4297 1.4262 16.4601C2.56812 17.4858 4.32092 17.3781 5.33596 16.2165Z" fill="#EEBE13"/>
<path opacity="0.2" d="M3.26323 16.4046C4.42863 16.3953 5.36848 15.4538 5.36378 14.3017C5.35908 13.1495 4.40983 12.2221 3.24443 12.2315C2.07902 12.2409 1.13918 13.1823 1.14388 14.3344C1.14858 15.4913 2.09782 16.414 3.26323 16.4046Z" fill="white"/>
<path opacity="0.3" d="M3.24656 12.2359C4.39318 12.2265 5.32833 13.1445 5.36592 14.292C5.36592 14.2686 5.37062 14.2545 5.36592 14.2311C5.36122 13.0508 4.41667 12.1047 3.24656 12.1094C2.08586 12.1188 1.14601 13.0836 1.15071 14.2686C1.15071 14.292 1.15541 14.306 1.15071 14.3295C1.17891 13.182 2.09996 12.2499 3.24656 12.2359Z" fill="black"/>
<path d="M4.19682 14.9141C4.19212 14.6143 4.05587 14.4177 3.84444 14.338C3.99479 14.2444 4.09345 14.0618 4.09345 13.8277C4.08876 13.5279 3.92901 13.3219 3.61893 13.2563L3.61422 12.8911H3.28064V13.2283H3.09271V12.8911H2.75913V13.2283L2.45843 13.233L2.24701 13.2377V13.5748L2.45843 13.5701L2.46783 15.209H2.23291V15.5462H2.46783L2.76852 15.5415V15.9396H3.1021V15.5415H3.29004V15.9396H3.62362V15.5321C4.00888 15.4806 4.20152 15.2605 4.19682 14.9141ZM2.89068 13.5841L3.34172 13.5794C3.59073 13.5794 3.73168 13.6825 3.73638 13.8979C3.74108 14.1133 3.59543 14.2117 3.34642 14.2163L2.8343 14.2257L2.8296 13.5888L2.89068 13.5841ZM3.42159 15.2137L2.87659 15.2184L2.839 15.2137V14.5488L3.42159 14.5394C3.6941 14.5348 3.83974 14.6378 3.84444 14.8672C3.83974 15.1154 3.6941 15.2137 3.42159 15.2137Z" fill="#E29813"/>
</svg>
