<svg width="15" height="15" viewBox="0 0 15 15" fill="none" xmlns="http://www.w3.org/2000/svg">
<path d="M2.78027 9.98884C2.91408 9.76657 3.33779 9.8036 3.46417 9.81103C3.5831 9.81843 4.00682 9.87769 4.31903 10.1963C4.4454 10.3296 4.41567 10.3593 4.54204 10.4704C4.74275 10.6408 4.86168 10.5815 5.19618 10.7445C5.49353 10.8853 5.66453 10.9742 5.73143 11.0483C5.76859 11.0928 5.88751 10.9816 6.08079 10.9446C6.30381 10.9075 6.51194 10.8038 6.74239 10.6631C6.9654 10.5223 7.02485 10.3963 7.09175 10.3C7.1438 10.2185 7.22559 10.1444 7.24044 9.70728C7.26275 9.14421 7.19585 8.86268 7.18096 8.80343C7.15123 8.64782 7.05459 8.29961 7.13637 8.1218C7.1438 8.09957 7.16611 8.06995 7.17354 8.02549C7.18839 7.89954 7.09175 7.80322 7.12895 7.75876C7.15123 7.73653 7.18096 7.74393 7.18096 7.72913C7.18096 7.7143 7.10664 7.7143 7.03973 7.66985C6.98768 7.63282 6.98026 7.60319 6.92824 7.5365C6.86876 7.46241 6.82653 7.39721 6.77451 7.34536C6.51433 7.07123 6.39299 6.87711 6.39299 6.87711C6.36329 6.81042 6.34097 6.75116 6.2815 6.7141C6.18486 6.65484 6.1031 6.73633 5.89494 6.75116C5.67938 6.76596 5.68681 6.69187 5.46379 6.7141C5.32999 6.72893 5.24823 6.75856 5.15902 6.7067C5.11443 6.68447 5.08469 6.64741 5.04009 6.64741C4.98806 6.65484 4.96575 6.7067 4.93602 6.74373C4.86912 6.82525 4.77991 6.84748 4.63124 6.88451C4.54947 6.90673 3.65001 7.1142 3.4493 6.75116C3.38983 6.64001 3.38239 6.46961 3.46417 6.38812C3.50133 6.35106 3.54593 6.34366 3.6277 6.32883C3.72434 6.30663 3.81354 6.25474 3.98452 6.14363C4.32646 5.93616 4.35004 5.77251 4.60278 5.654C4.70686 5.60211 4.90629 5.58795 5.32256 5.58795C5.90982 5.58795 5.89494 5.62501 6.14027 5.60278C6.5937 5.55092 6.67549 5.41754 6.92078 5.4694C7.15123 5.51386 7.27018 5.66944 7.53036 5.96582C7.5898 6.03248 8.14733 6.65484 8.70486 7.1364C8.83124 7.24755 9.15086 7.51427 9.52257 7.89954C9.64149 8.02549 9.7307 8.1292 9.80503 8.28478C9.93141 8.5367 9.91655 8.71451 9.94626 9.04049C9.94626 9.07012 10.0132 9.3813 10.1395 10.0185C10.2511 10.5815 10.3105 10.8631 10.3328 10.9742C10.4964 11.7151 10.5781 12.0856 10.6822 12.3597C10.8234 12.7227 10.9127 12.8412 10.8978 13.1006C10.8755 13.4562 10.6673 13.7155 10.593 13.8044C10.147 14.3379 9.4185 14.3971 8.92788 14.4267C8.80892 14.4342 7.80539 14.5008 7.1438 14.0859C6.77213 13.8563 6.50452 13.5896 6.50452 13.5896C6.40788 13.4932 6.36329 13.4414 6.23691 13.3377C6.0362 13.1673 5.9693 13.1524 5.81319 13.0042C5.68681 12.8783 5.69423 12.8487 5.57531 12.745C5.46379 12.6412 5.35972 12.5893 5.24823 12.5227C5.00292 12.3819 4.76504 12.2263 4.5346 12.1078C4.17779 11.9226 4.09602 11.93 3.96222 11.8336C3.88045 11.7744 3.83585 11.7299 3.73921 11.6855C3.67974 11.6558 3.65497 11.6522 3.6178 11.6152C3.55833 11.5485 3.49913 11.389 3.49913 11.3668C3.49169 11.1964 3.37496 11.0557 3.24859 10.826C3.04045 10.4482 2.71337 10.3667 2.74311 10.1074C2.74311 10.0926 2.75054 10.0407 2.78027 9.98884Z" fill="currentColor"/>
<path d="M7.19054 5.60713C7.25744 5.55527 7.20396 5.39577 7.13705 4.85492C7.10732 4.62523 7.08501 4.46225 7.07015 4.40297C6.97351 3.72136 6.98837 3.66949 6.92146 3.36573C6.83971 3.00269 6.8174 3.07678 6.74307 2.73597C6.66837 2.23621 6.74545 1.81652 6.77519 1.72762C6.81978 1.61649 6.86673 1.42459 7.06001 1.37273C7.19381 1.33568 7.33033 1.36533 7.34519 1.37274C7.38235 1.38755 7.48642 1.43201 7.54589 1.54314C7.59794 1.64687 7.55332 1.70614 7.5682 1.89877C7.57563 1.95804 7.59048 2.03954 7.63511 2.20994C7.66484 2.32108 7.70201 2.47666 7.76148 2.66188C7.8135 2.81747 7.84324 2.87674 7.89529 3.03233C7.98447 3.26941 8.05137 3.48427 8.17032 3.90658C8.24465 4.1659 8.28182 4.29185 8.2967 4.37334C8.30413 4.4104 8.32644 4.50668 8.37846 4.58077C8.39334 4.603 8.37103 4.603 8.42305 4.65486C8.48252 4.71415 8.46767 4.71415 8.48995 4.74378C8.56431 4.84749 8.51969 4.92901 8.58659 5.04756C8.63864 5.15128 8.73528 5.13645 8.75013 5.21797C8.77244 5.33648 8.68323 5.38834 8.71297 5.418C8.72785 5.4328 8.75013 5.4254 8.77987 5.4328C8.88393 5.46243 8.84677 5.78844 8.89139 5.79584C8.91367 5.79584 8.93598 5.69952 8.97315 5.49209C9.03262 5.18831 9.01031 5.14385 9.04005 4.79564C9.06979 4.46965 9.12926 4.26962 9.11438 4.12884C9.10695 4.06957 9.12926 4.03994 9.12184 4.00289C9.12184 3.90658 9.0921 3.86212 9.11438 3.78803C9.12181 3.74358 9.15154 3.72136 9.159 3.69913C9.17385 3.57318 9.14412 3.38054 9.15154 3.31387C9.18128 2.9212 9.27049 2.46184 9.57527 2.26921C9.59758 2.25439 9.64959 2.18771 9.79086 2.18031C9.90978 2.1729 10.1105 2.20253 10.1774 2.32848C10.2145 2.39516 10.1997 2.46925 10.1774 2.56557C10.1774 2.56557 10.1105 2.91379 10.0882 3.36573C10.0807 3.52131 10.0733 3.49168 10.0882 3.82508C10.0956 4.01771 10.1179 4.06216 10.1105 4.63266C10.1105 4.95124 10.1105 4.97347 10.1105 5.0105C10.1402 5.24759 10.1774 5.30685 10.1848 5.51432C10.1923 5.73658 10.1551 5.86253 10.17 5.86993C10.1923 5.87733 10.2443 5.61803 10.4525 5.38834C10.5194 5.30685 10.6606 5.15128 10.8241 5.18091C10.8836 5.18831 10.9505 5.23276 10.9802 5.29205C11.0248 5.38094 10.9654 5.48466 10.8985 5.64766C10.8464 5.76621 10.8092 5.87733 10.7349 6.10702C10.6532 6.37375 10.6532 6.4404 10.5565 6.6849C10.5194 6.78121 10.5194 6.76641 10.4747 6.87753C10.3335 7.22577 10.3632 7.2702 10.222 7.65547C10.1923 7.74439 10.1402 7.88514 10.1328 8.04814C10.1328 8.10743 10.1328 8.16669 10.1328 8.16669C10.1328 8.27041 10.1402 8.34449 10.1476 8.41858C10.17 8.64828 10.1402 8.41118 10.1848 9.12243C10.2443 10.0189 10.3112 10.7227 10.2889 10.7302C10.2666 10.7302 10.1923 10.0485 9.96182 9.07797C9.82059 8.49267 9.75369 8.20375 9.61243 7.98888C9.38944 7.65547 9.27049 7.70733 8.53457 6.99608C8.06626 6.54415 8.11827 6.52932 7.90271 6.38114C7.60537 6.18111 7.33776 6.09962 7.24112 5.82547C7.22624 5.72175 7.27229 5.68122 7.19054 5.60713C7.04185 5.47379 6.72076 5.46986 6.71333 5.49949C6.71333 5.52172 7.05674 5.70345 7.19054 5.60713Z" fill="currentColor"/>
<path d="M6.48255 10.7899C6.57176 10.7085 6.89138 10.6788 7.09209 10.3602C7.13671 10.2862 7.15899 10.2046 7.19616 10.0417C7.25563 9.76754 7.25563 9.47859 7.22589 9.26372C7.21847 9.18963 7.21104 9.11555 7.19616 9.04146C7.17388 8.90068 7.18873 8.84882 7.18873 8.80436L7.1813 8.72288C7.1813 8.61173 7.13671 8.55247 7.12183 8.41169C7.1144 8.30798 7.1144 8.20426 7.15899 8.14497C7.18873 8.10051 7.19616 8.04865 7.19616 8.04865C7.20361 7.95234 7.08466 7.81899 7.15157 7.78193C7.23332 7.7375 7.16642 7.7523 7.13671 7.73007C7.09952 7.70784 7.02519 7.66341 6.94343 7.5671C6.72042 7.30037 6.58661 7.13737 6.40822 6.87807C6.37848 6.83361 6.33386 6.81138 6.31158 6.7373C6.29669 6.68544 6.22236 6.69284 6.22236 6.69284C5.98449 6.76693 5.93244 6.70767 5.48644 6.72987C5.33033 6.7373 5.1891 6.76693 5.15193 6.68544C5.13705 6.64098 5.05529 6.68544 5.05529 6.68544C5.01812 6.70767 5.03299 6.7373 4.83228 6.83361C4.5721 6.95956 4.60184 6.93733 4.57953 6.93733C4.5052 6.95216 4.3714 6.97436 4.20785 6.98179C4.11865 6.98919 3.63547 7.04105 3.45706 6.7373C3.41246 6.66321 3.41246 6.59652 3.41989 6.54466C3.41989 6.5076 3.43476 6.47057 3.44963 6.44094C3.4645 6.41871 3.48679 6.38909 3.5091 6.37426C3.67263 6.29277 3.73954 6.28534 3.85104 6.24831C3.91794 6.22608 3.98485 6.15939 4.23759 5.95936C4.5275 5.72969 4.5052 5.70746 4.55724 5.6778C4.61671 5.64817 4.75794 5.61115 5.21883 5.60372C5.6351 5.59632 5.78379 5.62594 6.10341 5.60372C6.40076 5.58152 6.47512 5.55929 6.55687 5.52963C6.6312 5.50743 6.72784 5.42591 6.84679 5.44814C6.89138 5.45554 6.95829 5.47037 7.06235 5.53706C7.23332 5.64817 7.33742 5.78895 7.3597 5.81858C7.43403 5.9223 7.59014 6.06307 7.90237 6.35203C8.13282 6.56689 8.2889 6.69284 8.32607 6.76693C8.33352 6.78176 8.34095 6.78916 8.36323 6.80398C8.40785 6.85584 8.43013 6.87807 8.43759 6.88547C8.48218 6.92993 8.51192 6.95956 8.54166 6.96696C8.61598 7.00402 8.68289 7.08551 8.77953 7.18922C8.93564 7.35223 9.07687 7.44115 9.27758 7.62635C9.5675 7.89308 9.71616 8.01902 9.8128 8.24129C9.84996 8.32281 9.88712 8.55247 9.96148 9.01183C9.99865 9.25632 10.0135 9.35264 10.0507 9.56747C10.0878 9.76754 10.1176 9.87126 10.1547 10.0268C10.177 10.1084 10.1919 10.1824 10.2068 10.2491C10.2365 10.4047 10.2514 10.4788 10.296 10.7085C10.3332 10.8863 10.3257 10.8566 10.348 10.9826C10.4298 11.4049 10.4447 11.5383 10.519 11.8124C10.5264 11.8346 10.5264 11.8494 10.5339 11.8717C10.571 11.9828 10.6305 12.1606 10.7494 12.5088C10.8907 12.9311 10.913 12.9682 10.913 13.0645C10.9278 13.4127 10.7123 13.6868 10.6082 13.8128C10.1176 14.4277 9.22553 14.4351 8.77953 14.4425C8.31864 14.4499 7.9767 14.3685 7.73137 14.3018C7.47865 14.2425 7.17388 14.1165 7.12183 14.0647L6.94343 13.9906C6.88396 13.9461 6.89881 13.9239 6.80963 13.835C6.67583 13.7016 6.57919 13.672 6.54945 13.6424L6.46023 13.5757C6.37848 13.5312 6.37102 13.4794 6.28184 13.3831C6.09599 13.1756 5.93987 13.1238 5.90271 13.0793L5.83581 13.02C5.76148 12.9756 5.73174 12.9015 5.702 12.8718C5.64998 12.8052 5.5682 12.7163 5.24111 12.5162C4.62414 12.1532 4.31936 11.968 4.16325 11.9383C4.12609 11.9309 4.04432 11.8939 3.99228 11.842C3.97741 11.8272 3.95511 11.8272 3.95511 11.8272C3.91794 11.8346 3.90308 11.7753 3.82131 11.7087C3.72467 11.6346 3.67263 11.6568 3.62803 11.6197L3.56856 11.5012C3.53883 11.4419 3.50166 11.3827 3.41989 11.1752C3.35299 10.9974 3.30095 10.8715 3.19688 10.7381C3.14485 10.6714 3.15972 10.7011 2.98874 10.5158C2.81034 10.3158 2.76573 10.2491 2.7583 10.1528C2.7583 10.0713 2.78804 10.012 2.79547 9.9898C2.8698 9.84163 3.02591 9.80457 3.07795 9.78234C3.17458 9.75271 3.25635 9.75271 3.33812 9.76754C3.65034 9.8342 3.81387 9.8268 4.13352 10.0268C4.15582 10.0417 4.22272 10.1158 4.28962 10.1454C4.30449 10.1528 4.31936 10.1528 4.32679 10.1676L4.36396 10.2491C4.40856 10.3528 4.4606 10.3454 4.51263 10.4121C4.57953 10.5084 4.72077 10.5529 5.01812 10.6492C5.06272 10.664 5.53846 10.8196 5.65741 10.9307C5.69457 10.9678 5.71689 11.0122 5.71689 11.0122C5.74662 11.0789 5.74662 11.1456 5.75405 11.1456C5.76148 11.1456 5.73917 11.0641 5.7689 11.0122C5.79864 10.9603 5.87297 10.9455 5.91016 10.9455C6.20751 10.8937 6.20751 10.8937 6.39333 10.827L6.48255 10.7899Z" stroke="white" stroke-width="0.182477" stroke-miterlimit="10"/>
<path d="M8.75688 5.35164C8.77919 5.29978 8.74945 5.24793 8.71971 5.18864C8.68997 5.12938 8.61565 5.09975 8.59334 5.04789C8.57848 5.01826 8.57848 4.9812 8.57848 4.9812C8.57848 4.96637 8.5636 4.91451 8.54132 4.82563C8.52643 4.77377 8.51158 4.74411 8.4967 4.71448C8.45953 4.65522 8.42979 4.64779 8.40009 4.59593C8.37778 4.5589 8.37778 4.52184 8.37035 4.49961C8.37035 4.49221 8.32573 4.35887 8.2514 4.09214C8.11759 3.6476 8.05069 3.41793 7.99122 3.24752C7.84256 2.81781 7.79794 2.76594 7.70876 2.43995C7.65671 2.24732 7.63443 2.15101 7.61954 2.03987C7.56749 1.70647 7.61954 1.60275 7.53033 1.48421C7.43369 1.36566 7.24787 1.32121 7.09918 1.36566C6.89105 1.42493 6.80929 1.6472 6.76467 1.75093C6.70522 1.91392 6.71265 2.08432 6.7275 2.42514C6.73493 2.52886 6.73493 2.61776 6.75724 2.7289C6.78698 2.92894 6.83157 3.01044 6.87619 3.18825C6.91336 3.32161 6.93564 3.46238 6.98026 3.74392C7.02485 4.01804 7.04716 4.21809 7.06202 4.37367C7.09918 4.70708 7.2107 5.04046 7.19582 5.37387C7.19582 5.42573 7.18097 5.55911 7.25529 5.69985C7.30734 5.79617 7.37425 5.84803 7.40398 5.87769C7.67159 6.09252 7.89458 6.35925 8.14733 6.58894C8.27371 6.70006 8.35546 6.78158 8.50415 6.91492C9.15829 7.51503 9.06911 7.46317 9.21034 7.57431C9.40362 7.72989 9.51511 7.79658 9.64891 7.97438C9.75298 8.10776 9.80503 8.23371 9.82734 8.27817C9.88679 8.41151 9.90167 8.51523 9.94626 8.78938C9.98342 9.04868 10.0057 9.17462 10.0206 9.29317C10.0875 9.88587 10.2585 10.523 10.2882 10.5156C10.3179 10.5082 10.2213 10.1304 10.2213 9.47841C10.2213 9.20428 10.2436 9.00422 10.1916 8.67084C10.1619 8.493 10.1395 8.33743 10.0503 8.15962C10.028 8.11516 9.99831 8.0559 9.81988 7.78918C9.6266 7.50023 9.61918 7.50023 9.5597 7.41131C9.39619 7.15202 9.32929 6.92232 9.25493 6.67043C9.13601 6.27776 9.16575 6.2333 9.06165 6.03326C8.98732 5.89249 8.92785 5.83323 8.89068 5.67762C8.86094 5.55168 8.8684 5.45536 8.80893 5.42573C8.78661 5.42573 8.72714 5.42573 8.75688 5.35164Z" stroke="white" stroke-width="0.182477" stroke-miterlimit="10"/>
<path d="M10.1981 5.86343C10.2204 5.81897 10.2279 5.73748 10.213 5.68562C10.1832 5.50782 10.1832 5.32998 10.1387 5.15957C10.1238 5.10032 10.1163 4.87805 10.1089 4.43352C10.1089 4.35943 10.0941 3.70744 10.1089 3.14437C10.1089 3.01841 10.1163 2.98878 10.1163 2.95173C10.1461 2.71465 10.2056 2.61833 10.1981 2.41829C10.1981 2.34421 10.1907 2.29975 10.161 2.26271C10.0718 2.14416 9.84874 2.15898 9.70751 2.20344C9.52169 2.27012 9.42505 2.41829 9.36557 2.5072C9.18714 2.78133 9.17229 3.0925 9.17229 3.23327C9.17229 3.33699 9.17229 3.37404 9.17229 3.44072C9.17229 3.47036 9.16486 3.51481 9.16486 3.56667C9.14255 3.78894 9.14255 3.78894 9.13513 3.8408V3.87044C9.1277 3.90007 9.14255 4.1816 9.09796 4.56687C9.07565 4.7521 9.03106 4.97437 9.03849 5.12254C9.03849 5.14477 9.04591 5.1818 9.03849 5.23366C9.02363 5.34481 8.98644 5.37444 8.9939 5.4189C8.9939 5.44113 8.98644 5.47816 8.98644 5.47816C8.97158 5.49299 8.97158 5.50782 8.94927 5.61153C8.91954 5.73748 8.91211 5.74488 8.91211 5.78934C8.91954 5.85603 8.94927 5.90048 8.9939 5.95234C9.03849 6.0116 9.01618 6.0042 9.17972 6.46356C9.22434 6.59691 9.22434 6.58951 9.24662 6.64877C9.31352 6.8488 9.31352 6.89326 9.35069 7.01181C9.39531 7.15258 9.46964 7.27853 9.61829 7.53042C9.74467 7.74529 9.77441 7.76752 9.79672 7.76012C9.84874 7.74529 9.819 7.58228 9.87848 7.30076C9.9231 7.10812 9.95284 7.11552 9.99 6.93032C10.0272 6.73025 9.99 6.73025 10.0346 6.49319C10.0718 6.29315 10.0941 6.19684 10.1238 6.13015C10.1535 6.07829 10.1907 6.02643 10.1832 5.96714C10.1832 5.96714 10.1684 5.90788 10.1981 5.86343Z" stroke="white" stroke-width="0.182477" stroke-miterlimit="10"/>
<path d="M10.1913 7.77397C10.169 7.82583 10.1765 7.87029 10.1765 7.89249C10.1616 8.09995 10.1913 8.05549 10.1839 8.29259C10.1765 8.46299 10.1765 8.57411 10.1616 8.58154C10.1393 8.58154 10.1765 8.32222 10.0129 8.12958C9.97578 8.08512 9.90142 7.99624 9.83452 7.86286C9.82709 7.84063 9.81967 7.8184 9.81224 7.7962C9.77508 7.66282 9.80481 7.58134 9.81224 7.49242C9.81967 7.3813 9.87172 7.34424 9.93116 7.13681C9.94604 7.08492 9.9609 7.02566 9.97578 6.94417C10.0055 6.78857 9.98321 6.75894 10.0055 6.58113C10.0204 6.42556 10.0352 6.34404 10.0724 6.27735C10.0873 6.24772 10.1244 6.18106 10.1616 6.06992C10.1913 5.99583 10.1765 5.99583 10.1765 5.95877L10.2211 5.81059C10.3103 5.68465 10.2806 5.66242 10.3698 5.52167C10.4664 5.36606 10.5705 5.29198 10.6299 5.25495C10.6968 5.21049 10.7563 5.17343 10.8306 5.18826C10.8827 5.19566 10.957 5.23272 10.9867 5.29941C11.0313 5.39569 10.957 5.50684 10.8381 5.82542C10.8232 5.86988 10.8083 5.91434 10.7935 5.95877C10.7712 6.02546 10.7563 6.07732 10.7489 6.11437C10.682 6.35144 10.682 6.40333 10.6374 6.52184L10.4887 6.87748C10.4664 6.92934 10.459 6.9812 10.4218 7.04049C10.3326 7.19607 10.3846 7.23313 10.288 7.48502C10.2434 7.59614 10.2137 7.6332 10.1913 7.69245V7.77397Z" stroke="white" stroke-width="0.182477" stroke-miterlimit="10"/>
<path d="M4.7449 8.93432C5.02454 8.21061 4.6744 7.3979 3.96236 7.11918C3.25033 6.84046 2.44429 7.19881 2.16465 7.92251C1.885 8.64625 2.23515 9.45897 2.94718 9.73769C3.66157 10.0164 4.46525 9.65571 4.7449 8.93432Z" fill="#E29813"/>
<path d="M4.41833 9.20834C4.92592 8.62751 4.87657 7.73982 4.30553 7.22456C3.73449 6.70929 2.85796 6.7655 2.35037 7.34636C1.84278 7.92719 1.89213 8.81488 2.46317 9.33014C3.03421 9.84307 3.91074 9.7892 4.41833 9.20834Z" fill="#EEBE13"/>
<path opacity="0.2" d="M3.38113 9.30244C3.96391 9.29778 4.4339 8.827 4.43155 8.25084C4.4292 7.67467 3.95451 7.21092 3.37172 7.21561C2.78894 7.2203 2.31895 7.69108 2.3213 8.26722C2.32365 8.84573 2.79834 9.30713 3.38113 9.30244Z" fill="white"/>
<path opacity="0.3" d="M3.37304 7.21719C3.94643 7.2125 4.41407 7.67155 4.43287 8.24538C4.43287 8.23368 4.43522 8.22665 4.43287 8.21492C4.43052 7.62472 3.95817 7.15159 3.37304 7.15394C2.7926 7.15863 2.32261 7.6411 2.32496 8.23368C2.32496 8.24538 2.32731 8.25241 2.32496 8.26413C2.33906 7.69031 2.79965 7.22422 3.37304 7.21719Z" fill="black"/>
<path d="M3.84703 8.55722C3.84468 8.4073 3.77653 8.30895 3.67078 8.26912C3.74598 8.22228 3.79533 8.13093 3.79533 8.01384C3.79298 7.86393 3.71308 7.76088 3.55798 7.72809L3.55563 7.54541H3.38879V7.71405H3.29479V7.54541H3.12794V7.71405L2.97754 7.71639L2.8718 7.71874V7.88735L2.97754 7.885L2.98224 8.70475H2.86475V8.87339H2.98224L3.13264 8.87105V9.07014H3.29949V8.87105H3.39349V9.07014H3.56033V8.86636C3.75303 8.8406 3.84938 8.73051 3.84703 8.55722ZM3.19374 7.89204L3.41934 7.88969C3.54388 7.88969 3.61438 7.94122 3.61673 8.04895C3.61908 8.15669 3.54623 8.2059 3.42169 8.20824L3.16554 8.2129L3.16319 7.89438L3.19374 7.89204ZM3.45929 8.7071L3.18669 8.70944L3.16789 8.7071V8.37451L3.45929 8.36985C3.59558 8.3675 3.66843 8.41903 3.67078 8.5338C3.66843 8.65792 3.59558 8.7071 3.45929 8.7071Z" fill="#E29813"/>
</svg>
