<svg width="16" height="16" viewBox="0 0 16 16" fill="none" xmlns="http://www.w3.org/2000/svg">
    <path
        d="M4.93258 1.56475C5.5309 0.619022 6.57584 0 7.75562 0C9.61798 0 11.1264 1.53896 11.1264 3.43901C11.1264 4.64266 10.5197 5.70876 9.5927 6.31918L4.93258 1.56475ZM14.4972 11.3229C14.4803 10.3772 13.9663 9.50887 13.1404 9.07039C12.6854 8.82966 12.1882 8.60612 11.6489 8.41698L14.4972 11.3229ZM15.5 14.7792L1.69663 0.6964L0.5 1.90865L6.30618 7.83235C4.7809 8.03009 3.44944 8.51155 2.37079 9.07899C1.52809 9.51746 1.01405 10.403 1.01405 11.3659V13.756H12.1124L14.3118 16L15.5 14.7792Z"
        fill="white" />
</svg>