<svg width="14" height="14" viewBox="0 0 14 14" fill="none" xmlns="http://www.w3.org/2000/svg">
<rect width="14" height="14" fill="none" />
<g clip-path="url(#clip0_529_50418)">
<path d="M9.49676 6.2519C9.5375 6.29254 9.56983 6.34081 9.59188 6.39397C9.61394 6.44712 9.62529 6.5041 9.62529 6.56165C9.62529 6.61919 9.61394 6.67617 9.59188 6.72932C9.56983 6.78248 9.5375 6.83076 9.49676 6.8714L6.87176 9.4964C6.83112 9.53714 6.78284 9.56946 6.72969 9.59152C6.67654 9.61357 6.61956 9.62493 6.56201 9.62493C6.50447 9.62493 6.44748 9.61357 6.39433 9.59152C6.34118 9.56946 6.2929 9.53714 6.25226 9.4964L4.93976 8.1839C4.89908 8.14322 4.86682 8.09493 4.8448 8.04178C4.82279 7.98863 4.81146 7.93167 4.81146 7.87415C4.81146 7.81662 4.82279 7.75966 4.8448 7.70651C4.86682 7.65336 4.89908 7.60507 4.93976 7.5644C5.02191 7.48224 5.13333 7.43609 5.24951 7.43609C5.30704 7.43609 5.364 7.44742 5.41715 7.46944C5.47029 7.49145 5.51858 7.52372 5.55926 7.5644L6.56201 8.56802L8.87726 6.2519C8.9179 6.21115 8.96618 6.17883 9.01933 6.15677C9.07248 6.13472 9.12947 6.12336 9.18701 6.12336C9.24456 6.12336 9.30154 6.13472 9.35469 6.15677C9.40784 6.17883 9.45612 6.21115 9.49676 6.2519Z" fill="currentColor"/>
<path d="M3.06201 -0.000854492C3.17804 -0.000854492 3.28932 0.0452391 3.37137 0.127286C3.45342 0.209333 3.49951 0.320613 3.49951 0.436646V0.874146H10.4995V0.436646C10.4995 0.320613 10.5456 0.209333 10.6277 0.127286C10.7097 0.0452391 10.821 -0.000854492 10.937 -0.000854492C11.053 -0.000854492 11.1643 0.0452391 11.2464 0.127286C11.3284 0.209333 11.3745 0.320613 11.3745 0.436646V0.874146H12.2495C12.7136 0.874146 13.1588 1.05852 13.4869 1.38671C13.8151 1.7149 13.9995 2.16002 13.9995 2.62415V12.2491C13.9995 12.7133 13.8151 13.1584 13.4869 13.4866C13.1588 13.8148 12.7136 13.9991 12.2495 13.9991H1.74951C1.28538 13.9991 0.840263 13.8148 0.512075 13.4866C0.183886 13.1584 -0.000488281 12.7133 -0.000488281 12.2491V2.62415C-0.000488281 2.16002 0.183886 1.7149 0.512075 1.38671C0.840263 1.05852 1.28538 0.874146 1.74951 0.874146H2.62451V0.436646C2.62451 0.320613 2.67061 0.209333 2.75265 0.127286C2.8347 0.0452391 2.94598 -0.000854492 3.06201 -0.000854492ZM0.874512 3.49915V12.2491C0.874512 12.4812 0.966699 12.7038 1.13079 12.8679C1.29489 13.032 1.51745 13.1241 1.74951 13.1241H12.2495C12.4816 13.1241 12.7041 13.032 12.8682 12.8679C13.0323 12.7038 13.1245 12.4812 13.1245 12.2491V3.49915H0.874512Z" fill="currentColor"/>
</g>
<defs>
<clipPath id="clip0_529_50418">
<rect width="14" height="14" fill="white"/>
</clipPath>
</defs>
</svg>
