<svg width="12" height="11" viewBox="0 0 12 11" fill="none" xmlns="http://www.w3.org/2000/svg">
<path d="M1.40625 0C0.836706 0 0.375 0.461706 0.375 1.03125V8.9375C0.375 9.3172 0.682804 9.625 1.0625 9.625V1.03125C1.0625 0.841402 1.2164 0.6875 1.40625 0.6875H10C10 0.307804 9.6922 0 9.3125 0H1.40625Z" fill="currentColor"/>
<path d="M1.40625 0C0.836706 0 0.375 0.461706 0.375 1.03125V8.9375C0.375 9.3172 0.682804 9.625 1.0625 9.625V1.03125C1.0625 0.841402 1.2164 0.6875 1.40625 0.6875H10C10 0.307804 9.6922 0 9.3125 0H1.40625Z" fill="currentColor" fill-opacity="0.25"/>
<path d="M2.78125 1.375C2.21171 1.375 1.75 1.83671 1.75 2.40625V9.96875C1.75 10.5383 2.21171 11 2.78125 11H6.96523C7.23873 11 7.50104 10.8914 7.69443 10.698L11.073 7.31943C11.2664 7.12604 11.375 6.86373 11.375 6.59023V2.40625C11.375 1.83671 10.9133 1.375 10.3438 1.375H2.78125ZM2.4375 2.40625C2.4375 2.2164 2.5914 2.0625 2.78125 2.0625H10.3438C10.5336 2.0625 10.6875 2.2164 10.6875 2.40625V6.1875H7.59375C7.02421 6.1875 6.5625 6.64921 6.5625 7.21875V10.3125H2.78125C2.5914 10.3125 2.4375 10.1586 2.4375 9.96875V2.40625ZM7.25 10.1701V7.21875C7.25 7.0289 7.4039 6.875 7.59375 6.875H10.5451L7.25 10.1701Z" fill="currentColor"/>
<path d="M2.78125 1.375C2.21171 1.375 1.75 1.83671 1.75 2.40625V9.96875C1.75 10.5383 2.21171 11 2.78125 11H6.96523C7.23873 11 7.50104 10.8914 7.69443 10.698L11.073 7.31943C11.2664 7.12604 11.375 6.86373 11.375 6.59023V2.40625C11.375 1.83671 10.9133 1.375 10.3438 1.375H2.78125ZM2.4375 2.40625C2.4375 2.2164 2.5914 2.0625 2.78125 2.0625H10.3438C10.5336 2.0625 10.6875 2.2164 10.6875 2.40625V6.1875H7.59375C7.02421 6.1875 6.5625 6.64921 6.5625 7.21875V10.3125H2.78125C2.5914 10.3125 2.4375 10.1586 2.4375 9.96875V2.40625ZM7.25 10.1701V7.21875C7.25 7.0289 7.4039 6.875 7.59375 6.875H10.5451L7.25 10.1701Z" fill="currentColor" fill-opacity="0.25"/>
</svg>
