<svg width="120" height="120" viewBox="0 0 120 120" fill="none" xmlns="http://www.w3.org/2000/svg">
    <g opacity="0.6">
        <path
            d="M41.3826 66.5782C41.9624 65.6116 43.7984 65.7727 44.346 65.805C44.8613 65.8372 46.6973 66.0949 48.0501 67.4803C48.5977 68.0604 48.4688 68.1892 49.0164 68.6726C49.8861 69.4137 50.4014 69.1558 51.8508 69.8647C53.1392 70.477 53.8802 70.8635 54.1701 71.1857C54.3311 71.3791 54.8464 70.8958 55.6839 70.7347C56.6502 70.5735 57.5521 70.1224 58.5506 69.5104C59.5169 68.8981 59.7745 68.3504 60.0644 67.9315C60.2899 67.577 60.6443 67.2548 60.7086 65.3538C60.8053 62.905 60.5154 61.6807 60.4509 61.423C60.3221 60.7463 59.9033 59.232 60.2577 58.4587C60.2899 58.362 60.3866 58.2332 60.4188 58.0398C60.4831 57.4921 60.0644 57.0732 60.2255 56.8799C60.3221 56.7832 60.4509 56.8154 60.4509 56.751C60.4509 56.6865 60.1289 56.6865 59.839 56.4932C59.6134 56.3322 59.5813 56.2033 59.3559 55.9133C59.0982 55.5911 58.9151 55.3076 58.6898 55.082C57.5624 53.8899 57.0366 53.0457 57.0366 53.0457C56.9079 52.7556 56.8112 52.4979 56.5535 52.3368C56.1348 52.0791 55.7805 52.4334 54.8786 52.4979C53.9445 52.5623 53.9767 52.2401 53.0104 52.3368C52.4306 52.4013 52.0764 52.5301 51.6898 52.3046C51.4966 52.2079 51.3677 52.0467 51.1745 52.0467C50.949 52.0791 50.8524 52.3046 50.7235 52.4656C50.4336 52.8201 50.0471 52.9168 49.4029 53.0778C49.0486 53.1745 45.1512 54.0768 44.2815 52.4979C44.0238 52.0146 43.9916 51.2735 44.346 50.9191C44.507 50.7579 44.7003 50.7258 45.0546 50.6613C45.4733 50.5647 45.8598 50.3391 46.6006 49.8558C48.0823 48.9536 48.1845 48.2419 49.2796 47.7265C49.7306 47.5008 50.5947 47.4393 52.3984 47.4393C54.9431 47.4393 54.8786 47.6004 55.9416 47.5037C57.9063 47.2782 58.2607 46.6982 59.3236 46.9237C60.3221 47.1171 60.8375 47.7936 61.9649 49.0826C62.2224 49.3725 64.6382 52.0791 67.054 54.1733C67.6016 54.6567 68.9865 55.8166 70.5972 57.4921C71.1124 58.0398 71.499 58.4909 71.8211 59.1675C72.3687 60.2631 72.3043 61.0363 72.433 62.454C72.433 62.5828 72.7229 63.9361 73.2705 66.7071C73.7537 69.1558 74.0113 70.3803 74.108 70.8635C74.8166 74.0855 75.1709 75.6967 75.6219 76.8888C76.2339 78.4676 76.6204 78.983 76.5559 80.1108C76.4593 81.6574 75.5574 82.7851 75.2354 83.1718C73.3028 85.4917 70.1462 85.7494 68.0203 85.8782C67.5049 85.9106 63.1566 86.2004 60.2899 84.3961C58.6794 83.3973 57.5199 82.2374 57.5199 82.2374C57.1011 81.8185 56.9079 81.593 56.3603 81.1419C55.4907 80.4008 55.2008 80.3363 54.5243 79.6919C53.9767 79.1442 54.0089 79.0153 53.4936 78.5643C53.0104 78.1131 52.5595 77.8876 52.0764 77.5976C51.0134 76.9855 49.9827 76.3088 48.9842 75.7933C47.4381 74.9878 47.0838 75.0199 46.504 74.6011C46.1497 74.3434 45.9565 74.15 45.5377 73.9567C45.28 73.8278 45.1727 73.8122 45.0117 73.6512C44.754 73.3611 44.4975 72.6676 44.4975 72.5709C44.4652 71.8299 43.9594 71.218 43.4119 70.2191C42.51 68.5759 41.0927 68.2214 41.2216 67.0938C41.2216 67.0293 41.2538 66.8038 41.3826 66.5782Z"
            fill="currentColor" fill-opacity="0.1" />
        <path
            d="M60.4886 47.5204C60.7785 47.2949 60.5467 46.6012 60.2569 44.2491C60.128 43.2502 60.0313 42.5414 59.967 42.2836C59.5482 39.3194 59.6126 39.0938 59.3227 37.7728C58.9684 36.194 58.8718 36.5162 58.5497 35.034C58.226 32.8606 58.56 31.0355 58.6889 30.6488C58.8821 30.1655 59.0855 29.331 59.923 29.1054C60.5028 28.9443 61.0943 29.0732 61.1587 29.1055C61.3197 29.1699 61.7707 29.3632 62.0284 29.8465C62.2539 30.2976 62.0605 30.5554 62.125 31.3931C62.1572 31.6509 62.2216 32.0053 62.4149 32.7464C62.5438 33.2297 62.7048 33.9063 62.9625 34.7118C63.1879 35.3884 63.3168 35.6462 63.5423 36.3228C63.9287 37.3539 64.2186 38.2883 64.734 40.1249C65.0561 41.2526 65.2171 41.8004 65.2816 42.1547C65.3138 42.3159 65.4105 42.7347 65.6359 43.0569C65.7004 43.1535 65.6037 43.1535 65.8291 43.3791C66.0868 43.6369 66.0224 43.6369 66.119 43.7658C66.4412 44.2168 66.2478 44.5713 66.5377 45.0869C66.7632 45.5379 67.182 45.4734 67.2464 45.8279C67.343 46.3434 66.9565 46.5689 67.0853 46.6979C67.1498 46.7622 67.2464 46.7301 67.3752 46.7622C67.8261 46.8911 67.6651 48.3089 67.8584 48.3411C67.955 48.3411 68.0517 47.9222 68.2127 47.0201C68.4704 45.699 68.3737 45.5056 68.5026 43.9913C68.6314 42.5736 68.8891 41.7037 68.8246 41.0915C68.7925 40.8337 68.8891 40.7048 68.857 40.5437C68.857 40.1249 68.7281 39.9315 68.8246 39.6093C68.8568 39.416 68.9857 39.3194 69.018 39.2227C69.0824 38.6749 68.9535 37.8372 68.9857 37.5472C69.1145 35.8395 69.5011 33.8419 70.8217 33.0041C70.9184 32.9397 71.1437 32.6497 71.7558 32.6175C72.2711 32.5853 73.1408 32.7142 73.4307 33.2619C73.5917 33.5519 73.5273 33.8741 73.4307 34.293C73.4307 34.293 73.1408 35.8073 73.0442 37.7728C73.0119 38.4494 72.9798 38.3205 73.0442 39.7704C73.0764 40.6082 73.173 40.8015 73.1408 43.2825C73.1408 44.668 73.1408 44.7647 73.1408 44.9257C73.2696 45.9568 73.4307 46.2145 73.463 47.1168C73.4952 48.0834 73.3341 48.6311 73.3985 48.6633C73.4952 48.6954 73.7206 47.5678 74.6225 46.5689C74.9124 46.2145 75.5244 45.5379 76.233 45.6668C76.4907 45.699 76.7806 45.8923 76.9093 46.1501C77.1027 46.5367 76.845 46.9878 76.5551 47.6967C76.3296 48.2122 76.1685 48.6954 75.8465 49.6944C75.4922 50.8543 75.4922 51.1442 75.0735 52.2075C74.9124 52.6263 74.9124 52.562 74.7191 53.0452C74.1071 54.5597 74.236 54.7529 73.624 56.4284C73.4952 56.8151 73.2696 57.4272 73.2375 58.1361C73.2375 58.3939 73.2375 58.6516 73.2375 58.6516C73.2375 59.1027 73.2696 59.4249 73.3018 59.7471C73.3985 60.746 73.2696 59.7149 73.463 62.8081C73.7206 66.7068 74.0105 69.7676 73.9139 69.7999C73.8172 69.7999 73.4952 66.8356 72.4966 62.6147C71.8847 60.0693 71.5948 58.8128 70.9827 57.8784C70.0165 56.4284 69.5011 56.6539 66.3123 53.5608C64.2831 51.5954 64.5085 51.5309 63.5745 50.8865C62.2861 50.0166 61.1265 49.6622 60.7078 48.4699C60.6433 48.0189 60.8429 47.8426 60.4886 47.5204C59.8443 46.9405 58.453 46.9234 58.4209 47.0523C58.4209 47.1489 59.9088 47.9393 60.4886 47.5204Z"
            fill="currentColor" fill-opacity="0.1" />
        <path
            d="M57.422 70.0578C57.8086 69.7034 59.1935 69.5745 60.0632 68.189C60.2565 67.8668 60.3531 67.5123 60.5141 66.8036C60.7718 65.6114 60.7718 64.3548 60.643 63.4204C60.6108 63.0982 60.5786 62.776 60.5141 62.4538C60.4176 61.8416 60.4819 61.616 60.4819 61.4227L60.4498 61.0683C60.4498 60.5849 60.2565 60.3272 60.1921 59.715C60.1599 59.264 60.1599 58.8129 60.3531 58.5551C60.4819 58.3617 60.5141 58.1362 60.5141 58.1362C60.5464 57.7173 60.031 57.1374 60.3209 56.9762C60.6752 56.783 60.3853 56.8474 60.2565 56.7507C60.0954 56.654 59.7733 56.4608 59.4191 56.042C58.4527 54.882 57.8729 54.1731 57.1 53.0455C56.9711 52.8521 56.7778 52.7554 56.6812 52.4332C56.6167 52.2077 56.2947 52.2399 56.2947 52.2399C55.264 52.5621 55.0384 52.3044 53.1059 52.4009C52.4294 52.4332 51.8175 52.5621 51.6564 52.2077C51.592 52.0144 51.2377 52.2077 51.2377 52.2077C51.0766 52.3044 51.1411 52.4332 50.2714 52.8521C49.144 53.3998 49.2729 53.3032 49.1762 53.3032C48.8541 53.3677 48.2744 53.4642 47.5657 53.4965C47.1792 53.5287 45.0856 53.7542 44.3125 52.4332C44.1193 52.111 44.1193 51.821 44.1515 51.5955C44.1515 51.4343 44.2159 51.2733 44.2803 51.1444C44.3447 51.0478 44.4414 50.9189 44.538 50.8544C45.2466 50.5 45.5365 50.4677 46.0197 50.3067C46.3095 50.21 46.5994 49.92 47.6946 49.0501C48.9508 48.0513 48.8541 47.9546 49.0796 47.8256C49.3373 47.6968 49.9493 47.5357 51.9463 47.5034C53.75 47.4712 54.3943 47.6001 55.7792 47.5034C57.0676 47.4069 57.3898 47.3102 57.7441 47.1812C58.0662 47.0847 58.4849 46.7302 59.0003 46.8268C59.1935 46.859 59.4834 46.9235 59.9343 47.2135C60.6752 47.6968 61.1262 48.309 61.2228 48.4378C61.5448 48.8889 62.2213 49.5011 63.5742 50.7577C64.5727 51.6922 65.249 52.2399 65.41 52.5621C65.4424 52.6266 65.4745 52.6588 65.5711 52.7233C65.7644 52.9488 65.861 53.0455 65.8933 53.0776C66.0865 53.271 66.2153 53.3998 66.3442 53.432C66.6663 53.5932 66.9562 53.9476 67.3749 54.3986C68.0513 55.1075 68.6633 55.4942 69.533 56.2997C70.7892 57.4596 71.4333 58.0073 71.8521 58.9739C72.0131 59.3285 72.1741 60.3272 72.4963 62.3249C72.6574 63.3882 72.7217 63.8071 72.8828 64.7414C73.0438 65.6114 73.1727 66.0625 73.3337 66.7391C73.4304 67.0936 73.4949 67.4158 73.5592 67.7057C73.6881 68.3824 73.7524 68.7046 73.9458 69.7034C74.1068 70.4766 74.0746 70.3478 74.1712 70.8955C74.5256 72.732 74.5899 73.3121 74.912 74.5042C74.9443 74.6009 74.9443 74.6654 74.9765 74.7621C75.1375 75.2453 75.3952 76.0185 75.9105 77.533C76.5226 79.3695 76.6191 79.5306 76.6191 79.9494C76.6836 81.4638 75.7495 82.656 75.2986 83.2038C73.1727 85.8781 69.3074 85.9102 67.3749 85.9425C65.3779 85.9747 63.8962 85.6203 62.8332 85.3303C61.7382 85.0725 60.4176 84.5248 60.1921 84.2992L59.4191 83.977C59.1614 83.7837 59.2257 83.687 58.8393 83.3004C58.2595 82.7204 57.8408 82.5915 57.7119 82.4627L57.3254 82.1727C56.9711 81.9793 56.9388 81.7538 56.5524 81.3349C55.7471 80.4328 55.0706 80.2073 54.9096 80.0139L54.6197 79.7561C54.2976 79.5629 54.1688 79.2407 54.0399 79.1117C53.8145 78.8218 53.4601 78.4351 52.0429 77.5652C49.3695 75.9864 48.0489 75.1808 47.3725 75.0519C47.2114 75.0198 46.8571 74.8586 46.6317 74.6331C46.5672 74.5687 46.4706 74.5687 46.4706 74.5687C46.3095 74.6009 46.2451 74.3432 45.8908 74.0532C45.4721 73.731 45.2466 73.8276 45.0534 73.6665L44.7957 73.1509C44.6668 72.8932 44.5058 72.6355 44.1515 71.7333C43.8616 70.96 43.6361 70.4123 43.1852 69.8322C42.9597 69.5423 43.0241 69.6712 42.2833 68.8656C41.5103 67.9957 41.317 67.7057 41.2848 67.2868C41.2848 66.9324 41.4136 66.6747 41.4458 66.578C41.7679 65.9336 42.4444 65.7725 42.6698 65.6758C43.0885 65.5469 43.4429 65.5469 43.7972 65.6114C45.15 65.9013 45.8586 65.8691 47.2436 66.7391C47.3403 66.8036 47.6302 67.1258 47.9201 67.2546C47.9845 67.2868 48.0489 67.2868 48.0811 67.3513L48.2421 67.7057C48.4354 68.1567 48.6609 68.1246 48.8863 68.4146C49.1762 68.8334 49.7882 69.0268 51.0766 69.4457C51.2699 69.51 53.3313 70.1867 53.8467 70.67C54.0077 70.8311 54.1044 71.0244 54.1044 71.0244C54.2333 71.3144 54.2333 71.6044 54.2654 71.6044C54.2976 71.6044 54.2009 71.25 54.3298 71.0244C54.4587 70.7988 54.7807 70.7345 54.9419 70.7345C56.2303 70.5089 56.2303 70.5089 57.0355 70.2189L57.422 70.0578Z"
            fill="currentColor" fill-opacity="0.1" stroke="#161F27" stroke-width="0.182477" stroke-miterlimit="10" />
        <path
            d="M67.2801 46.4081C67.3767 46.1826 67.2479 45.9571 67.119 45.6992C66.9902 45.4415 66.6681 45.3127 66.5714 45.0871C66.5071 44.9583 66.5071 44.7971 66.5071 44.7971C66.5071 44.7326 66.4426 44.5071 66.346 44.1205C66.2815 43.895 66.2172 43.766 66.1527 43.6372C65.9917 43.3795 65.8628 43.3471 65.7341 43.1216C65.6374 42.9606 65.6374 42.7994 65.6052 42.7027C65.6052 42.6706 65.4119 42.0907 65.0898 40.9307C64.51 38.9974 64.2201 37.9986 63.9624 37.2575C63.3183 35.3887 63.125 35.1632 62.7385 33.7455C62.513 32.9078 62.4165 32.4889 62.352 32.0056C62.1264 30.5557 62.352 30.1046 61.9654 29.5891C61.5467 29.0735 60.7415 28.8802 60.0972 29.0735C59.1954 29.3313 58.8411 30.2979 58.6478 30.749C58.3902 31.4579 58.4224 32.1989 58.4867 33.6811C58.5189 34.1321 58.5189 34.5188 58.6156 35.0021C58.7445 35.872 58.9377 36.2265 59.131 36.9998C59.292 37.5797 59.3886 38.1919 59.5819 39.4163C59.7752 40.6084 59.8718 41.4784 59.9362 42.155C60.0972 43.605 60.5805 45.0548 60.516 46.5048C60.516 46.7303 60.4516 47.3104 60.7737 47.9225C60.9992 48.3413 61.2891 48.5669 61.4179 48.6958C62.5775 49.6301 63.5437 50.7901 64.6389 51.789C65.1865 52.2722 65.5407 52.6267 66.185 53.2067C69.0194 55.8164 68.633 55.5909 69.2449 56.0743C70.0824 56.7509 70.5655 57.0409 71.1453 57.8141C71.5962 58.3942 71.8217 58.9419 71.9184 59.1353C72.176 59.7152 72.2405 60.1662 72.4337 61.3585C72.5947 62.4861 72.6914 63.0338 72.7558 63.5494C73.0456 66.127 73.7866 68.898 73.9153 68.8658C74.0442 68.8336 73.6254 67.1903 73.6254 64.355C73.6254 63.1628 73.7221 62.2928 73.4966 60.8429C73.3678 60.0695 73.2712 59.393 72.8846 58.6197C72.7881 58.4264 72.6592 58.1687 71.8861 57.0087C71.0486 55.7521 71.0164 55.7521 70.7587 55.3654C70.0502 54.2378 69.7603 53.2388 69.4381 52.1434C68.9229 50.4357 69.0517 50.2424 68.6007 49.3724C68.2786 48.7602 68.0209 48.5025 67.8598 47.8258C67.731 47.278 67.7633 46.8592 67.5056 46.7303C67.4089 46.7303 67.1512 46.7303 67.2801 46.4081Z"
            fill="currentColor" fill-opacity="0.1" stroke="#161F27" stroke-width="0.182477" stroke-miterlimit="10" />
        <path
            d="M73.5284 48.6312C73.6251 48.4378 73.6573 48.0835 73.5928 47.8579C73.4639 47.0847 73.4639 46.3113 73.2707 45.5702C73.2064 45.3125 73.174 44.3459 73.1419 42.4127C73.1419 42.0905 73.0775 39.2551 73.1419 36.8063C73.1419 36.2585 73.174 36.1297 73.174 35.9686C73.3029 34.9375 73.5606 34.5186 73.5284 33.6487C73.5284 33.3265 73.4962 33.1332 73.3674 32.9721C72.9808 32.4565 72.0145 32.521 71.4025 32.7143C70.5974 33.0043 70.1786 33.6487 69.9209 34.0353C69.1478 35.2275 69.0834 36.5808 69.0834 37.1929C69.0834 37.644 69.0834 37.8051 69.0834 38.0951C69.0834 38.224 69.0512 38.4173 69.0512 38.6429C68.9546 39.6095 68.9546 39.6095 68.9224 39.835V39.9639C68.8902 40.0928 68.9546 41.3171 68.7614 42.9926C68.6647 43.7982 68.4715 44.7648 68.5037 45.4092C68.5037 45.5059 68.5358 45.6669 68.5037 45.8924C68.4393 46.3758 68.2781 46.5046 68.3104 46.698C68.3104 46.7947 68.2781 46.9557 68.2781 46.9557C68.2138 47.0202 68.2138 47.0847 68.1171 47.5357C67.9882 48.0835 67.9561 48.1156 67.9561 48.309C67.9882 48.599 68.1171 48.7924 68.3104 49.0179C68.5036 49.2756 68.407 49.2434 69.1156 51.2411C69.309 51.821 69.309 51.7888 69.4055 52.0466C69.6954 52.9165 69.6954 53.1098 69.8564 53.6254C70.0498 54.2376 70.3718 54.7853 71.016 55.8808C71.5636 56.8152 71.6924 56.9119 71.7891 56.8797C72.0145 56.8152 71.8856 56.1063 72.1433 54.882C72.3367 54.0443 72.4655 54.0764 72.6266 53.271C72.7876 52.4009 72.6266 52.4009 72.8198 51.37C72.9808 50.5 73.0775 50.0812 73.2064 49.7911C73.3352 49.5656 73.4962 49.3401 73.4639 49.0823C73.4639 49.0823 73.3996 48.8245 73.5284 48.6312Z"
            fill="currentColor" fill-opacity="0.1" stroke="#161F27" stroke-width="0.182477" stroke-miterlimit="10" />
        <path
            d="M73.4968 56.944C73.4002 57.1695 73.4325 57.3629 73.4325 57.4594C73.368 58.3617 73.4968 58.1683 73.4646 59.1994C73.4325 59.9405 73.4325 60.4237 73.368 60.456C73.2714 60.456 73.4325 59.3283 72.7238 58.4905C72.5628 58.2972 72.2406 57.9106 71.9507 57.3306C71.9185 57.2339 71.8864 57.1372 71.8542 57.0407C71.6931 56.4606 71.822 56.1063 71.8542 55.7196C71.8864 55.2363 72.1119 55.0752 72.3695 54.173C72.434 53.9474 72.4983 53.6897 72.5628 53.3353C72.6917 52.6586 72.595 52.5297 72.6917 51.7565C72.756 51.0799 72.8204 50.7254 72.9815 50.4354C73.0459 50.3065 73.2069 50.0166 73.368 49.5332C73.4968 49.211 73.4325 49.211 73.4325 49.0499L73.6257 48.4055C74.0122 47.8578 73.8834 47.7611 74.27 47.149C74.6886 46.4723 75.1396 46.1501 75.3972 45.989C75.6871 45.7957 75.9448 45.6345 76.2669 45.699C76.4924 45.7312 76.8145 45.8924 76.9433 46.1824C77.1365 46.6011 76.8145 47.0845 76.2992 48.47C76.2347 48.6633 76.1703 48.8567 76.1058 49.0499C76.0093 49.3399 75.9448 49.5654 75.9126 49.7266C75.6227 50.7576 75.6227 50.9832 75.4295 51.4986L74.7852 53.0453C74.6886 53.2708 74.6564 53.4963 74.4953 53.7542C74.1088 54.4308 74.3343 54.5919 73.9156 55.6874C73.7224 56.1706 73.5935 56.3318 73.4968 56.5895V56.944Z"
            fill="currentColor" fill-opacity="0.1" stroke="#161F27" stroke-width="0.182477" stroke-miterlimit="10" />
        <path
            d="M49.8963 61.9883C51.108 58.8409 49.5908 55.3065 46.5056 54.0944C43.4203 52.8823 39.9278 54.4407 38.7161 57.588C37.5043 60.7355 39.0215 64.2699 42.1068 65.482C45.2022 66.6941 48.6846 65.1255 49.8963 61.9883Z"
            fill="currentColor" fill-opacity="0.1" />
        <path
            d="M48.4787 63.1801C50.6781 60.6541 50.4642 56.7937 47.9899 54.5528C45.5156 52.312 41.7176 52.5565 39.5182 55.0825C37.3188 57.6085 37.5326 61.469 40.0069 63.7098C42.4812 65.9404 46.2793 65.7062 48.4787 63.1801Z"
            fill="currentColor" fill-opacity="0.1" />
        <path opacity="0.2"
            d="M43.9893 63.5878C46.5145 63.5675 48.551 61.5201 48.5408 59.0144C48.5306 56.5087 46.4738 54.492 43.9485 54.5124C41.4233 54.5328 39.3868 56.5801 39.397 59.0857C39.4072 61.6016 41.464 63.6081 43.9893 63.5878Z"
            fill="currentColor" fill-opacity="0.1" />
        <path opacity="0.3"
            d="M43.9486 54.5224C46.4331 54.502 48.4594 56.4984 48.5409 58.9939C48.5409 58.943 48.5511 58.9124 48.5409 58.8615C48.5307 56.2947 46.484 54.2372 43.9486 54.2474C41.4336 54.2677 39.3971 56.366 39.4073 58.943C39.4073 58.9939 39.4174 59.0245 39.4073 59.0755C39.4684 56.58 41.4641 54.553 43.9486 54.5224Z"
            fill="currentColor" fill-opacity="0.1" />
        <path
            d="M46.0054 60.3487C45.9952 59.6968 45.6999 59.269 45.2417 59.0958C45.5676 58.8921 45.7814 58.4948 45.7814 57.9856C45.7712 57.3337 45.425 56.8856 44.753 56.7429L44.7428 55.9485H44.0198V56.6819H43.6125V55.9485H42.8896V56.6819L42.2379 56.6921L41.7797 56.7023V57.4355L42.2379 57.4253L42.2583 60.9903H41.7491V61.7237H42.2583L42.9099 61.7135V62.5794H43.6329V61.7135H44.0402V62.5794H44.7631V61.6931C45.5981 61.5811 46.0156 61.1024 46.0054 60.3487ZM43.1747 57.4559L44.1522 57.4457C44.6919 57.4457 44.9973 57.6698 45.0075 58.1383C45.0177 58.6069 44.702 58.8209 44.1624 58.8311L43.0525 58.8513L43.0423 57.4661L43.1747 57.4559ZM44.3253 61.0005L43.1441 61.0107L43.0627 61.0005V59.5541L44.3253 59.5339C44.9159 59.5237 45.2315 59.7478 45.2417 60.2469C45.2315 60.7867 44.9159 61.0005 44.3253 61.0005Z"
            fill="currentColor" fill-opacity="0.1" />
    </g>
</svg>