<svg width="80" height="80" viewBox="0 0 80 80" fill="none" xmlns="http://www.w3.org/2000/svg">
<circle cx="40" cy="35" r="35" fill="#3BAA1F"/>
<path d="M30.2625 31.7272C28.991 30.2943 26.7986 30.1635 25.3657 31.435C23.9327 32.7065 23.8019 34.8989 25.0734 36.3319L30.2625 31.7272ZM58.2674 27.2145C59.3599 25.6408 58.9698 23.4795 57.3961 22.3869C55.8225 21.2944 53.6611 21.6845 52.5686 23.2581L58.2674 27.2145ZM40.2035 47.4441L37.3342 45.4949L40.2035 47.4441ZM25.0734 36.3319L37.0062 49.7791L42.1952 45.1745L30.2625 31.7272L25.0734 36.3319ZM43.0728 49.3934C44.644 47.0806 52.6208 35.3479 58.2674 27.2145L52.5686 23.2581C46.8991 31.4245 38.9034 43.1851 37.3342 45.4949L43.0728 49.3934ZM37.0062 49.7791C38.6039 51.5796 41.6021 51.5582 43.0728 49.3934L37.3342 45.4949C38.5224 43.7459 40.9312 43.75 42.1952 45.1745L37.0062 49.7791Z" fill="white"/>
</svg>
