<svg width="10" height="10" viewBox="0 0 10 10" fill="none" xmlns="http://www.w3.org/2000/svg">
  <path d="M7.5908 0.0918046C7.61982 0.0627038 7.65431 0.0396156 7.69227 0.0238622C7.73024 0.0081089 7.77093 0 7.81204 0C7.85314 0 7.89384 0.0081089 7.9318 0.0238622C7.96977 0.0396156 8.00425 0.0627038 8.03328 0.0918046L9.9082 1.96672C9.9373 1.99575 9.96039 2.03023 9.97614 2.0682C9.99189 2.10616 10 2.14686 10 2.18796C10 2.22907 9.99189 2.26976 9.97614 2.30773C9.96039 2.34569 9.9373 2.38018 9.9082 2.4092L3.65847 8.65893C3.62848 8.68871 3.59276 8.7121 3.55347 8.72768L0.42861 9.97762C0.371823 10.0004 0.309613 10.0059 0.249693 9.99363C0.189773 9.98133 0.134777 9.95173 0.0915252 9.90847C0.0482731 9.86522 0.0186659 9.81023 0.00637432 9.75031C-0.0059173 9.69039 -0.000352855 9.62818 0.0223778 9.57139L1.27232 6.44653C1.2879 6.40724 1.31129 6.37152 1.34107 6.34153L7.5908 0.0918046ZM7.00395 1.56299L8.43701 2.99605L9.2451 2.18796L7.81204 0.754901L7.00395 1.56299ZM7.99515 3.43791L6.56209 2.00485L2.49977 6.06717V6.25029H2.81226C2.89513 6.25029 2.97461 6.28321 3.03322 6.34181C3.09182 6.40041 3.12474 6.4799 3.12474 6.56277V6.87526H3.43723C3.52011 6.87526 3.59959 6.90818 3.65819 6.96678C3.71679 7.02539 3.74971 7.10487 3.74971 7.18774V7.50023H3.93283L7.99515 3.43791ZM1.8948 6.67214L1.82855 6.73839L0.873591 9.12641L3.26161 8.17145L3.32786 8.1052C3.26825 8.08293 3.21686 8.04299 3.18056 7.99072C3.14426 7.93846 3.12479 7.87635 3.12474 7.81272V7.50023H2.81226C2.72938 7.50023 2.6499 7.46731 2.59129 7.40871C2.53269 7.3501 2.49977 7.27062 2.49977 7.18774V6.87526H2.18728C2.12365 6.87521 2.06154 6.85574 2.00928 6.81944C1.95701 6.78314 1.91707 6.73175 1.8948 6.67214Z" fill="currentColor"/>
</svg>
