<svg width="16" height="16" viewBox="0 0 16 16" fill="none" xmlns="http://www.w3.org/2000/svg">
<path d="M2 3C2 2.44772 2.44772 2 3 2H8C8.55228 2 9 1.55228 9 1C9 0.447715 8.55228 0 8 0H3C1.34315 0 0 1.34315 0 3V13C0 14.6569 1.34315 16 3 16H13C14.6569 16 16 14.6569 16 13V8C16 7.44772 15.5523 7 15 7C14.4477 7 14 7.44772 14 8V13C14 13.5523 13.5523 14 13 14H3C2.44772 14 2 13.5523 2 13V3Z" fill="currentColor" />
<path d="M11.5 0C10.9477 0 10.5 0.447715 10.5 1C10.5 1.55228 10.9477 2 11.5 2H12.5858L5.29289 9.29289C4.90237 9.68342 4.90237 10.3166 5.29289 10.7071C5.68342 11.0976 6.31658 11.0976 6.70711 10.7071L14 3.41421V4.5C14 5.05228 14.4477 5.5 15 5.5C15.5523 5.5 16 5.05228 16 4.5V0H11.5Z" fill="currentColor" />
</svg>
