<svg viewBox="0 0 20 20" fill="none" xmlns="http://www.w3.org/2000/svg">
<path fill-rule="evenodd" clip-rule="evenodd" d="M2.35786 3H14.2579C15.6638 3 16.8079 4.15371 16.8079 5.57143V12.4286C16.8079 13.8463 15.6638 15 14.2579 15H2.35786C0.951961 15 -0.192139 13.8463 -0.192139 12.4286V5.57143C-0.192139 4.15371 0.951961 3 2.35786 3ZM14.8076 7C15.3599 7 15.8076 6.55228 15.8076 6C15.8076 5.449 15.4436 5 14.9951 5H3.62012C3.17162 5 2.80762 5.449 2.80762 6C2.80762 6.55228 3.25533 7 3.80762 7H14.8076ZM13.2083 10.6168H15.125C15.652 10.6168 16.0833 10.1855 16.0833 9.65842C16.0833 9.13134 15.652 8.70009 15.125 8.70009H13.2083C12.6812 8.70009 12.25 9.13134 12.25 9.65842C12.25 10.1855 12.6812 10.6168 13.2083 10.6168ZM2.51685 9.59464C2.51685 9.10065 2.9173 8.7002 3.41129 8.7002H8.77796C9.27194 8.7002 9.6724 9.10065 9.6724 9.59464C9.6724 10.0886 9.27194 10.4891 8.77796 10.4891H3.41129C2.9173 10.4891 2.51685 10.0886 2.51685 9.59464Z" fill="currentColor" fill-opacity="0.7"/>
</svg>
