<svg viewBox="0 0 105 30" fill="none" xmlns="http://www.w3.org/2000/svg">
<path d="M101.111 30H3.88889C1.75097 30 0 28.3116 0 26.25V3.75C0 1.68844 1.75097 0 3.88889 0H101.111C103.249 0 105 1.68844 105 3.75V26.25C105 28.3116 103.249 30 101.111 30Z" fill="white"/>
<path d="M101.111 0.600936C102.912 0.600936 104.377 2.01375 104.377 3.75V26.25C104.377 27.9862 102.912 29.3991 101.111 29.3991H3.88889C2.08833 29.3991 0.623194 27.9862 0.623194 26.25V3.75C0.623194 2.01375 2.08833 0.600936 3.88889 0.600936H101.111ZM101.111 0H3.88889C1.75097 0 0 1.68844 0 3.75V26.25C0 28.3116 1.75097 30 3.88889 30H101.111C103.249 30 105 28.3116 105 26.25V3.75C105 1.68844 103.249 0 101.111 0Z" fill="#A6A6A6"/>
<path d="M8.11558 5.65389C7.8871 5.88452 7.75488 6.24358 7.75488 6.70858V23.2948C7.75488 23.7598 7.8871 24.1189 8.11558 24.3495L8.17197 24.4001L17.8106 15.1095V14.8901L8.17197 5.59952L8.11558 5.65389Z" fill="url(#paint0_linear_2655_989)"/>
<path d="M21.0199 18.208L17.8105 15.1096V14.8902L21.0237 11.7918L21.0957 11.8321L24.901 13.9199C25.9869 14.5124 25.9869 15.4874 24.901 16.0836L21.0957 18.1677L21.0199 18.208Z" fill="url(#paint1_linear_2655_989)"/>
<path d="M21.0959 18.1676L17.8107 14.9998L8.11572 24.3495C8.47642 24.7151 9.06461 24.7592 9.7335 24.3935L21.0959 18.1676Z" fill="url(#paint2_linear_2655_989)"/>
<path d="M21.0959 11.8322L9.7335 5.60625C9.06461 5.24438 8.47642 5.28844 8.11572 5.65406L17.8107 15L21.0959 11.8322Z" fill="url(#paint3_linear_2655_989)"/>
<path d="M36.8803 7.68299C36.8803 8.30924 36.6859 8.8108 36.3028 9.18486C35.8624 9.6283 35.2888 9.85142 34.5859 9.85142C33.9141 9.85142 33.3404 9.62455 32.8699 9.17736C32.3984 8.72361 32.1631 8.16674 32.1631 7.50018C32.1631 6.83361 32.3984 6.27674 32.8699 5.82674C33.3404 5.3758 33.9141 5.14893 34.5859 5.14893C34.9203 5.14893 35.2392 5.21549 35.5435 5.33924C35.8468 5.46393 36.0938 5.63268 36.2727 5.8408L35.8663 6.23643C35.5542 5.88111 35.1293 5.7058 34.5859 5.7058C34.0959 5.7058 33.671 5.8708 33.3103 6.20361C32.9535 6.53736 32.7746 6.96955 32.7746 7.50018C32.7746 8.0308 32.9535 8.46674 33.3103 8.80049C33.671 9.12955 34.0959 9.2983 34.5859 9.2983C35.106 9.2983 35.5435 9.12955 35.8886 8.79674C36.1161 8.57642 36.2454 8.27268 36.2795 7.88455H34.5859V7.34268H36.8453C36.8725 7.45986 36.8803 7.5733 36.8803 7.68299Z" fill="black" stroke="black" stroke-width="0.0888889" stroke-miterlimit="10"/>
<path d="M40.4649 5.80414H38.3425V7.22914H40.2559V7.77101H38.3425V9.19601H40.4649V9.7482H37.7417V5.25195H40.4649V5.80414Z" fill="black" stroke="black" stroke-width="0.0888889" stroke-miterlimit="10"/>
<path d="M42.9944 9.7482H42.3936V5.80414H41.0918V5.25195H44.2972V5.80414H42.9944V9.7482Z" fill="black" stroke="black" stroke-width="0.0888889" stroke-miterlimit="10"/>
<path d="M46.6172 9.7482V5.25195H47.217V9.7482H46.6172Z" fill="black" stroke="black" stroke-width="0.0888889" stroke-miterlimit="10"/>
<path d="M49.8758 9.7482H49.2798V5.80414H47.9731V5.25195H51.1824V5.80414H49.8758V9.7482Z" fill="black" stroke="black" stroke-width="0.0888889" stroke-miterlimit="10"/>
<path d="M57.2512 9.16986C56.7913 9.62455 56.2216 9.85142 55.542 9.85142C54.8585 9.85142 54.2888 9.62455 53.829 9.16986C53.3701 8.71611 53.1416 8.15924 53.1416 7.50018C53.1416 6.84111 53.3701 6.28424 53.829 5.83049C54.2888 5.3758 54.8585 5.14893 55.542 5.14893C56.2177 5.14893 56.7874 5.3758 57.2473 5.83424C57.7101 6.29174 57.9386 6.84486 57.9386 7.50018C57.9386 8.15924 57.7101 8.71611 57.2512 9.16986ZM54.2733 8.79299C54.6194 9.12955 55.0404 9.2983 55.542 9.2983C56.0398 9.2983 56.4647 9.12955 56.8069 8.79299C57.152 8.45643 57.327 8.02424 57.327 7.50018C57.327 6.97611 57.152 6.54393 56.8069 6.20736C56.4647 5.8708 56.0398 5.70205 55.542 5.70205C55.0404 5.70205 54.6194 5.8708 54.2733 6.20736C53.9281 6.54393 53.7531 6.97611 53.7531 7.50018C53.7531 8.02424 53.9281 8.45643 54.2733 8.79299Z" fill="black" stroke="black" stroke-width="0.0888889" stroke-miterlimit="10"/>
<path d="M58.7812 9.7482V5.25195H59.5104L61.7776 8.74883H61.8039L61.7776 7.88445V5.25195H62.3775V9.7482H61.7514L59.3772 6.07883H59.351L59.3772 6.94695V9.7482H58.7812Z" fill="black" stroke="black" stroke-width="0.0888889" stroke-miterlimit="10"/>
<path d="M52.9943 16.3146C51.1675 16.3146 49.6751 17.6552 49.6751 19.5049C49.6751 21.3396 51.1675 22.6943 52.9943 22.6943C54.825 22.6943 56.3173 21.3396 56.3173 19.5049C56.3173 17.6552 54.825 16.3146 52.9943 16.3146ZM52.9943 21.438C51.9919 21.438 51.1296 20.6402 51.1296 19.5049C51.1296 18.3546 51.9919 17.5709 52.9943 17.5709C53.9966 17.5709 54.8629 18.3546 54.8629 19.5049C54.8629 20.6402 53.9966 21.438 52.9943 21.438ZM45.7522 16.3146C43.9215 16.3146 42.433 17.6552 42.433 19.5049C42.433 21.3396 43.9215 22.6943 45.7522 22.6943C47.5819 22.6943 49.0714 21.3396 49.0714 19.5049C49.0714 17.6552 47.5819 16.3146 45.7522 16.3146ZM45.7522 21.438C44.7489 21.438 43.8836 20.6402 43.8836 19.5049C43.8836 18.3546 44.7489 17.5709 45.7522 17.5709C46.7546 17.5709 47.6169 18.3546 47.6169 19.5049C47.6169 20.6402 46.7546 21.438 45.7522 21.438ZM37.1344 17.2924V18.648H40.4915C40.3933 19.4055 40.1308 19.9624 39.7283 20.3505C39.2383 20.8193 38.4751 21.3396 37.1344 21.3396C35.0685 21.3396 33.4507 19.7318 33.4507 17.7396C33.4507 15.7474 35.0685 14.1396 37.1344 14.1396C38.2515 14.1396 39.0643 14.5605 39.6642 15.1062L40.6549 14.1509C39.8158 13.3784 38.6997 12.7849 37.1344 12.7849C34.3014 12.7849 31.9204 15.0077 31.9204 17.7396C31.9204 20.4715 34.3014 22.6943 37.1344 22.6943C38.6657 22.6943 39.8158 22.2105 40.72 21.303C41.6465 20.4096 41.9353 19.1534 41.9353 18.139C41.9353 17.824 41.908 17.5343 41.8594 17.2924H37.1344ZM72.3736 18.3434C72.1004 17.6299 71.2575 16.3146 69.5405 16.3146C67.8391 16.3146 66.4226 17.6074 66.4226 19.5049C66.4226 21.2918 67.8246 22.6943 69.7039 22.6943C71.2235 22.6943 72.1004 21.8008 72.4611 21.2805L71.3333 20.5559C70.9571 21.0865 70.4447 21.438 69.7039 21.438C68.9679 21.438 68.44 21.1127 68.1016 20.4715L72.5262 18.7062L72.3736 18.3434ZM67.8625 19.4055C67.8246 18.1755 68.8532 17.5455 69.5901 17.5455C70.1676 17.5455 70.6576 17.824 70.821 18.2224L67.8625 19.4055ZM64.2662 22.5002H65.7207V13.1252H64.2662V22.5002ZM61.8843 17.0252H61.8357C61.509 16.6521 60.8858 16.3146 60.0964 16.3146C58.4397 16.3146 56.925 17.7171 56.925 19.5152C56.925 21.303 58.4397 22.6943 60.0964 22.6943C60.8858 22.6943 61.509 22.354 61.8357 21.9696H61.8843V22.4271C61.8843 23.6468 61.2086 24.3021 60.1187 24.3021C59.2301 24.3021 58.6789 23.6833 58.4514 23.163L57.1865 23.6721C57.5511 24.5177 58.5165 25.5583 60.1187 25.5583C61.824 25.5583 63.2629 24.5908 63.2629 22.2368V16.5087H61.8843V17.0252ZM60.2208 21.438C59.2185 21.438 58.3794 20.629 58.3794 19.5152C58.3794 18.3912 59.2185 17.5709 60.2208 17.5709C61.2086 17.5709 61.9873 18.3912 61.9873 19.5152C61.9873 20.629 61.2086 21.438 60.2208 21.438ZM79.183 13.1252H75.7044V22.5002H77.155V18.948H79.183C80.794 18.948 82.3739 17.824 82.3739 16.0362C82.3739 14.2493 80.7901 13.1252 79.183 13.1252ZM79.2209 17.644H77.155V14.4293H79.2209C80.304 14.4293 80.9223 15.2965 80.9223 16.0362C80.9223 16.7618 80.304 17.644 79.2209 17.644ZM88.1878 16.2968C87.1397 16.2968 86.0498 16.743 85.6016 17.7321L86.8889 18.2524C87.1659 17.7321 87.6754 17.5634 88.214 17.5634C88.9665 17.5634 89.7297 17.9993 89.7414 18.769V18.8674C89.4789 18.7212 88.9169 18.5046 88.2257 18.5046C86.8393 18.5046 85.4266 19.2405 85.4266 20.614C85.4266 21.8702 86.5622 22.6793 87.8387 22.6793C88.8148 22.6793 89.3534 22.2546 89.6918 21.7605H89.7414V22.4852H91.1423V18.889C91.1423 17.2268 89.8551 16.2968 88.1878 16.2968ZM88.0127 21.4343C87.5383 21.4343 86.8772 21.2074 86.8772 20.6402C86.8772 19.9146 87.7016 19.6362 88.4153 19.6362C89.054 19.6362 89.3534 19.7721 89.7414 19.9512C89.6276 20.8193 88.8527 21.4343 88.0127 21.4343ZM96.2465 16.5021L94.5791 20.5662H94.5296L92.8058 16.5021H91.2415L93.8315 22.1815L92.3537 25.3418H93.8694L97.8604 16.5021H96.2465ZM83.1711 22.5002H84.6255V13.1252H83.1711V22.5002Z" fill="black"/>
<defs>
<linearGradient id="paint0_linear_2655_989" x1="16.9548" y1="23.4676" x2="4.3763" y2="10.4232" gradientUnits="userSpaceOnUse">
<stop stop-color="#00A0FF"/>
<stop offset="0.0066" stop-color="#00A1FF"/>
<stop offset="0.2601" stop-color="#00BEFF"/>
<stop offset="0.5122" stop-color="#00D2FF"/>
<stop offset="0.7604" stop-color="#00DFFF"/>
<stop offset="1" stop-color="#00E3FF"/>
</linearGradient>
<linearGradient id="paint1_linear_2655_989" x1="26.3151" y1="14.9988" x2="7.49527" y2="14.9988" gradientUnits="userSpaceOnUse">
<stop stop-color="#FFE000"/>
<stop offset="0.4087" stop-color="#FFBD00"/>
<stop offset="0.7754" stop-color="#FFA500"/>
<stop offset="1" stop-color="#FF9C00"/>
</linearGradient>
<linearGradient id="paint2_linear_2655_989" x1="19.3095" y1="13.2777" x2="2.25206" y2="-4.41147" gradientUnits="userSpaceOnUse">
<stop stop-color="#FF3A44"/>
<stop offset="1" stop-color="#C31162"/>
</linearGradient>
<linearGradient id="paint3_linear_2655_989" x1="5.67529" y1="29.8679" x2="13.2922" y2="21.9689" gradientUnits="userSpaceOnUse">
<stop stop-color="#32A071"/>
<stop offset="0.0685" stop-color="#2DA771"/>
<stop offset="0.4762" stop-color="#15CF74"/>
<stop offset="0.8009" stop-color="#06E775"/>
<stop offset="1" stop-color="#00F076"/>
</linearGradient>
</defs>
</svg>
