<svg viewBox="0 0 25 24" fill="none" xmlns="http://www.w3.org/2000/svg">
<path fill-rule="evenodd" clip-rule="evenodd" d="M21.5 7C22.0523 7 22.5 6.55228 22.5 6C22.5 5.44772 22.0523 5 21.5 5H3.5C2.94772 5 2.5 5.44772 2.5 6C2.5 6.55228 2.94772 7 3.5 7H21.5ZM21.5 9C22.0523 9 22.5 9.44772 22.5 10C22.5 10.5523 22.0523 11 21.5 11H9.5C8.94772 11 8.5 10.5523 8.5 10C8.5 9.44772 8.94772 9 9.5 9H21.5ZM21.5 15C22.0523 15 22.5 14.5523 22.5 14C22.5 13.4477 22.0523 13 21.5 13H3.5C2.94772 13 2.5 13.4477 2.5 14C2.5 14.5523 2.94772 15 3.5 15H21.5ZM21.5 19C22.0523 19 22.5 18.5523 22.5 18C22.5 17.4477 22.0523 17 21.5 17H9.5C8.94772 17 8.5 17.4477 8.5 18C8.5 18.5523 8.94772 19 9.5 19H21.5Z" fill="currentColor"/>
</svg>
