<svg width="20" height="20" viewBox="0 0 20 20" fill="none" xmlns="http://www.w3.org/2000/svg">
<path fill-rule="evenodd" clip-rule="evenodd" d="M10 20C15.5228 20 20 15.5228 20 10C20 4.47715 15.5228 0 10 0C4.47715 0 0 4.47715 0 10C0 15.5228 4.47715 20 10 20ZM8 5C8 3.89543 8.89543 3 10 3C11.1046 3 12 3.89543 12 5C12 6.10457 11.1046 7 10 7C8.89543 7 8 6.10457 8 5ZM8 11C8 9.89543 8.89543 9 10 9C11.1046 9 12 9.89543 12 11V15C12 16.1046 11.1046 17 10 17C8.89543 17 8 16.1046 8 15V11Z" fill="#485BC1"/>
</svg>
