<svg viewBox="0 0 18 18" xmlns="http://www.w3.org/2000/svg" fill="currentColor">
  <path d="M13.005 4.095C12.827 4.095 12.653 4.14778 12.505 4.24668C12.357 4.34557 12.2416 4.48613 12.1735 4.65058C12.1054 4.81504 12.0876 4.996 12.1223 5.17058C12.157 5.34516 12.2427 5.50553 12.3686 5.6314C12.4945 5.75726 12.6548 5.84298 12.8294 5.87771C13.004 5.91243 13.185 5.89461 13.3494 5.82649C13.5139 5.75837 13.6544 5.64302 13.7533 5.49501C13.8522 5.34701 13.905 5.173 13.905 4.995C13.905 4.75631 13.8102 4.52739 13.6414 4.3586C13.4726 4.18982 13.2437 4.095 13.005 4.095V4.095ZM16.455 5.91C16.4404 5.28772 16.3239 4.67205 16.11 4.0875C15.9193 3.58735 15.6225 3.13446 15.24 2.76C14.8686 2.37557 14.4147 2.08063 13.9125 1.8975C13.3295 1.67712 12.7131 1.55791 12.09 1.545C11.295 1.5 11.04 1.5 9 1.5C6.96 1.5 6.705 1.5 5.91 1.545C5.28686 1.55791 4.67051 1.67712 4.0875 1.8975C3.58626 2.08249 3.1327 2.37717 2.76 2.76C2.37557 3.13138 2.08063 3.58533 1.8975 4.0875C1.67712 4.67051 1.55791 5.28686 1.545 5.91C1.5 6.705 1.5 6.96 1.5 9C1.5 11.04 1.5 11.295 1.545 12.09C1.55791 12.7131 1.67712 13.3295 1.8975 13.9125C2.08063 14.4147 2.37557 14.8686 2.76 15.24C3.1327 15.6228 3.58626 15.9175 4.0875 16.1025C4.67051 16.3229 5.28686 16.4421 5.91 16.455C6.705 16.5 6.96 16.5 9 16.5C11.04 16.5 11.295 16.5 12.09 16.455C12.7131 16.4421 13.3295 16.3229 13.9125 16.1025C14.4147 15.9194 14.8686 15.6244 15.24 15.24C15.6242 14.8669 15.9213 14.4136 16.11 13.9125C16.3239 13.3279 16.4404 12.7123 16.455 12.09C16.455 11.295 16.5 11.04 16.5 9C16.5 6.96 16.5 6.705 16.455 5.91V5.91ZM15.105 12C15.0995 12.4761 15.0133 12.9478 14.85 13.395C14.7302 13.7214 14.5379 14.0163 14.2875 14.2575C14.0442 14.5054 13.7499 14.6973 13.425 14.82C12.9778 14.9833 12.5061 15.0695 12.03 15.075C11.28 15.1125 11.0025 15.12 9.03 15.12C7.0575 15.12 6.78 15.12 6.03 15.075C5.53567 15.0843 5.04345 15.0081 4.575 14.85C4.26434 14.7211 3.98352 14.5296 3.75 14.2875C3.50107 14.0466 3.31113 13.7514 3.195 13.425C3.01189 12.9714 2.91033 12.489 2.895 12C2.895 11.25 2.85 10.9725 2.85 9C2.85 7.0275 2.85 6.75 2.895 6C2.89836 5.51329 2.98721 5.03096 3.1575 4.575C3.28954 4.25843 3.4922 3.97624 3.75 3.75C3.97786 3.49213 4.25947 3.28732 4.575 3.15C5.03216 2.98503 5.514 2.89881 6 2.895C6.75 2.895 7.0275 2.85 9 2.85C10.9725 2.85 11.25 2.85 12 2.895C12.4761 2.90046 12.9478 2.98668 13.395 3.15C13.7358 3.27649 14.0417 3.48214 14.2875 3.75C14.5333 3.98038 14.7253 4.26205 14.85 4.575C15.0167 5.0317 15.103 5.51383 15.105 6C15.1425 6.75 15.15 7.0275 15.15 9C15.15 10.9725 15.1425 11.25 15.105 12ZM9 5.1525C8.23936 5.15398 7.49622 5.38089 6.86449 5.80456C6.23276 6.22823 5.74078 6.82965 5.45073 7.53282C5.16067 8.23598 5.08554 9.00935 5.23485 9.7552C5.38415 10.501 5.75118 11.1859 6.28956 11.7232C6.82794 12.2606 7.51351 12.6263 8.25964 12.7741C9.00578 12.922 9.779 12.8453 10.4816 12.5539C11.1842 12.2625 11.7847 11.7693 12.2071 11.1368C12.6295 10.5042 12.855 9.76064 12.855 9C12.856 8.49383 12.7569 7.99245 12.5634 7.52472C12.37 7.05698 12.0859 6.63211 11.7277 6.27454C11.3694 5.91697 10.944 5.63376 10.4758 5.4412C10.0077 5.24864 9.50617 5.15052 9 5.1525V5.1525ZM9 11.4975C8.50604 11.4975 8.02318 11.351 7.61246 11.0766C7.20175 10.8022 6.88164 10.4121 6.69261 9.95575C6.50358 9.49939 6.45412 8.99723 6.55049 8.51276C6.64686 8.02829 6.88472 7.58328 7.234 7.234C7.58328 6.88472 8.02829 6.64686 8.51276 6.55049C8.99723 6.45412 9.49939 6.50358 9.95575 6.69261C10.4121 6.88164 10.8022 7.20175 11.0766 7.61246C11.351 8.02318 11.4975 8.50604 11.4975 9C11.4975 9.32798 11.4329 9.65274 11.3074 9.95575C11.1819 10.2588 10.9979 10.5341 10.766 10.766C10.5341 10.9979 10.2588 11.1819 9.95575 11.3074C9.65274 11.4329 9.32798 11.4975 9 11.4975V11.4975Z" />
</svg>
