<svg width="16" height="13" viewBox="0 0 16 13" fill="none" xmlns="http://www.w3.org/2000/svg">
    <path fill-rule="evenodd" clip-rule="evenodd"
        d="M8.67962 0.297613L4.71221 4.01309C4.44723 4.26124 4.29684 4.60328 4.29684 4.95873V11.6587C4.29684 12.3964 4.94137 13 5.72913 13H12.1744C12.7473 13 13.2629 12.6781 13.4921 12.1885L15.8267 7.08474C16.4283 5.75682 15.3899 4.28136 13.8502 4.28136H9.80396L10.4843 1.20972C10.5559 0.874384 10.4485 0.532345 10.1907 0.290906C9.76816 -0.0980793 9.09499 -0.0980793 8.67962 0.297613ZM1.43228 13C2.22004 13 2.86456 12.3964 2.86456 11.6587V6.29335C2.86456 5.55562 2.22004 4.95202 1.43228 4.95202C0.644527 4.95202 0 5.55562 0 6.29335V11.6587C0 12.3964 0.644527 13 1.43228 13Z"
        fill="currentColor" fill-opacity="0.3" />
</svg>
