<svg viewBox="0 0 24 24" fill="none" xmlns="http://www.w3.org/2000/svg">
<path fill-rule="evenodd" clip-rule="evenodd" d="M6.61012 10.7273H11.2729C11.5311 10.7273 11.7775 10.8373 11.9493 11.0291C12.1211 11.2209 12.2038 11.4773 12.1765 11.7336L11.7684 15.5064L15.9357 9.2727H11.2729C11.0147 9.2727 10.7683 9.1627 10.5965 8.97088C10.4238 8.77906 10.3411 8.52269 10.3693 8.26632L10.7774 4.49446L6.61012 10.7273ZM10.4645 20C10.3609 20 10.2563 19.9827 10.1536 19.9455C9.76086 19.8018 9.5154 19.4091 9.56086 18.9936L10.26 12.5454H4.90898C4.57353 12.5454 4.26534 12.3608 4.10716 12.0654C3.94897 11.769 3.96716 11.4099 4.15352 11.1308L11.3254 0.404311C11.5572 0.0552163 11.9973 -0.0884218 12.3909 0.0552163C12.7845 0.197945 13.03 0.591586 12.9845 1.00705L12.2854 7.4544H17.6364C17.9719 7.4544 18.2801 7.63985 18.4382 7.93531C18.5964 8.23168 18.5782 8.58986 18.3919 8.86896L11.22 19.5964C11.0481 19.8545 10.7609 20 10.4645 20Z" fill="currentColor" fill-opacity="0.7"/>
</svg>
