<svg width="24" height="25" viewBox="0 0 24 25" fill="none" xmlns="http://www.w3.org/2000/svg">
<path fill-rule="evenodd" clip-rule="evenodd" d="M14 7.5C14 6.397 13.103 5.5 12 5.5C10.897 5.5 10 6.397 10 7.5C10 8.603 10.897 9.5 12 9.5C13.103 9.5 14 8.603 14 7.5ZM16 7.5C16 9.706 14.206 11.5 12 11.5C9.794 11.5 8 9.706 8 7.5C8 5.294 9.794 3.5 12 3.5C14.206 3.5 16 5.294 16 7.5ZM5 20.5C5 16.64 8.141 13.5 12 13.5C15.859 13.5 19 16.64 19 20.5C19 21.052 18.553 21.5 18 21.5C17.447 21.5 17 21.052 17 20.5C17 17.743 14.757 15.5 12 15.5C9.243 15.5 7 17.743 7 20.5C7 21.052 6.553 21.5 6 21.5C5.447 21.5 5 21.052 5 20.5Z" fill="currentColor"/>
</svg>
