<svg width="24" height="24" viewBox="0 0 24 24" fill="none" xmlns="http://www.w3.org/2000/svg">
<path fill-rule="evenodd" clip-rule="evenodd" d="M12 24C18.5634 24 24 18.575 24 12C24 5.43659 18.5634 0 11.9884 0C5.42498 0 0 5.43659 0 12C0 18.575 5.43659 24 12 24ZM12 21C7 21 5 18 5 18C5 16 7.80639 12.5576 12 12.5576C16.1936 12.5576 19 16 19 18C19 18 17 21 12 21ZM12 4C10.3431 4 9 5.34315 9 7V8C9 9.65685 10.3431 11 12 11C13.6569 11 15 9.65685 15 8V7C15 5.34315 13.6569 4 12 4Z" fill="currentColor"/>
</svg>
