<svg viewBox="0 0 18 19" fill="none" xmlns="http://www.w3.org/2000/svg">
<path fill-rule="evenodd" clip-rule="evenodd" d="M3.81346 7.68484C3.48762 7.99438 2.96096 7.99438 2.63512 7.68484L0.135122 5.30984C-0.190711 5.00029 -0.190711 4.49996 0.135122 4.19042L2.63512 1.81542C2.79762 1.66105 3.01096 1.58346 3.22429 1.58346C3.43762 1.58346 3.65096 1.66105 3.81346 1.81542C4.13929 2.12496 4.13929 2.62529 3.81346 2.93484L2.73596 3.95846H12.7326C14.3826 3.95846 15.7243 5.21167 15.7243 6.75225V8.70846C15.7243 9.14625 15.3518 9.50013 14.891 9.50013C14.4301 9.50013 14.0576 9.14625 14.0576 8.70846V6.75225C14.0576 6.08488 13.4635 5.54179 12.7326 5.54179H2.73596L3.81346 6.56542C4.13929 6.87496 4.13929 7.37529 3.81346 7.68484ZM12.8791 15.0418H2.88246C1.2333 15.0418 -0.109203 13.7886 -0.109203 12.248L-0.109203 10.2918C-0.109203 9.854 0.263297 9.50013 0.72413 9.50013C1.18496 9.50013 1.55746 9.854 1.55746 10.2918V12.248C1.55746 12.9146 2.15163 13.4585 2.88246 13.4585H12.8791L11.8016 12.4348C11.4766 12.1253 11.4766 11.625 11.8016 11.3154C11.9641 11.161 12.1775 11.0835 12.3908 11.0835C12.6041 11.0835 12.8175 11.161 12.98 11.3154L15.48 13.6904C15.8058 14 15.8058 14.5003 15.48 14.8098L12.98 17.1848C12.655 17.4944 12.1275 17.4944 11.8016 17.1848C11.4766 16.8753 11.4766 16.375 11.8016 16.0654L12.8791 15.0418Z" fill="currentColor" fill-opacity="0.7"/>
</svg>
