<svg width="16" height="16" viewBox="0 0 16 16" fill="currentColor" xmlns="http://www.w3.org/2000/svg">
<path d="M6 7L7 6L4.70711 3.70711L5.29289 3.12132C6.01086 2.40335 6.98464 2 8 2C9.01536 2 9.98914 2.40335 10.7071 3.12132L10.7929 3.20711C11.5658 3.98 12 5.02828 12 6.12132L12 7L14 7V6.12132C14 4.49785 13.3551 2.94086 12.2071 1.79289L12.1213 1.70711C11.0283 0.614064 9.5458 0 8 0C6.45421 0 4.97172 0.614064 3.87868 1.70711L3.29289 2.29289L1 0L0 1V7H6Z" />
<path d="M10.7071 12.8787C9.98914 13.5966 9.01536 14 8 14C6.98464 14 6.01086 13.5967 5.29289 12.8787L5.20711 12.7929C4.43421 12.02 4 10.9717 4 9.87868L4 9L2 9V9.87868C2 11.5022 2.64492 13.0591 3.79289 14.2071L3.87868 14.2929C4.97172 15.3859 6.45421 16 8 16C9.54579 16 11.0283 15.3859 12.1213 14.2929L12.7071 13.7071L15 16L16 15L16 9L10 9L9 10L11.2929 12.2929L10.7071 12.8787Z" />
</svg>
