<svg xmlns="http://www.w3.org/2000/svg" viewBox="0 0 482.8 482.8" width="20" height="20" fill="currentColor"><path d="M431.3 114.5c-1.4-3.3-3.5-6.4-6.1-8.9l-101.9-98c-2.5-2.4-5.4-4.3-8.6-5.6-3.2-1.3-6.6-2-10.1-2H109C76 0 49.3 26.7 49.3 59.7v363.4c0 33 26.7 59.7 59.7 59.7h264.8c33 0 59.7-26.7 59.7-59.7v-298c0-3.6-.8-7.2-2.2-10.6zm-26 308.7c0 17.4-14.2 31.5-31.5 31.5H109c-17.4 0-31.5-14.2-31.5-31.5V59.8c0-17.4 14.1-31.5 31.5-31.5h186.7V74c0 32.9 26.8 59.7 59.7 59.7h49.9v289.5z"/><path d="M110 241.5c0 7.7 6.3 14.1 14.1 14.1h237.1c7.7 0 14.1-6.3 14.1-14.1 0-7.7-6.3-14.1-14.1-14.1H124.1c-7.8 0-14.1 6.4-14.1 14.1zM361.1 283.7h-237c-7.7 0-14.1 6.3-14.1 14.1 0 7.7 6.3 14.1 14.1 14.1h237.1c7.7 0 14.1-6.3 14.1-14.1-.1-7.8-6.4-14.1-14.2-14.1zM361.1 340h-237c-7.7 0-14.1 6.3-14.1 14.1 0 7.7 6.3 14.1 14.1 14.1h237.1c7.7 0 14.1-6.3 14.1-14.1-.1-7.8-6.4-14.1-14.2-14.1zM255.1 396.2H122.9c-7.7 0-14.1 6.3-14.1 14.1s6.3 14.1 14.1 14.1h132.3c7.7 0 14.1-6.3 14.1-14.1s-6.4-14.1-14.2-14.1zM172.2 201.3h61.9c-.3-25.7.7-39.5-16-45.6-15.2-5.8-24.2-11.7-24.2-11.7l-11.7 36.9-1.6 5-5.2-14.8c12-16.8-.9-17.6-3.2-17.6-2.2 0-15.2.8-3.2 17.6l-5.2 14.8-1.6-5-11.8-36.9s-9.1 5.9-24.2 11.7c-16.7 6.1-15.7 19.8-16 45.6h62z"/><path d="M145.8 120.6c1.3 8.7 8 19.7 19 23.6 4.5 1.6 9.5 1.6 14 0 10.8-3.9 17.7-14.9 19.1-23.6 1.5-.1 3.4-2.2 5.4-9.5 2.8-10-.2-11.5-2.7-11.2.5-1.4.9-2.7 1.1-4.1 4.3-25.8-8.4-26.7-8.4-26.7s-2.1-4.1-7.7-7.1c-3.7-2.2-8.9-3.9-15.7-3.3-2.2.1-4.3.5-6.3 1.2-2.5.8-4.8 2.1-6.9 3.5-2.6 1.6-5 3.6-7.1 5.9-3.4 3.4-6.4 7.9-7.7 13.5-1.1 4.2-.8 8.5.1 13.1.2 1.4.6 2.7 1.1 4.1-2.5-.2-5.5 1.2-2.7 11.2 2.1 7.2 4 9.3 5.4 9.4z"/></svg>
