<svg width="24" height="24" viewBox="0 0 24 24" fill="none" xmlns="http://www.w3.org/2000/svg">
<g clip-path="url(#clip0_3118_69556)">
<path d="M12 21C16.9706 21 21 16.9706 21 12C21 7.02944 16.9706 3 12 3C7.02944 3 3 7.02944 3 12C3 16.9706 7.02944 21 12 21Z" stroke="currentColor" stroke-width="2" stroke-linecap="round" stroke-linejoin="round"/>
<path d="M9 10H9.01" stroke="currentColor" stroke-width="2" stroke-linecap="round" stroke-linejoin="round"/>
<path d="M15 10H15.01" stroke="currentColor" stroke-width="2" stroke-linecap="round" stroke-linejoin="round"/>
<path d="M9.5 15.2502C9.82588 14.9176 10.2148 14.6534 10.6441 14.473C11.0734 14.2926 11.5344 14.1997 12 14.1997C12.4656 14.1997 12.9266 14.2926 13.3559 14.473C13.7852 14.6534 14.1741 14.9176 14.5 15.2502" stroke="currentColor" stroke-width="2" stroke-linecap="round" stroke-linejoin="round"/>
</g>
<defs>
<clipPath id="clip0_3118_69556">
<rect width="24" height="24" fill="white"/>
</clipPath>
</defs>
</svg>
