<svg width="38" height="45" viewBox="0 0 38 45" fill="none" xmlns="http://www.w3.org/2000/svg">
    <path fill-rule="evenodd" clip-rule="evenodd"
        d="M3.51852 20.4545V10.3973L19 3.73063L34.4815 10.3973V20.4545C34.4815 30.0741 27.7746 38.9577 19 41.4701C10.2254 38.9577 3.51852 30.0741 3.51852 20.4545ZM0 8.18182L19 0L38 8.18182V20.4545C38 31.8068 29.8933 42.4227 19 45C8.10667 42.4227 0 31.8068 0 20.4545V8.18182ZM7.7417 14.0392L19.001 9.20446L30.2602 14.0392V21.2912C30.2602 27.9994 25.4563 34.2724 19.001 35.7954C12.5456 34.2724 7.7417 27.9994 7.7417 21.2912V14.0392Z"
        fill="currentColor" fill-opacity="0.1" />
</svg>
