<svg width="243" height="134" viewBox="0 0 243 134" fill="none" xmlns="http://www.w3.org/2000/svg">
<g clip-path="url(#clip0_1832_5739)">
<path d="M54.2998 98.1465C54.2998 101.944 45.2612 110.179 34.1115 110.179C22.9617 110.179 13.9231 101.944 13.9231 98.1465C13.9231 94.349 22.9617 96.4275 34.1115 96.4275C45.2612 96.4275 54.2998 94.349 54.2998 98.1465Z" fill="#3F3D56"/>
<path opacity="0.1" d="M54.2998 98.1465C54.2998 101.944 45.2612 110.179 34.1115 110.179C22.9617 110.179 13.9231 101.944 13.9231 98.1465C13.9231 94.349 22.9617 96.4275 34.1115 96.4275C45.2612 96.4275 54.2998 94.349 54.2998 98.1465Z" fill="black"/>
<path d="M34.1115 105.022C45.2612 105.022 54.2998 101.944 54.2998 98.1464C54.2998 94.349 45.2612 91.2705 34.1115 91.2705C22.9617 91.2705 13.9231 94.349 13.9231 98.1464C13.9231 101.944 22.9617 105.022 34.1115 105.022Z" fill="#3F3D56"/>
<path d="M41.2318 12.8223C44.6458 12.8223 47.4135 10.2336 47.4135 7.04031C47.4135 3.84699 44.6458 1.2583 41.2318 1.2583C37.8177 1.2583 35.05 3.84699 35.05 7.04031C35.05 10.2336 37.8177 12.8223 41.2318 12.8223Z" fill="#020024"/>
<path d="M23.235 43.061L21.6701 45.2488C21.6701 45.2488 14.1581 46.8115 16.9751 49.1556C19.7921 51.4996 23.861 46.9678 23.861 46.9678L26.052 44.1549L23.235 43.061Z" fill="#FFB8B8"/>
<path d="M31.373 18.2139C31.373 18.2139 29.3385 18.2139 28.869 21.0267C28.3995 23.8396 27.93 33.2158 27.93 33.2158C27.93 33.2158 21.357 41.8107 22.4525 42.9046C23.548 43.9985 24.8 46.03 25.5825 45.7175C26.365 45.4049 33.0944 36.185 33.0944 36.185L31.373 18.2139Z" fill="#485BC1"/>
<path opacity="0.1" d="M31.373 18.2139C31.373 18.2139 29.3385 18.2139 28.869 21.0267C28.3995 23.8396 27.93 33.2158 27.93 33.2158C27.93 33.2158 21.357 41.8107 22.4525 42.9046C23.548 43.9985 24.8 46.03 25.5825 45.7175C26.365 45.4049 33.0944 36.185 33.0944 36.185L31.373 18.2139Z" fill="black"/>
<path d="M37.632 10.2441C37.632 10.2441 37.4755 16.3387 35.5975 16.6512C33.7195 16.9638 34.3455 18.9953 34.3455 18.9953C34.3455 18.9953 40.449 22.5895 44.518 18.9953L45.3005 17.12C45.3005 17.12 42.4835 15.0885 43.7355 12.2757L37.632 10.2441Z" fill="#FFB8B8"/>
<path d="M27.1467 47.749C27.1467 47.749 17.9132 64.9388 21.3562 70.252C24.7992 75.5652 29.9637 86.5041 30.7462 86.5041C31.5286 86.5041 35.9106 84.3163 35.5976 82.9099C35.2846 81.5035 30.5897 71.0333 29.3377 70.0957C28.0857 69.1581 28.7117 66.6578 28.8682 66.5015C29.0247 66.3452 34.1891 58.0629 34.1891 58.0629C34.1891 58.0629 34.0326 71.1896 34.6586 73.2211C35.2846 75.2526 34.5021 89.7858 35.2846 90.4109C36.0671 91.036 39.6666 92.1299 40.2926 91.1922C40.9186 90.2546 42.7966 76.034 41.5446 72.7523L43.8921 50.2494L27.1467 47.749Z" fill="#020024"/>
<path d="M35.5979 89.4731L31.6854 96.6616C31.6854 96.6616 26.0514 100.725 29.9639 101.35C33.8764 101.975 36.2239 100.412 36.2239 100.412L39.6669 97.9118V90.7233L35.5979 89.4731Z" fill="#020024"/>
<path d="M30.2766 85.4103L32.3111 90.2547C32.3111 90.2547 33.0936 92.2862 32.3111 92.755C31.5286 93.2238 29.3376 96.0367 30.7461 96.3492C31.0295 96.4047 31.3174 96.4333 31.6061 96.4346C32.779 96.4543 33.9437 96.2369 35.0302 95.7954C36.1167 95.3539 37.1025 94.6975 37.9283 93.8656L39.1971 92.5987C39.1971 92.5987 34.8511 82.6055 34.9113 82.6796C34.9716 82.7537 30.2766 85.4103 30.2766 85.4103Z" fill="#020024"/>
<path d="M41.5448 13.9946C44.4835 13.9946 46.8658 11.6158 46.8658 8.68136C46.8658 5.74696 44.4835 3.36816 41.5448 3.36816C38.6062 3.36816 36.2239 5.74696 36.2239 8.68136C36.2239 11.6158 38.6062 13.9946 41.5448 13.9946Z" fill="#FFB8B8"/>
<path d="M44.5963 16.1044L42.953 17.7452C42.953 17.7452 37.945 19.6204 35.5976 17.7452C35.5976 17.7452 36.4583 15.9481 36.4583 16.1044C36.4583 16.2606 29.6506 17.2764 29.0246 20.0893C28.3986 22.9021 29.4941 27.7465 29.4941 27.7465C29.4941 27.7465 25.1121 48.3742 26.8336 48.843C28.5551 49.3118 44.6745 53.2186 44.518 50.2495C44.3615 47.2803 45.77 35.0912 45.77 35.0912L51.2475 24.6211C51.2475 24.6211 50.465 21.1832 48.587 20.0893C46.709 18.9954 44.5963 16.1044 44.5963 16.1044Z" fill="#485BC1"/>
<path d="M37.6325 46.6553L35.598 47.9054C35.598 47.9054 27.773 53.2186 31.842 54.1563C35.911 55.0939 38.2585 50.4058 38.2585 50.4058L39.8235 48.5305L37.6325 46.6553Z" fill="#FFB8B8"/>
<path opacity="0.1" d="M49.214 23.6831L50.6225 25.0895C50.6225 25.0895 51.5615 38.2163 49.6835 40.8729C47.8056 43.5295 39.1981 50.7179 38.7286 50.2491C38.2591 49.7803 35.2856 47.4362 35.9116 47.1237C36.5376 46.8111 44.8607 38.1273 44.8607 38.1273L44.2061 26.0272L49.214 23.6831Z" fill="black"/>
<path d="M49.839 23.2144L51.2475 24.6208C51.2475 24.6208 52.1865 37.7475 50.3085 40.4041C48.4306 43.0607 39.8231 50.2492 39.3536 49.7804C38.8841 49.3115 35.9106 46.9675 36.5366 46.6549C37.1626 46.3424 45.4857 37.6585 45.4857 37.6585L44.8311 25.5584L49.839 23.2144Z" fill="#485BC1"/>
<path d="M39.3449 1.1343C39.3449 1.1343 37.5361 0.477532 35.0697 1.87315L36.3851 2.20153C36.3851 2.20153 34.4119 2.36573 34.1653 4.99278H35.0697C35.0697 4.99278 34.4941 7.29144 35.0697 7.94821L35.4396 7.2504L36.5084 9.38488L36.7551 8.31764L37.2484 8.48183L37.5772 6.75783C37.5772 6.75783 38.3994 7.98926 39.0571 8.07135V7.00411C39.0571 7.00411 40.8658 9.0565 41.4413 8.9744L40.6192 7.82507L41.7702 8.07135L41.2769 7.2504L44.2367 8.07135L43.5789 7.2504L45.6343 7.90716L46.6209 8.31764C46.6209 8.31764 48.0186 5.11592 46.0454 2.89934C44.0722 0.682767 41.1947 0.1902 39.3449 1.1343Z" fill="#020024"/>
</g>
<path d="M183.824 33.7913C182.221 33.1094 181.857 30.6248 183.198 29.524C184.539 28.4231 186.953 29.2255 187.343 30.9021L185.848 20.3633C185.505 17.9404 185.23 15.2319 186.715 13.272C188.106 11.4367 190.824 10.8487 193.005 11.6387C195.187 12.4288 196.799 14.3996 197.483 16.5891C198.167 18.7785 198.006 21.1579 197.409 23.3719C196.811 25.5858 195.797 27.6654 194.77 29.7209C193.719 31.8272 192.443 34.1097 190.195 34.885C188.048 35.6256 183.824 33.7913 183.824 33.7913Z" fill="#AEAEAE"/>
<path d="M190.915 11.2275C191.873 14.234 192.328 17.3793 192.264 20.5356C192.204 23.678 191.643 26.7903 190.602 29.7538C190.01 31.435 189.26 33.0555 188.361 34.5933C188.323 34.6656 188.313 34.7504 188.335 34.8296C188.357 34.9088 188.409 34.9763 188.48 35.0178C188.55 35.0593 188.634 35.0716 188.714 35.0521C188.793 35.0326 188.862 34.9828 188.906 34.9132C190.518 32.1401 191.664 29.1178 192.297 25.9684C192.94 22.8043 193.068 19.5563 192.678 16.3508C192.459 14.5543 192.072 12.7826 191.523 11.059C191.399 10.6721 190.79 10.8376 190.915 11.2275Z" fill="white"/>
<path d="M182.928 29.6676L188.215 34.9636C188.512 35.2611 188.983 34.8103 188.687 34.5134L183.4 29.2173C183.103 28.9198 182.632 29.3706 182.928 29.6676Z" fill="white"/>
<path d="M238.029 115.801C237.341 110.132 233.914 104.546 228.64 102.701C230.72 108.536 230.72 114.937 228.639 120.772C227.829 123.02 226.699 125.433 227.461 127.698C227.936 129.107 229.096 130.185 230.393 130.86C231.69 131.534 233.129 131.855 234.551 132.17L234.83 132.407C237.087 127.184 238.717 121.47 238.029 115.801Z" fill="#707070"/>
<path d="M228.615 102.928C231.687 106.461 233.597 110.897 234.073 115.606C234.193 116.618 234.156 117.644 233.965 118.644C233.748 119.612 233.283 120.503 232.617 121.225C232.009 121.91 231.31 122.539 230.875 123.363C230.658 123.789 230.532 124.257 230.504 124.736C230.476 125.216 230.547 125.695 230.712 126.145C231.096 127.275 231.853 128.196 232.624 129.07C233.48 130.041 234.383 131.036 234.747 132.323C234.791 132.479 235.024 132.399 234.98 132.244C234.347 130.004 232.229 128.732 231.219 126.715C230.747 125.774 230.549 124.682 230.991 123.688C231.378 122.82 232.098 122.171 232.719 121.482C233.379 120.788 233.863 119.939 234.13 119.009C234.37 118.022 234.445 117 234.351 115.987C234.175 113.703 233.65 111.462 232.795 109.346C231.833 106.925 230.474 104.69 228.777 102.739C228.672 102.619 228.51 102.808 228.615 102.928Z" fill="white"/>
<path d="M233.778 113.665C234.556 113.476 235.242 113.017 235.713 112.369C236.184 111.721 236.409 110.927 236.348 110.128C236.336 109.967 236.084 109.979 236.097 110.141C236.155 110.884 235.945 111.624 235.505 112.227C235.065 112.829 234.425 113.254 233.699 113.426C233.541 113.464 233.621 113.703 233.778 113.665Z" fill="white"/>
<path d="M233.093 120.736C231.692 119.889 230.659 118.539 230.198 116.954C230.152 116.797 229.914 116.876 229.959 117.033C230.442 118.682 231.521 120.085 232.98 120.963C233.119 121.047 233.231 120.82 233.093 120.736Z" fill="white"/>
<path d="M231.609 106.906C231.305 107.019 230.97 107.071 230.634 107.058C230.298 107.045 229.971 106.966 229.683 106.829C229.536 106.759 229.416 106.947 229.563 107.017C229.882 107.167 230.242 107.253 230.614 107.268C230.985 107.284 231.355 107.228 231.693 107.105C231.726 107.096 231.753 107.077 231.769 107.052C231.785 107.028 231.788 106.999 231.778 106.973C231.767 106.946 231.742 106.925 231.711 106.912C231.679 106.9 231.642 106.897 231.609 106.906Z" fill="white"/>
<path d="M212.112 112.902C212.197 112.958 212.282 113.013 212.366 113.071C213.501 113.821 214.574 114.664 215.573 115.589C215.651 115.659 215.73 115.732 215.806 115.804C218.19 118.059 220.137 120.74 221.547 123.71C222.108 124.892 222.578 126.116 222.954 127.37C223.473 129.102 223.898 131.021 224.926 132.438C225.031 132.587 225.146 132.729 225.269 132.864H234.552C234.573 132.854 234.594 132.845 234.615 132.834L234.986 132.851C234.971 132.785 234.954 132.717 234.939 132.651C234.931 132.613 234.92 132.574 234.912 132.536C234.905 132.511 234.899 132.485 234.895 132.462C234.893 132.453 234.89 132.445 234.888 132.438C234.884 132.415 234.878 132.393 234.873 132.372C234.78 131.991 234.684 131.609 234.585 131.228C234.585 131.226 234.585 131.226 234.583 131.224C233.823 128.32 232.815 125.455 231.406 122.834C231.364 122.756 231.322 122.675 231.275 122.596C230.634 121.418 229.898 120.295 229.075 119.238C228.622 118.661 228.141 118.107 227.632 117.579C226.316 116.216 224.795 115.07 223.125 114.183C219.796 112.415 215.941 111.737 212.383 112.817C212.292 112.845 212.203 112.873 212.112 112.902Z" fill="#707070"/>
<path d="M211.766 113.005C216.471 113.913 220.763 116.239 224.031 119.652C224.748 120.375 225.343 121.202 225.795 122.105C226.205 122.998 226.362 123.982 226.249 124.954C226.163 125.862 225.966 126.782 226.108 127.695C226.188 128.161 226.369 128.606 226.638 128.999C226.907 129.393 227.259 129.727 227.67 129.98C228.679 130.634 229.869 130.898 231.042 131.117C232.344 131.36 233.701 131.592 234.789 132.382C234.92 132.478 235.066 132.274 234.934 132.178C233.043 130.803 230.508 131.091 228.439 130.12C227.473 129.667 226.642 128.929 226.403 127.879C226.194 126.961 226.396 126.013 226.492 125.094C226.617 124.147 226.501 123.185 226.154 122.292C225.751 121.37 225.19 120.521 224.494 119.782C222.955 118.094 221.151 116.651 219.151 115.507C216.875 114.19 214.384 113.26 211.785 112.758C211.624 112.727 211.606 112.975 211.766 113.005Z" fill="white"/>
<path d="M223.023 118.648C223.676 118.013 224.024 117.214 224.006 116.394C223.988 115.574 223.604 114.786 222.923 114.17C222.785 114.046 222.536 114.211 222.675 114.336C223.31 114.908 223.667 115.642 223.682 116.406C223.697 117.17 223.369 117.913 222.757 118.501C222.624 118.629 222.891 118.775 223.023 118.648Z" fill="white"/>
<path d="M226.602 124.383C224.937 124.539 223.264 124.148 221.918 123.289C221.785 123.204 221.638 123.386 221.772 123.471C223.174 124.363 224.915 124.766 226.648 124.602C226.813 124.586 226.767 124.368 226.602 124.383Z" fill="white"/>
<path d="M216.916 114.182C216.77 114.474 216.556 114.723 216.294 114.908C216.032 115.092 215.73 115.206 215.415 115.239C215.254 115.256 215.3 115.513 215.46 115.497C215.808 115.458 216.141 115.332 216.431 115.129C216.721 114.926 216.959 114.652 217.124 114.331C217.141 114.302 217.148 114.268 217.142 114.234C217.136 114.2 217.118 114.17 217.092 114.149C217.064 114.13 217.03 114.122 216.998 114.128C216.965 114.135 216.936 114.154 216.916 114.182Z" fill="white"/>
<path d="M221.49 47.4008C223.385 47.4008 224.921 45.8661 224.921 43.9731C224.921 42.08 223.385 40.5454 221.49 40.5454C219.595 40.5454 218.059 42.08 218.059 43.9731C218.059 45.8661 219.595 47.4008 221.49 47.4008Z" fill="#D6CFCF"/>
<path d="M222.634 43.7446H186.494V44.2016H222.634V43.7446Z" fill="#D6CFCF"/>
<path d="M177.344 43.7446H143.949V44.2016H177.344V43.7446Z" fill="#D6CFCF"/>
<path d="M90.882 73.9082C88.7105 73.9082 86.5877 73.2649 84.7822 72.0596C82.9766 70.8544 81.5694 69.1413 80.7384 67.1371C79.9074 65.1328 79.69 62.9274 80.1136 60.7997C80.5372 58.672 81.5829 56.7176 83.1184 55.1836C84.6539 53.6496 86.6102 52.605 88.74 52.1818C90.8698 51.7585 93.0774 51.9758 95.0836 52.8059C97.0898 53.6361 98.8045 55.042 100.011 56.8458C101.217 58.6495 101.861 60.7702 101.861 62.9396C101.858 65.8476 100.7 68.6356 98.6419 70.6919C96.5836 72.7482 93.7929 73.9049 90.882 73.9082Z" fill="#485BC1"/>
<path d="M88.7037 64.3107C88.5174 64.3106 88.3388 64.234 88.2071 64.0976L84.2268 59.9764C84.1613 59.9089 84.1093 59.8287 84.0738 59.7404C84.0383 59.6521 84.02 59.5574 84.0199 59.4617C84.0198 59.3661 84.0379 59.2714 84.0732 59.183C84.1085 59.0946 84.1603 59.0143 84.2256 58.9466C84.291 58.879 84.3685 58.8254 84.4539 58.7888C84.5393 58.7523 84.6308 58.7335 84.7231 58.7337C84.8155 58.7338 84.907 58.7528 84.9923 58.7895C85.0775 58.8263 85.155 58.8801 85.2201 58.948L88.7037 62.555L95.6311 55.3821C95.7629 55.2462 95.9414 55.17 96.1275 55.1702C96.3135 55.1704 96.4919 55.247 96.6234 55.3832C96.755 55.5194 96.8289 55.704 96.8291 55.8967C96.8293 56.0893 96.7557 56.2741 96.6244 56.4106L89.2004 64.0976C89.0687 64.234 88.89 64.3106 88.7037 64.3107Z" fill="white"/>
<path d="M60.0026 83.0486C59.0526 83.0486 58.1238 82.7672 57.3339 82.2399C56.544 81.7126 55.9283 80.9631 55.5648 80.0863C55.2012 79.2094 55.1061 78.2446 55.2914 77.3137C55.4768 76.3828 55.9343 75.5278 56.606 74.8567C57.2778 74.1855 58.1337 73.7285 59.0655 73.5433C59.9973 73.3582 60.9631 73.4532 61.8408 73.8164C62.7185 74.1796 63.4687 74.7947 63.9965 75.5838C64.5243 76.373 64.806 77.3008 64.806 78.2499C64.8046 79.5221 64.2981 80.7419 63.3976 81.6415C62.497 82.5412 61.2761 83.0472 60.0026 83.0486Z" fill="#485BC1"/>
<path d="M59.0876 82.1346C58.1376 82.1346 57.2089 81.8531 56.419 81.3259C55.6291 80.7986 55.0134 80.0491 54.6498 79.1722C54.2863 78.2954 54.1911 77.3305 54.3765 76.3996C54.5618 75.4688 55.0193 74.6137 55.6911 73.9426C56.3629 73.2715 57.2188 72.8144 58.1505 72.6293C59.0823 72.4441 60.0481 72.5392 60.9258 72.9024C61.8036 73.2656 62.5538 73.8806 63.0816 74.6698C63.6094 75.4589 63.8911 76.3867 63.8911 77.3358C63.8897 78.6081 63.3831 79.8278 62.4826 80.7275C61.5821 81.6271 60.3612 82.1331 59.0876 82.1346ZM59.0876 72.9544C58.2202 72.9544 57.3723 73.2113 56.651 73.6928C55.9298 74.1742 55.3677 74.8585 55.0357 75.6591C54.7038 76.4597 54.6169 77.3407 54.7861 78.1906C54.9554 79.0405 55.3731 79.8212 55.9864 80.434C56.5998 81.0468 57.3813 81.4641 58.232 81.6331C59.0828 81.8022 59.9646 81.7154 60.766 81.3838C61.5674 81.0522 62.2524 80.4906 62.7343 79.77C63.2162 79.0495 63.4734 78.2024 63.4734 77.3358C63.4721 76.1742 63.0096 75.0605 62.1874 74.2391C61.3652 73.4177 60.2504 72.9557 59.0876 72.9544Z" fill="#3F3D56"/>
<path d="M59.0361 78.9354C58.9562 78.9354 58.8797 78.9009 58.8232 78.8396L57.1177 76.9854C57.0896 76.9551 57.0674 76.919 57.0521 76.8793C57.0369 76.8395 57.0291 76.7969 57.029 76.7539C57.029 76.7109 57.0367 76.6682 57.0519 76.6285C57.067 76.5887 57.0892 76.5526 57.1172 76.5221C57.1452 76.4917 57.1784 76.4676 57.215 76.4511C57.2516 76.4347 57.2908 76.4263 57.3304 76.4263C57.37 76.4264 57.4092 76.4349 57.4457 76.4515C57.4822 76.468 57.5154 76.4922 57.5433 76.5227L59.0361 78.1455L62.0045 74.9185C62.0324 74.888 62.0656 74.8638 62.1022 74.8473C62.1387 74.8308 62.1779 74.8222 62.2174 74.8222C62.257 74.8222 62.2962 74.8306 62.3328 74.847C62.3693 74.8635 62.4025 74.8876 62.4305 74.918C62.4585 74.9484 62.4807 74.9846 62.4958 75.0243C62.511 75.0641 62.5187 75.1067 62.5187 75.1497C62.5186 75.1927 62.5108 75.2353 62.4956 75.275C62.4804 75.3147 62.4581 75.3508 62.4301 75.3812L59.2489 78.8396C59.1925 78.9009 59.1159 78.9354 59.0361 78.9354Z" fill="white"/>
<path d="M183.063 49.6859C182.113 49.6859 181.184 49.4044 180.394 48.8772C179.604 48.3499 178.988 47.6004 178.625 46.7235C178.261 45.8467 178.166 44.8818 178.352 43.951C178.537 43.0201 178.994 42.165 179.666 41.4939C180.338 40.8228 181.194 40.3658 182.126 40.1806C183.057 39.9954 184.023 40.0905 184.901 40.4537C185.779 40.8169 186.529 41.4319 187.057 42.2211C187.584 43.0103 187.866 43.938 187.866 44.8871C187.865 46.1594 187.358 47.3792 186.458 48.2788C185.557 49.1784 184.336 49.6845 183.063 49.6859Z" fill="#707070"/>
<path d="M182.148 48.7718C181.198 48.7718 180.269 48.4904 179.479 47.9631C178.689 47.4358 178.073 46.6864 177.71 45.8095C177.346 44.9326 177.251 43.9678 177.437 43.0369C177.622 42.106 178.079 41.251 178.751 40.5799C179.423 39.9088 180.279 39.4517 181.211 39.2666C182.142 39.0814 183.108 39.1764 183.986 39.5396C184.864 39.9028 185.614 40.5179 186.142 41.3071C186.669 42.0962 186.951 43.024 186.951 43.9731C186.95 45.2454 186.443 46.4651 185.543 47.3647C184.642 48.2644 183.421 48.7704 182.148 48.7718ZM182.148 39.5916C181.28 39.5916 180.432 39.8486 179.711 40.33C178.99 40.8115 178.428 41.4958 178.096 42.2964C177.764 43.097 177.677 43.978 177.846 44.8279C178.015 45.6778 178.433 46.4585 179.047 47.0713C179.66 47.684 180.441 48.1013 181.292 48.2704C182.143 48.4394 183.025 48.3527 183.826 48.021C184.627 47.6894 185.312 47.1278 185.794 46.4073C186.276 45.6868 186.533 44.8397 186.533 43.9731C186.532 42.8115 186.07 41.6978 185.247 40.8764C184.425 40.055 183.311 39.5929 182.148 39.5916Z" fill="#CACACA"/>
<path d="M126.565 65.2247C121.769 65.2247 117.082 63.8041 113.094 61.1425C109.107 58.4809 106 54.6979 104.164 50.2719C102.329 45.8459 101.849 40.9756 102.785 36.2769C103.72 31.5783 106.029 27.2622 109.42 23.8747C112.811 20.4872 117.131 18.1802 121.835 17.2456C126.538 16.311 131.413 16.7907 135.843 18.624C140.274 20.4573 144.06 23.5619 146.725 27.5453C149.389 31.5286 150.811 36.2117 150.811 41.0024C150.804 47.4244 148.247 53.5812 143.701 58.1222C139.156 62.6632 132.993 65.2175 126.565 65.2247Z" fill="#485BC1"/>
<path d="M189.53 130.579L186.951 130.181L187.262 120.068L191.068 120.655L189.53 130.579Z" fill="#E0B7BD"/>
<path d="M190.076 133.321L181.462 131.91L181.478 131.795C181.616 130.853 182.101 130.008 182.827 129.445C183.553 128.882 184.46 128.648 185.35 128.793L190.611 129.655L190.076 133.321Z" fill="#020024"/>
<path d="M216.687 130.464L214.177 130.579L212.57 120.237L216.275 120.068L216.687 130.464Z" fill="#E0B7BD"/>
<path d="M217.602 132.927L208.918 133.321L208.913 133.204C208.875 132.249 209.194 131.317 209.801 130.612C210.408 129.908 211.253 129.49 212.149 129.449L217.453 129.208L217.602 132.927Z" fill="#020024"/>
<path d="M211.855 70.6465C211.978 70.6119 212.104 70.5884 212.231 70.5764L210.608 57.2679L205.1 45.5847C204.753 44.8498 204.698 44.0105 204.945 43.2363C205.192 42.4621 205.723 41.8105 206.43 41.4129C207.138 41.0153 207.97 40.9013 208.758 41.0939C209.547 41.2866 210.233 41.7715 210.678 42.4508C212.122 44.6524 213.214 47.0659 213.915 49.6045L216.229 57.9848L214.537 72.3562C214.602 72.7613 214.549 73.1765 214.384 73.5519C214.218 73.9273 213.948 74.247 213.606 74.4723C213.264 74.6977 212.864 74.8191 212.454 74.8221C212.045 74.8251 211.643 74.7095 211.297 74.4892C210.952 74.2689 210.677 73.9533 210.507 73.5804C210.336 73.2074 210.276 72.793 210.335 72.387C210.394 71.9811 210.569 71.6008 210.839 71.292C211.109 70.9832 211.462 70.759 211.855 70.6465Z" fill="#E0B7BD"/>
<path d="M203.691 45.5717C203.294 44.4901 203.335 43.2959 203.804 42.2441C204.274 41.1922 205.135 40.366 206.204 39.9417C207.272 39.5174 208.464 39.5286 209.525 39.9729C210.585 40.4173 211.43 41.2596 211.88 42.3201L215.314 50.4185L208.382 58.3693L203.691 45.5717Z" fill="#020024"/>
<path d="M198.307 47.1169L202.99 39.2564C206.224 37.1454 208.886 38.5257 210.304 42.1138C211.541 45.2402 212.5 49.1954 211.93 53.2779C210.651 62.4228 209.588 63.4754 209.588 63.4754C209.588 63.4754 217.57 72.2919 215.867 83.5516L217.144 126.041L213.313 125.829L207.992 101.397L203.948 86.101L196.923 104.796L190.751 126.466L186.494 125.616L189.048 101.61L192.666 73.9915L196.817 63.4754L194.795 56.1459C194.795 56.1459 192.454 51.0472 198.307 47.1169Z" fill="#020024"/>
<path d="M182.473 58.0198C182.56 58.114 182.639 58.2157 182.707 58.3237L194.06 50.9584L202.171 40.8516C202.681 40.2158 203.419 39.7932 204.234 39.6692C205.05 39.5451 205.883 39.7288 206.566 40.1832C207.249 40.6375 207.73 41.3287 207.914 42.1174C208.097 42.906 207.968 43.7335 207.553 44.4328C206.209 46.6991 204.513 48.7461 202.525 50.5L195.964 56.29L182.138 61.1714C181.8 61.4094 181.398 61.5464 180.982 61.5661C180.566 61.5857 180.153 61.4871 179.793 61.282C179.433 61.077 179.14 60.7744 178.952 60.4104C178.763 60.0465 178.685 59.6369 178.728 59.2308C178.771 58.8247 178.933 58.4395 179.195 58.1215C179.456 57.8035 179.805 57.5662 180.201 57.4383C180.597 57.3103 181.022 57.2971 181.425 57.4003C181.828 57.5035 182.192 57.7186 182.473 58.0198Z" fill="#E0B7BD"/>
<path d="M201.554 39.6677C202.362 38.8175 203.475 38.3139 204.654 38.2643C205.832 38.2148 206.984 38.6232 207.863 39.4025C208.741 40.1817 209.278 41.2701 209.357 42.4353C209.436 43.6005 209.053 44.7502 208.287 45.6392L202.445 52.428L191.983 49.7268L201.554 39.6677Z" fill="#020024"/>
<path d="M205.296 35.4748C208.365 33.7987 209.493 29.9544 207.815 26.8882C206.137 23.8221 202.289 22.6953 199.22 24.3714C196.151 26.0475 195.023 29.8918 196.701 32.9579C198.378 36.024 202.226 37.1509 205.296 35.4748Z" fill="#E0B7BD"/>
<path d="M201.333 22.2645H205.425C208.108 22.2645 210.282 24.6864 210.282 27.674L210.093 34.9205C207.194 35.2775 204.359 36.0281 201.668 37.1513L201.286 35.5367L200.533 37.6631C199.863 37.9845 199.198 38.3359 198.54 38.7173C199.308 35.1418 199.625 31.5745 199.097 28.8034H197.711V27.302L197.241 28.8034H194.728C194.728 27.9447 194.899 27.0944 195.231 26.3011C195.563 25.5077 196.049 24.7869 196.663 24.1797C197.276 23.5725 198.004 23.0908 198.806 22.7622C199.607 22.4336 200.466 22.2645 201.333 22.2645Z" fill="#020024"/>
<path d="M242.55 133.321H161.545C161.489 133.321 161.435 133.297 161.395 133.254C161.355 133.211 161.333 133.153 161.333 133.093C161.333 133.032 161.355 132.974 161.395 132.931C161.435 132.888 161.489 132.864 161.545 132.864H242.55C242.607 132.864 242.661 132.888 242.701 132.931C242.74 132.974 242.763 133.032 242.763 133.093C242.763 133.153 242.74 133.211 242.701 133.254C242.661 133.297 242.607 133.321 242.55 133.321Z" fill="#CACACA"/>
<path d="M99.8027 109.099C99.742 109.099 99.6838 109.077 99.6409 109.037C99.598 108.997 99.5739 108.943 99.5739 108.887V85.0892C99.5739 85.0328 99.598 84.9788 99.6409 84.939C99.6838 84.8991 99.742 84.8767 99.8027 84.8767C99.8633 84.8767 99.9215 84.8991 99.9644 84.939C100.007 84.9788 100.031 85.0328 100.031 85.0892V108.887C100.031 108.943 100.007 108.997 99.9644 109.037C99.9215 109.077 99.8633 109.099 99.8027 109.099Z" fill="#3F3D56"/>
<path d="M84.9027 112.755C84.5472 112.755 84.2063 112.9 83.955 113.157C83.7036 113.414 83.5624 113.763 83.5624 114.126C83.5624 114.49 83.7036 114.839 83.955 115.096C84.2063 115.353 84.5472 115.497 84.9027 115.497H114.705C115.06 115.497 115.4 115.352 115.651 115.095C115.902 114.838 116.043 114.489 116.043 114.126C116.043 113.763 115.902 113.415 115.651 113.158C115.4 112.901 115.06 112.756 114.705 112.755H84.9027Z" fill="#D6CFCF"/>
<path d="M92.717 119.154C92.5365 119.153 92.3576 119.188 92.1907 119.257C92.0238 119.325 91.872 119.426 91.7441 119.553C91.6162 119.68 91.5146 119.831 91.4452 119.997C91.3758 120.163 91.3398 120.342 91.3394 120.522C91.3391 120.702 91.3742 120.88 91.443 121.047C91.5117 121.213 91.6126 121.364 91.74 121.492C91.8674 121.62 92.0187 121.721 92.1854 121.79C92.352 121.859 92.5307 121.895 92.7112 121.896H106.891C107.256 121.896 107.606 121.751 107.863 121.494C108.121 121.237 108.266 120.888 108.266 120.525C108.266 120.161 108.121 119.812 107.863 119.555C107.606 119.298 107.256 119.154 106.891 119.154H92.717Z" fill="#D6CFCF"/>
<path d="M124.722 76.6503C124.361 76.6503 124.016 76.7948 123.761 77.0519C123.506 77.309 123.363 77.6577 123.363 78.0214C123.363 78.385 123.506 78.7337 123.761 78.9909C124.016 79.248 124.361 79.3924 124.722 79.3924H154.944C155.304 79.3918 155.649 79.2471 155.903 78.99C156.158 78.7329 156.301 78.3846 156.301 78.0214C156.301 77.6582 156.158 77.3098 155.903 77.0527C155.649 76.7957 155.304 76.6509 154.944 76.6503H124.722Z" fill="#D6CFCF"/>
<path d="M132.937 83.0486C132.762 83.0482 132.588 83.0833 132.425 83.1519C132.263 83.2204 132.115 83.3211 131.991 83.4482C131.866 83.5752 131.767 83.7261 131.7 83.8923C131.632 84.0585 131.597 84.2368 131.597 84.4168C131.597 84.5969 131.631 84.7752 131.698 84.9417C131.765 85.1082 131.863 85.2596 131.987 85.3872C132.111 85.5147 132.258 85.616 132.42 85.6853C132.582 85.7545 132.756 85.7904 132.932 85.7908H146.729C147.083 85.7908 147.423 85.6463 147.674 85.3892C147.925 85.1321 148.066 84.7833 148.066 84.4197C148.066 84.0561 147.925 83.7073 147.674 83.4502C147.423 83.1931 147.083 83.0486 146.729 83.0486H132.937Z" fill="#D6CFCF"/>
<g filter="url(#filter0_d_1832_5739)">
<path d="M131.58 43.0871C131.509 43.2508 131.429 43.4119 131.342 43.5703C130.627 44.8567 129.431 45.8077 128.017 46.2147C126.603 46.6218 125.085 46.4516 123.798 45.7416L121.474 44.4562L121.91 43.6692L124.234 44.9546C124.768 45.2503 125.356 45.4378 125.962 45.5064C126.569 45.575 127.184 45.5235 127.771 45.3547C128.358 45.1858 128.906 44.903 129.384 44.5224C129.862 44.1419 130.261 43.6709 130.557 43.1366C130.853 42.6022 131.041 42.0149 131.111 41.4082C131.18 40.8014 131.129 40.1872 130.96 39.6006C130.792 39.0139 130.509 38.4663 130.129 37.9891C129.749 37.5119 129.278 37.1144 128.744 36.8193L118.983 31.4213C118.449 31.1261 117.862 30.9389 117.255 30.8706C116.649 30.8022 116.034 30.854 115.447 31.0229C114.86 31.1918 114.312 31.4746 113.835 31.8551C113.357 32.2357 112.958 32.7064 112.662 33.2406C112.366 33.7748 112.178 34.3619 112.109 34.9684C112.04 35.5749 112.091 36.1889 112.259 36.7754C112.427 37.3619 112.709 37.9094 113.089 38.3866C113.469 38.8638 113.94 39.2614 114.473 39.5566L117.929 41.4678L117.493 42.2548L114.037 40.3437C112.751 39.6317 111.8 38.4377 111.395 37.0242C110.99 35.6107 111.163 34.0935 111.877 32.8062C112.591 31.519 113.786 30.567 115.2 30.1597C116.615 29.7524 118.132 29.9231 119.419 30.6343L129.18 36.0323C130.386 36.699 131.299 37.7907 131.743 39.0948C132.186 40.3989 132.128 41.822 131.58 43.0871Z" fill="white" stroke="white"/>
<path d="M138.901 52.9716C138.831 53.1331 138.752 53.2923 138.665 53.4493C137.95 54.7356 136.755 55.6866 135.341 56.0937C133.926 56.5008 132.409 56.3306 131.122 55.6206L121.361 50.2226C120.074 49.5109 119.123 48.3169 118.718 46.9032C118.312 45.4895 118.486 43.9719 119.199 42.6844C119.913 41.3969 121.109 40.4448 122.523 40.0376C123.938 39.6305 125.456 39.8016 126.743 40.5133L129.307 41.9314L128.871 42.7184L126.306 41.3003C125.772 41.0051 125.185 40.8179 124.579 40.7495C123.972 40.6812 123.358 40.7329 122.771 40.9019C122.184 41.0708 121.636 41.3536 121.158 41.7341C120.68 42.1146 120.282 42.5854 119.986 43.1196C119.69 43.6538 119.502 44.2409 119.433 44.8474C119.363 45.4539 119.414 46.0679 119.583 46.6544C119.751 47.2409 120.033 47.7884 120.413 48.2656C120.793 48.7428 121.263 49.1404 121.797 49.4356L131.558 54.8336C132.092 55.1292 132.679 55.3167 133.286 55.3854C133.893 55.454 134.507 55.4025 135.095 55.2336C135.682 55.0648 136.23 54.782 136.708 54.4014C137.186 54.0208 137.585 53.5499 137.881 53.0155C138.177 52.4812 138.365 51.8939 138.434 51.2871C138.503 50.6804 138.452 50.0662 138.284 49.4795C138.115 48.8929 137.833 48.3453 137.453 47.8681C137.072 47.3909 136.602 46.9933 136.067 46.6983L132.708 44.8402L133.144 44.0532L136.504 45.9113C137.709 46.5797 138.622 47.6726 139.065 48.9775C139.508 50.2823 139.45 51.7059 138.901 52.9716Z" fill="white" stroke="white"/>
</g>
<defs>
<filter id="filter0_d_1832_5739" x="106.681" y="29.4426" width="37.1785" height="35.3682" filterUnits="userSpaceOnUse" color-interpolation-filters="sRGB">
<feFlood flood-opacity="0" result="BackgroundImageFix"/>
<feColorMatrix in="SourceAlpha" type="matrix" values="0 0 0 0 0 0 0 0 0 0 0 0 0 0 0 0 0 0 127 0" result="hardAlpha"/>
<feOffset dy="4"/>
<feGaussianBlur stdDeviation="2"/>
<feComposite in2="hardAlpha" operator="out"/>
<feColorMatrix type="matrix" values="0 0 0 0 0 0 0 0 0 0 0 0 0 0 0 0 0 0 0.25 0"/>
<feBlend mode="normal" in2="BackgroundImageFix" result="effect1_dropShadow_1832_5739"/>
<feBlend mode="normal" in="SourceGraphic" in2="effect1_dropShadow_1832_5739" result="shape"/>
</filter>
<clipPath id="clip0_1832_5739">
<rect width="54.0958" height="109.5" fill="white" transform="translate(0.204346 0.678711)"/>
</clipPath>
</defs>
</svg>
