<svg width="198" height="102" viewBox="0 0 198 102" fill="none" xmlns="http://www.w3.org/2000/svg">
<g clip-path="url(#clip0_1750_4068)">
<path d="M148.258 8.76621C148.014 8.04491 144.945 5.59301 146.825 5.1809L148.367 7.23347L155.457 0.15625L156.17 0.868055L148.258 8.76621Z" fill="#485BC1"/>
<path d="M148.258 32.8316C148.014 32.1103 144.945 29.6584 146.825 29.2463L148.367 31.2989L155.457 24.2217L156.17 24.9335L148.258 32.8316Z" fill="#485BC1"/>
<path d="M148.258 57.2408C148.014 56.5195 144.945 54.0676 146.825 53.6555L148.367 55.7081L155.457 48.6309L156.17 49.3427L148.258 57.2408Z" fill="#485BC1"/>
<path d="M141.729 37.506C142.937 37.506 143.916 36.5283 143.916 35.3221C143.916 34.116 142.937 33.1382 141.729 33.1382C140.52 33.1382 139.541 34.116 139.541 35.3221C139.541 36.5283 140.52 37.506 141.729 37.506Z" fill="#A0A0A0"/>
<path d="M141.729 13.7013C142.937 13.7013 143.916 12.7236 143.916 11.5174C143.916 10.3113 142.937 9.3335 141.729 9.3335C140.52 9.3335 139.541 10.3113 139.541 11.5174C139.541 12.7236 140.52 13.7013 141.729 13.7013Z" fill="#A0A0A0"/>
<path d="M197.842 6.49463H162.621V6.93141H197.842V6.49463Z" fill="#A0A0A0"/>
<path d="M142.822 62.882C144.031 62.882 145.01 61.9042 145.01 60.6981C145.01 59.4919 144.031 58.5142 142.822 58.5142C141.614 58.5142 140.635 59.4919 140.635 60.6981C140.635 61.9042 141.614 62.882 142.822 62.882Z" fill="#A0A0A0"/>
<path d="M197.842 30.5605H162.621V30.9973H197.842V30.5605Z" fill="#A0A0A0"/>
<path d="M197.842 54.9697H162.621V55.4065H197.842V54.9697Z" fill="#A0A0A0"/>
<path d="M153.782 60.4945H142.844V49.3564H150.282V49.7932H143.281V60.0577H153.344V55.0346H153.782V60.4945Z" fill="#A0A0A0"/>
<path d="M153.782 36.0345H142.844V24.8965H150.282V25.3333H143.281V35.5977H153.344V30.5747H153.782V36.0345Z" fill="#A0A0A0"/>
<path d="M153.782 11.138H142.844V0H150.282V0.436785H143.281V10.7012H153.344V5.6782H153.782V11.138Z" fill="#A0A0A0"/>
<path d="M6.27362 67.8234C7.25408 57.8326 13.18 47.8596 22.6089 44.3713C19.1247 54.719 19.4192 65.9635 23.4402 76.1154C25.0052 80.0249 27.1536 84.2106 25.8824 88.2249C25.0915 90.7228 23.048 92.6713 20.7394 93.9165C18.4306 95.1616 15.8488 95.7937 13.2991 96.4136L12.8054 96.8434C8.49534 87.7736 5.29316 77.8141 6.27362 67.8234Z" fill="#383F49"/>
<path d="M22.7074 44.5568C17.3837 50.8298 14.033 58.8413 13.4471 67.0544C13.3205 68.8301 13.3468 70.6424 13.7802 72.3781C14.2157 74.0667 15.0962 75.608 16.3302 76.842C17.4576 78.0157 18.747 79.0859 19.5691 80.5127C20.4355 82.0166 20.5125 83.7491 19.989 85.3841C19.3484 87.3847 18.0259 89.0361 16.6764 90.6063C15.1781 92.3496 13.5941 94.1367 12.9973 96.4117C12.9249 96.6873 12.5007 96.5592 12.5729 96.284C13.6113 92.3258 17.373 89.995 19.1023 86.4093C19.9093 84.7361 20.216 82.81 19.3736 81.0879C18.6369 79.582 17.3082 78.4773 16.1564 77.2988C14.9469 76.0614 14.0086 74.6936 13.5001 73.0268C12.98 71.3217 12.8826 69.5067 12.9632 67.7356C13.1761 63.7207 14.0199 59.7642 15.4639 56.0111C17.0881 51.7185 19.4358 47.7349 22.4056 44.2327C22.5895 44.016 22.8901 44.3415 22.7074 44.5568L22.7074 44.5568Z" fill="#5C5C5C"/>
<path d="M13.4935 64.3742C12.1158 64.078 10.8884 63.3026 10.0306 62.1864C9.17272 61.0702 8.74023 59.6859 8.81034 58.2808C8.81372 58.2235 8.83924 58.1698 8.88153 58.1309C8.92382 58.0921 8.97957 58.0711 9.03703 58.0725C9.09449 58.0739 9.14917 58.0974 9.18956 58.1383C9.22994 58.1791 9.25287 58.234 9.25351 58.2914C9.1858 59.5997 9.58879 60.8891 10.3898 61.9269C11.1907 62.9646 12.3369 63.6824 13.6214 63.9506C13.9005 64.0092 13.7709 64.4324 13.4935 64.3742Z" fill="#5C5C5C"/>
<path d="M15.6792 76.3218C18.1133 74.7836 19.8772 72.386 20.6193 69.6071C20.6925 69.3317 21.1168 69.4598 21.0436 69.7348C20.266 72.6252 18.4253 75.1165 15.8888 76.7117C15.6469 76.8636 15.4387 76.4729 15.6792 76.3218Z" fill="#5C5C5C"/>
<path d="M17.5087 52.1269C18.0179 52.3524 18.5751 52.4481 19.1305 52.4055C19.6858 52.3628 20.2219 52.1831 20.6905 51.8825C20.9303 51.7277 21.1383 52.1185 20.9 52.2724C20.3808 52.6021 19.7885 52.7998 19.1751 52.8483C18.5616 52.8968 17.9456 52.7945 17.3808 52.5505C17.3256 52.532 17.2796 52.4932 17.2521 52.442C17.2246 52.3908 17.2176 52.331 17.2326 52.2749C17.2498 52.2189 17.2885 52.1719 17.3402 52.1442C17.3919 52.1165 17.4525 52.1103 17.5087 52.1269H17.5087Z" fill="#5C5C5C"/>
<path d="M52.0699 61.4033C51.9229 61.5043 51.7759 61.6052 51.6288 61.7099C49.6596 63.0773 47.805 64.6022 46.0831 66.2695C45.9479 66.3962 45.8129 66.5268 45.6816 66.6572C41.5762 70.7181 38.2617 75.5047 35.9066 80.7736C34.9714 82.871 34.1973 85.0365 33.5912 87.2512C32.7543 90.3098 32.0907 93.6927 30.342 96.2222C30.1625 96.4882 29.9667 96.7428 29.7557 96.9845L13.3669 97.4111C13.3292 97.3934 13.2913 97.3795 13.2534 97.3618L12.5999 97.4087C12.6231 97.2923 12.6498 97.172 12.673 97.0556C12.6862 96.988 12.7031 96.9204 12.7163 96.8528C12.7263 96.8077 12.7365 96.7626 12.7429 96.7214C12.7461 96.7063 12.7496 96.6913 12.7529 96.68C12.7593 96.6388 12.7697 96.6011 12.7762 96.5636C12.9232 95.8912 13.0753 95.2186 13.2323 94.5458C13.2322 94.5421 13.2322 94.5421 13.2358 94.5383C14.4454 89.4155 16.094 84.3485 18.4606 79.6924C18.5318 79.5523 18.6028 79.4085 18.6816 79.2683C19.76 77.1754 21.0079 75.1741 22.413 73.2842C23.1856 72.2519 24.0102 71.2592 24.8834 70.3101C27.1444 67.862 29.7771 65.7842 32.6849 64.1529C38.482 60.9016 45.2562 59.5375 51.5875 61.2665C51.7494 61.3108 51.9079 61.3553 52.0699 61.4033Z" fill="#383F49"/>
<path d="M52.0395 61.6119C44.0057 63.4208 36.4987 67.8035 31.0776 74.0092C29.9056 75.3508 28.8337 76.8136 28.133 78.46C27.4623 80.07 27.2357 81.8299 27.4768 83.5569C27.6692 85.1716 28.0533 86.8011 27.8491 88.4344C27.6339 90.156 26.6506 91.5855 25.2465 92.5764C23.5285 93.7887 21.4766 94.3124 19.4522 94.7549C17.2044 95.2463 14.862 95.7211 13.0134 97.1789C12.7894 97.3555 12.528 96.9982 12.7516 96.8219C15.9678 94.2856 20.377 94.6855 23.9203 92.862C25.5737 92.011 26.9802 90.6575 27.3461 88.7762C27.6661 87.1311 27.2715 85.4504 27.0625 83.8171C26.8431 82.1021 26.9189 80.446 27.5181 78.8096C28.1311 77.1356 29.148 75.6278 30.2805 74.2622C32.8718 71.1845 35.9316 68.5326 39.348 66.4038C43.2337 63.9527 47.5107 62.1831 51.994 61.1717C52.2715 61.1093 52.3152 61.5498 52.0395 61.6119Z" fill="#5C5C5C"/>
<path d="M32.7331 71.899C31.8117 70.8345 31.2994 69.4777 31.2876 68.0709C31.2758 66.664 31.7653 65.2988 32.6687 64.2191C32.8522 64.0012 33.2 64.2757 33.0162 64.4938C32.1731 65.4978 31.7172 66.7695 31.7309 68.0795C31.7445 69.3895 32.2268 70.6515 33.0907 71.6377C33.2782 71.8522 32.9195 72.1123 32.7331 71.899Z" fill="#5C5C5C"/>
<path d="M27.2697 82.7512C30.1409 82.986 32.9953 82.1319 35.2636 80.3591C35.4882 80.1833 35.7497 80.5405 35.5254 80.7161C33.1614 82.5565 30.1892 83.4394 27.2019 83.1885C26.9172 83.1643 26.9865 82.7272 27.2697 82.7512H27.2697Z" fill="#5C5C5C"/>
<path d="M43.3239 64.5317C43.5944 65.0178 43.9816 65.4291 44.4508 65.7289C44.9199 66.0286 45.4563 66.2073 46.0117 66.249C46.2966 66.2695 46.2269 66.7066 45.9439 66.6862C45.3305 66.6373 44.7384 66.4392 44.2193 66.1092C43.7002 65.7792 43.27 65.3273 42.9663 64.793C42.9334 64.7451 42.9201 64.6864 42.929 64.629C42.9379 64.5716 42.9683 64.5197 43.0142 64.4839C43.0617 64.4495 43.1209 64.4353 43.1789 64.4442C43.2369 64.4532 43.289 64.4846 43.3239 64.5317Z" fill="#5C5C5C"/>
<path d="M124.664 97.1093H0.00219727V97.5986H124.664V97.1093Z" fill="#5E5E5E"/>
<rect x="46.0957" y="3.99951" width="87.6905" height="48.9306" transform="rotate(13.4615 46.0957 3.99951)" fill="#485BC1"/>
<path d="M47.7822 8.37601L38.6328 47.2588L117.043 65.6872L126.192 26.8044L47.7822 8.37601Z" fill="#485BC1"/>
<path d="M59.6115 38.9489L47.0211 35.9898C46.6491 35.9024 46.2635 35.889 45.8864 35.9503C45.5093 36.0116 45.148 36.1465 44.8231 36.3473C44.4983 36.5481 44.2163 36.8108 43.9932 37.1204C43.7701 37.4301 43.6103 37.7806 43.5229 38.152C43.4355 38.5233 43.4222 38.9083 43.4839 39.2848C43.5455 39.6614 43.6808 40.0222 43.8821 40.3466C44.0833 40.671 44.3466 40.9527 44.6569 41.1756C44.9671 41.3985 45.3183 41.5582 45.6903 41.6457L58.2807 44.6047C59.032 44.7813 59.8226 44.6527 60.4787 44.2472C61.1347 43.8418 61.6024 43.1926 61.7789 42.4426C61.9554 41.6926 61.8262 40.9032 61.4197 40.248C61.0133 39.5928 60.3628 39.1255 59.6115 38.9489Z" fill="#485BC1"/>
<path d="M123.65 22.4993L53.0602 5.90821C52.2391 5.71535 51.3881 5.68583 50.5558 5.82133C49.7235 5.95683 48.9261 6.25469 48.2092 6.69791C47.4924 7.14113 46.8701 7.72104 46.3778 8.4045C45.8855 9.08797 45.533 9.86162 45.3402 10.6813L37.2599 45.012C36.8707 46.6678 37.1561 48.4106 38.0534 49.857C38.9507 51.3034 40.3865 52.3352 42.045 52.7254L112.635 69.3165C113.456 69.5094 114.307 69.5389 115.14 69.4034C115.972 69.2679 116.769 68.97 117.486 68.5268C118.203 68.0836 118.825 67.5037 119.318 66.8202C119.81 66.1367 120.162 65.3631 120.355 64.5434L128.035 31.9134L128.191 31.2466L128.435 30.2093C128.628 29.3896 128.657 28.54 128.521 27.7089C128.385 26.8779 128.086 26.0817 127.642 25.3657C127.197 24.6498 126.616 24.0282 125.931 23.5364C125.246 23.0445 124.471 22.6922 123.65 22.4993ZM116.901 52.4121L115.57 58.068C115.332 59.0665 114.708 59.9302 113.833 60.4701C112.959 61.0101 111.906 61.1824 110.905 60.9495L101.461 58.7308C100.461 58.4928 99.5954 57.8691 99.0541 56.9961C98.5128 56.1231 98.3396 55.0718 98.5725 54.0721L99.9037 48.4161C100.142 47.4178 100.766 46.5544 101.64 46.0145C102.514 45.4746 103.567 45.3021 104.569 45.5346L114.009 47.7537C115.009 47.9921 115.875 48.6156 116.416 49.4883C116.958 50.361 117.132 51.412 116.901 52.4121ZM42.9006 38.002C43.1169 37.0869 43.688 36.295 44.4886 35.8001C45.2891 35.3052 46.2538 35.1476 47.171 35.362L59.7608 38.3216C60.2157 38.4278 60.6452 38.6223 61.0249 38.8942C61.4045 39.1661 61.7268 39.51 61.9734 39.9063C62.2199 40.3025 62.3858 40.7434 62.4616 41.2036C62.5374 41.6638 62.5217 42.1344 62.4153 42.5884C62.3088 43.0424 62.1138 43.471 61.8414 43.8497C61.5689 44.2284 61.2244 44.5497 60.8274 44.7953C60.4305 45.0409 59.9889 45.206 59.5279 45.2811C59.0669 45.3562 58.5956 45.3399 58.1408 45.233L58.134 45.2337L45.5442 42.274C45.0895 42.1671 44.6604 41.9717 44.2813 41.699C43.9023 41.4263 43.5808 41.0817 43.3352 40.6849C43.0897 40.2881 42.9249 39.8469 42.8503 39.3865C42.7757 38.9262 42.7928 38.4557 42.9006 38.002ZM49.9738 10.1027L49.9413 9.73343L50.313 9.75614C50.4587 9.76275 53.8953 9.97909 56.2454 12.2658C58.5956 14.5525 58.8982 17.9782 58.9121 18.1218L58.9412 18.4913L58.5698 18.472C58.0447 18.4309 57.5238 18.3475 57.0121 18.2225C55.3772 17.8729 53.8661 17.0912 52.637 15.959C50.287 13.6723 49.9843 10.2465 49.9738 10.1027Z" fill="#485BC1"/>
<path d="M105.599 54.5644L101.507 53.6027C101.215 53.5346 100.908 53.585 100.653 53.7427C100.398 53.9004 100.217 54.1526 100.148 54.444C100.08 54.7353 100.13 55.0419 100.287 55.2966C100.445 55.5512 100.698 55.7331 100.989 55.8022L105.081 56.7639C105.373 56.832 105.68 56.7816 105.935 56.6239C106.189 56.4661 106.371 56.2139 106.44 55.9226C106.508 55.6312 106.458 55.3246 106.3 55.0699C106.143 54.8153 105.89 54.6335 105.599 54.5644Z" fill="#485BC1"/>
<path d="M113.153 56.3396L109.061 55.3779C108.769 55.3101 108.462 55.3605 108.207 55.5183C107.953 55.676 107.772 55.9282 107.703 56.2194C107.634 56.5106 107.684 56.8171 107.842 57.0717C107.999 57.3262 108.252 57.5081 108.543 57.5774L112.635 58.5391C112.927 58.6069 113.234 58.5564 113.488 58.3987C113.743 58.2409 113.924 57.9888 113.993 57.6976C114.061 57.4064 114.011 57.0999 113.854 56.8453C113.696 56.5908 113.444 56.4089 113.153 56.3396Z" fill="#485BC1"/>
<path d="M106.262 51.7361L102.17 50.7744C101.878 50.7065 101.571 50.757 101.317 50.9148C101.062 51.0725 100.881 51.3246 100.812 51.6159C100.744 51.9071 100.794 52.2136 100.951 52.4681C101.109 52.7227 101.361 52.9046 101.653 52.9739L105.744 53.9356C106.036 54.0037 106.343 53.9533 106.598 53.7956C106.853 53.6379 107.034 53.3856 107.103 53.0943C107.171 52.803 107.121 52.4963 106.964 52.2417C106.806 51.987 106.554 51.8052 106.262 51.7361Z" fill="#485BC1"/>
<path d="M113.817 53.5117L109.726 52.5499C109.434 52.4819 109.127 52.5322 108.872 52.69C108.617 52.8477 108.436 53.0999 108.367 53.3912C108.299 53.6826 108.349 53.9892 108.506 54.2438C108.664 54.4985 108.916 54.6803 109.208 54.7494L113.3 55.7111C113.592 55.7792 113.899 55.7289 114.154 55.5711C114.408 55.4134 114.59 55.1612 114.658 54.8699C114.727 54.5785 114.677 54.2719 114.519 54.0172C114.362 53.7626 114.109 53.5807 113.817 53.5117Z" fill="#485BC1"/>
<path d="M106.927 48.9081L102.835 47.9464C102.543 47.8784 102.236 47.9287 101.981 48.0864C101.727 48.2442 101.545 48.4964 101.476 48.7877C101.408 49.0791 101.458 49.3857 101.616 49.6404C101.773 49.895 102.026 50.0768 102.317 50.1459L106.409 51.1076C106.701 51.1755 107.008 51.125 107.263 50.9672C107.517 50.8095 107.698 50.5574 107.767 50.2662C107.836 49.975 107.786 49.6685 107.628 49.4139C107.471 49.1593 107.218 48.9774 106.927 48.9081Z" fill="#485BC1"/>
<path d="M114.483 50.6838L110.391 49.7221C110.099 49.6543 109.792 49.7048 109.538 49.8625C109.283 50.0203 109.102 50.2724 109.033 50.5636C108.965 50.8548 109.015 51.1613 109.172 51.4159C109.33 51.6705 109.582 51.8524 109.873 51.9216L113.965 52.8833C114.257 52.9512 114.564 52.9007 114.818 52.7429C115.073 52.5852 115.254 52.3331 115.323 52.0419C115.391 51.7507 115.341 51.4442 115.184 51.1896C115.026 50.935 114.774 50.7531 114.483 50.6838Z" fill="#485BC1"/>
<path d="M37.2957 45.3301L37.1387 45.9985L120.006 65.4461L120.164 64.7777L37.2957 45.3301Z" fill="white"/>
<path d="M122.595 28.1039L122.476 28.6127L120.276 28.0966L96.8369 22.596L96.9588 22.0871L120.395 27.5879L122.595 28.1039Z" fill="white"/>
<path d="M121.921 30.5043L121.802 31.0131L119.602 30.497L96.1631 24.9964L96.285 24.4875L119.721 29.9883L121.921 30.5043Z" fill="white"/>
<path d="M121.247 32.8207L121.128 33.3295L118.928 32.8134L95.4893 27.3128L95.6111 26.8039L119.048 32.3047L121.247 32.8207Z" fill="white"/>
<path d="M120.572 35.2206L120.452 35.7294L118.253 35.2133L94.8135 29.7127L94.9353 29.2038L118.372 34.7046L120.572 35.2206Z" fill="white"/>
<path d="M74.6161 30.9935C74.5393 31.1696 74.4537 31.3429 74.3592 31.5134C73.59 32.8971 72.3034 33.9202 70.7818 34.3581C69.2601 34.796 67.6276 34.6129 66.2424 33.8491L63.7414 32.4663L64.211 31.6197L66.712 33.0025C67.2865 33.3206 67.9183 33.5223 68.5712 33.5961C69.2241 33.67 69.8853 33.6145 70.5171 33.4329C71.1489 33.2512 71.7389 32.947 72.2533 32.5376C72.7677 32.1282 73.1965 31.6216 73.5152 31.0467C73.8339 30.4719 74.0363 29.8401 74.1107 29.1874C74.1851 28.5347 74.1301 27.8739 73.9489 27.2428C73.7677 26.6117 73.4638 26.0226 73.0546 25.5092C72.6453 24.9959 72.1388 24.5682 71.5639 24.2508L61.061 18.4439C60.4864 18.1262 59.8548 17.9249 59.2021 17.8513C58.5494 17.7778 57.8884 17.8335 57.2569 18.0152C56.6254 18.1969 56.0357 18.5012 55.5215 18.9105C55.0073 19.3199 54.5787 19.8263 54.2601 20.401C53.9415 20.9756 53.7392 21.6072 53.6647 22.2596C53.5902 22.9121 53.6451 23.5726 53.826 24.2036C54.007 24.8345 54.3106 25.4235 54.7195 25.9368C55.1283 26.4502 55.6345 26.8779 56.209 27.1955L59.9275 29.2515L59.458 30.0981L55.7394 28.0422C54.3551 27.2763 53.3326 25.9918 52.8968 24.4712C52.4609 22.9507 52.6474 21.3185 53.4152 19.9337C54.183 18.5489 55.4692 17.5248 56.9911 17.0866C58.5129 16.6485 60.1458 16.8321 61.5305 17.5972L72.0335 23.4042C73.3305 24.1214 74.3135 25.2958 74.7909 26.6987C75.2683 28.1016 75.2059 29.6325 74.6161 30.9935Z" fill="white" stroke="white" stroke-width="0.806897"/>
<path d="M82.4935 41.6272C82.4178 41.801 82.3332 41.9723 82.2397 42.1412C81.4705 43.5249 80.1839 44.548 78.6622 44.9859C77.1405 45.4238 75.508 45.2408 74.1228 44.477L63.6199 38.67C62.2351 37.9044 61.2121 36.6198 60.7759 35.099C60.3397 33.5782 60.5261 31.9457 61.2941 30.5606C62.062 29.1755 63.3486 28.1513 64.8708 27.7133C66.393 27.2753 68.0262 27.4594 69.411 28.225L72.17 29.7505L71.7005 30.5972L68.9414 29.0717C68.3669 28.754 67.7352 28.5527 67.0825 28.4792C66.4298 28.4056 65.7689 28.4613 65.1373 28.643C64.5058 28.8248 63.9161 29.129 63.4019 29.5383C62.8877 29.9477 62.4591 30.4541 62.1405 31.0288C61.8219 31.6034 61.6196 32.235 61.5452 32.8875C61.4707 33.5399 61.5255 34.2005 61.7065 34.8314C61.8874 35.4623 62.191 36.0513 62.5999 36.5646C63.0088 37.078 63.5149 37.5057 64.0894 37.8234L74.5924 43.6303C75.1669 43.9484 75.7987 44.1501 76.4516 44.2239C77.1045 44.2978 77.7657 44.2423 78.3975 44.0607C79.0293 43.879 79.6193 43.5748 80.1337 43.1654C80.6482 42.756 81.077 42.2494 81.3957 41.6745C81.7144 41.0997 81.9167 40.4679 81.9911 39.8152C82.0655 39.1625 82.0106 38.5017 81.8293 37.8706C81.6481 37.2395 81.3442 36.6504 80.935 36.137C80.5258 35.6237 80.0192 35.196 79.4444 34.8786L75.8291 32.8798L76.2987 32.0332L79.9139 34.032C81.2106 34.7511 82.1928 35.9268 82.6696 37.3305C83.1464 38.7342 83.0836 40.2657 82.4935 41.6272Z" fill="white" stroke="white" stroke-width="0.806897"/>
</g>
<defs>
<clipPath id="clip0_1750_4068">
<rect width="197.841" height="101.796" fill="white"/>
</clipPath>
</defs>
</svg>
