<svg width="30" height="30" viewBox="0 0 30 30" fill="none" xmlns="http://www.w3.org/2000/svg">
<path d="M15.0001 29.2857C22.8899 29.2857 29.2858 22.8898 29.2858 15C29.2858 7.11023 22.8899 0.714294 15.0001 0.714294C7.11029 0.714294 0.714355 7.11023 0.714355 15C0.714355 22.8898 7.11029 29.2857 15.0001 29.2857Z" fill="#4FAC84"/>
<path d="M12.8349 22.4111L6.25007 15.8262C6.16078 15.737 6.16078 15.603 6.25007 15.5137L8.14739 13.6164C8.23668 13.5271 8.37061 13.5271 8.45989 13.6164L12.9911 18.1477L21.5179 9.62089C21.6072 9.5316 21.7411 9.5316 21.8304 9.62089L23.7277 11.5182C23.817 11.6075 23.817 11.7414 23.7277 11.8307L13.1474 22.4111C13.0581 22.5004 12.9242 22.5004 12.8349 22.4111Z" fill="white"/>
</svg>
