<svg width="24" height="24" viewBox="0 0 24 24" fill="none" xmlns="http://www.w3.org/2000/svg">
<path fill-rule="evenodd" clip-rule="evenodd" d="M4 16H4.07089C4.52101 19.1469 7.06414 21.6186 10.2449 21.9597C10.5846 22.5797 11.2432 23 12 23C13.1046 23 14 22.1046 14 21C14 19.8954 13.1046 19 12 19C11.2802 19 10.6491 19.3803 10.2969 19.951C7.86912 19.6093 6.00116 17.5241 6 15.0023L6 15V10L6 9.9968C6.00173 6.68456 8.68736 4 12 4C15.3121 4 17.9974 6.68368 18 9.99516L18 10V15L18 16H20C21.6569 16 23 14.6569 23 13V11C23 9.34315 21.6569 8 20 8H19.748C18.8599 4.54955 15.7277 2 12 2C8.27232 2 5.14012 4.54955 4.25204 8H4C2.34315 8 1 9.34315 1 11V13C1 14.6569 2.34315 16 4 16Z" fill="currentColor"/>
</svg>
