<svg viewBox="0 0 16 16" fill="none" xmlns="http://www.w3.org/2000/svg">
<path d="M2 14C2 14 2 14 2 13.0003C2 12.0006 3 10.501 8 10.501C13 10.501 14 12.0006 14 13.0003C14 14 14 14 14 14H2Z" fill="currentColor"/>
<path fill-rule="evenodd" clip-rule="evenodd" d="M7.99996 9.9978C10.2091 9.9978 12 8.20743 12 5.9989C12 3.79037 10.2091 2 7.99996 2C5.79082 2 3.99996 3.79037 3.99996 5.9989C3.99996 8.20743 5.79082 9.9978 7.99996 9.9978ZM4.99996 4.85229L7.89369 5.85201L6.99996 6.99861L4.99996 4.85229ZM11 4.85229L8.14867 5.85201L8.99996 6.99861L11 4.85229Z" fill="currentColor"/>
</svg>
