<svg viewBox="0 0 18 18" xmlns="http://www.w3.org/2000/svg" fill="currentColor">
  <path d="M2.03231 8.11224C2.03231 8.11224 9.0567 5.09063 11.4929 4.02664C12.4268 3.60109 15.5938 2.23918 15.5938 2.23918C15.5938 2.23918 17.0556 1.6434 16.9337 3.09036C16.8931 3.6862 16.5683 5.77152 16.2435 8.02713C15.7562 11.219 15.2284 14.7088 15.2284 14.7088C15.2284 14.7088 15.1472 15.6876 14.4569 15.8579C13.7667 16.0281 12.6298 15.2621 12.4268 15.0918C12.2643 14.9642 9.38151 13.049 8.32583 12.1127C8.04159 11.8574 7.71678 11.3467 8.3664 10.7509C9.82815 9.34645 11.5741 7.60157 12.6298 6.49506C13.117 5.98433 13.6042 4.79271 11.5741 6.23966C8.69126 8.32505 5.84903 10.2827 5.84903 10.2827C5.84903 10.2827 5.19936 10.7083 3.98127 10.3253C2.76313 9.94228 1.34201 9.43156 1.34201 9.43156C1.34201 9.43156 0.36759 8.79319 2.03231 8.11224Z" />
</svg>
