<svg width="24" height="24" viewBox="0 0 24 24" fill="none" xmlns="http://www.w3.org/2000/svg">
<path fill-rule="evenodd" clip-rule="evenodd" d="M4.23244 11.0381C9.06328 9.06858 12.2792 7.7599 13.8941 7.12499C18.4903 5.32393 19.4565 5.01296 20.0776 5C20.2156 5 20.5193 5.02591 20.7263 5.1814C20.892 5.31097 20.9334 5.47942 20.961 5.60899C20.9886 5.73856 21.0162 6.01067 20.9886 6.21798C20.7401 8.67986 19.6635 14.6532 19.1114 17.4001C18.8768 18.5663 18.4213 18.955 17.9796 18.9938C17.0135 19.0716 16.2819 18.3978 15.3572 17.8277C13.8941 16.9336 13.0798 16.3765 11.6581 15.4954C10.0156 14.4847 11.0784 13.9276 12.017 13.0205C12.2654 12.7873 16.5028 9.15928 16.5856 8.83535C16.5994 8.79648 16.5994 8.64099 16.5028 8.56325C16.4062 8.4855 16.2681 8.51142 16.1577 8.53733C16.0059 8.56325 13.6871 10.0145 9.1737 12.878C8.51118 13.3056 7.91768 13.5129 7.37939 13.5C6.78588 13.487 5.65409 13.189 4.79834 12.9298C3.76315 12.6189 2.93501 12.4504 3.00402 11.9062C3.04543 11.6212 3.4595 11.3361 4.23244 11.0381Z" fill="currentColor"/>
</svg>
