<svg width="24" height="24" viewBox="0 0 24 24" fill="none" xmlns="http://www.w3.org/2000/svg" fill="currentColor">
<path fill-rule="evenodd" clip-rule="evenodd" d="M11.3204 19.6795L15.2878 15.6782C15.5528 15.411 15.7032 15.0426 15.7032 14.6598L15.7032 7.44451C15.7032 6.65003 15.0586 6 14.2709 6L7.82561 6C7.25269 6 6.73707 6.34668 6.50791 6.87393L4.17329 12.3703C3.57173 13.8003 4.61013 15.3893 6.14984 15.3893L10.196 15.3893L9.5157 18.6972C9.44408 19.0584 9.55151 19.4267 9.80932 19.6867C10.2318 20.1056 10.905 20.1056 11.3204 19.6795ZM18.5677 6C17.78 6 17.1354 6.65003 17.1354 7.44451L17.1354 13.2225C17.1354 14.017 17.78 14.6671 18.5677 14.6671C19.3555 14.6671 20 14.017 20 13.2225L20 7.44451C20 6.65003 19.3555 6 18.5677 6Z" />
</svg>
