<svg width="24" height="24" viewBox="0 0 24 24" fill="none" xmlns="http://www.w3.org/2000/svg" fill="currentColor">
<path fill-rule="evenodd" clip-rule="evenodd" d="M12.6796 5.29761L8.71221 9.01309C8.44723 9.26124 8.29684 9.60328 8.29684 9.95873V16.6587C8.29684 17.3964 8.94137 18 9.72913 18H16.1744C16.7473 18 17.2629 17.6781 17.4921 17.1885L19.8267 12.0847C20.4283 10.7568 19.3899 9.28136 17.8502 9.28136H13.804L14.4843 6.20972C14.5559 5.87438 14.4485 5.53235 14.1907 5.29091C13.7682 4.90192 13.095 4.90192 12.6796 5.29761ZM5.43228 18C6.22004 18 6.86456 17.3964 6.86456 16.6587V11.2934C6.86456 10.5556 6.22004 9.95202 5.43228 9.95202C4.64453 9.95202 4 10.5556 4 11.2934V16.6587C4 17.3964 4.64453 18 5.43228 18Z" />
</svg>
