<svg width="24" height="24" viewBox="0 0 24 24" fill="none" xmlns="http://www.w3.org/2000/svg">
<path d="M3.78947 20.3571C3.78947 20.1866 3.86811 20.0231 4.00809 19.9026C4.14807 19.782 4.33792 19.7143 4.53588 19.7143H19.4641C19.6621 19.7143 19.8519 19.782 19.9919 19.9026C20.1319 20.0231 20.2105 20.1866 20.2105 20.3571C20.2105 20.5276 20.1319 20.6912 19.9919 20.8117C19.8519 20.9323 19.6621 21 19.4641 21H4.53588C4.33792 21 4.14807 20.9323 4.00809 20.8117C3.86811 20.6912 3.78947 20.5276 3.78947 20.3571Z" fill="currentColor"/>
<path d="M0 4.28571C0 3.57563 0.565535 3 1.26316 3H22.7368C23.4345 3 24 3.57563 24 4.28571V17.1429C24 17.8529 23.4345 18.4286 22.7368 18.4286H1.26316C0.565535 18.4286 0 17.8529 0 17.1429V4.28571Z" fill="currentColor"/>
<path fill-rule="evenodd" clip-rule="evenodd" d="M13.1328 7.28643C13.1328 7.17258 13.1808 7.06339 13.2662 6.98288C13.3515 6.90237 13.4673 6.85714 13.588 6.85714H17.2291C17.3498 6.85714 17.4655 6.90237 17.5509 6.98288C17.6363 7.06339 17.6842 7.17258 17.6842 7.28643V10.7208C17.6842 10.8346 17.6363 10.9438 17.5509 11.0243C17.4655 11.1048 17.3498 11.1501 17.2291 11.1501C17.1084 11.1501 16.9926 11.1048 16.9072 11.0243C16.8219 10.9438 16.7739 10.8346 16.7739 10.7208V8.48845L13.4851 12.2808C13.4449 12.3272 13.3948 12.365 13.338 12.392C13.2813 12.419 13.2192 12.4345 13.1558 12.4375C13.0923 12.4405 13.0289 12.4309 12.9696 12.4094C12.9103 12.3879 12.8565 12.3549 12.8115 12.3126L10.4566 10.0914L7.12869 14.4075C7.05589 14.4948 6.95004 14.5521 6.83338 14.5674C6.71673 14.5826 6.59834 14.5546 6.50311 14.4892C6.40789 14.4239 6.34324 14.3263 6.32274 14.2169C6.30224 14.1075 6.32748 13.9949 6.39318 13.9027L10.0343 9.18047C10.0729 9.13025 10.1227 9.08854 10.18 9.05819C10.2374 9.02785 10.3011 9.0096 10.3667 9.0047C10.4323 8.99981 10.4982 9.00838 10.5599 9.02983C10.6217 9.05128 10.6777 9.08509 10.7243 9.12895L13.0992 11.3698L16.2687 7.71572H13.588C13.4673 7.71572 13.3515 7.6705 13.2662 7.58999C13.1808 7.50948 13.1328 7.40029 13.1328 7.28643Z" />
</svg>
