<svg width="12" height="13" viewBox="0 0 12 13" fill="none" xmlns="http://www.w3.org/2000/svg">
<path d="M3.5 4.46875C3.74162 4.46875 3.9375 4.65063 3.9375 4.875V9.75C3.9375 9.97437 3.74162 10.1562 3.5 10.1562C3.25838 10.1562 3.0625 9.97437 3.0625 9.75V4.875C3.0625 4.65063 3.25838 4.46875 3.5 4.46875Z" fill="currentColor"/>
<path d="M3.5 4.46875C3.74162 4.46875 3.9375 4.65063 3.9375 4.875V9.75C3.9375 9.97437 3.74162 10.1562 3.5 10.1562C3.25838 10.1562 3.0625 9.97437 3.0625 9.75V4.875C3.0625 4.65063 3.25838 4.46875 3.5 4.46875Z" fill="currentColor" fill-opacity="0.25"/>
<path d="M5.6875 4.46875C5.92912 4.46875 6.125 4.65063 6.125 4.875V9.75C6.125 9.97437 5.92912 10.1562 5.6875 10.1562C5.44588 10.1562 5.25 9.97437 5.25 9.75V4.875C5.25 4.65063 5.44588 4.46875 5.6875 4.46875Z" fill="currentColor"/>
<path d="M5.6875 4.46875C5.92912 4.46875 6.125 4.65063 6.125 4.875V9.75C6.125 9.97437 5.92912 10.1562 5.6875 10.1562C5.44588 10.1562 5.25 9.97437 5.25 9.75V4.875C5.25 4.65063 5.44588 4.46875 5.6875 4.46875Z" fill="currentColor" fill-opacity="0.25"/>
<path d="M8.3125 4.875C8.3125 4.65063 8.11662 4.46875 7.875 4.46875C7.63338 4.46875 7.4375 4.65063 7.4375 4.875V9.75C7.4375 9.97437 7.63338 10.1562 7.875 10.1562C8.11662 10.1562 8.3125 9.97437 8.3125 9.75V4.875Z" fill="currentColor"/>
<path d="M8.3125 4.875C8.3125 4.65063 8.11662 4.46875 7.875 4.46875C7.63338 4.46875 7.4375 4.65063 7.4375 4.875V9.75C7.4375 9.97437 7.63338 10.1562 7.875 10.1562C8.11662 10.1562 8.3125 9.97437 8.3125 9.75V4.875Z" fill="currentColor" fill-opacity="0.25"/>
<path fill-rule="evenodd" clip-rule="evenodd" d="M11.375 2.4375C11.375 2.88623 10.9832 3.25 10.5 3.25H10.0625V10.5625C10.0625 11.46 9.279 12.1875 8.3125 12.1875H3.0625C2.096 12.1875 1.3125 11.46 1.3125 10.5625V3.25H0.875C0.391751 3.25 0 2.88623 0 2.4375V1.625C0 1.17627 0.391751 0.8125 0.875 0.8125H3.9375C3.9375 0.363769 4.32925 0 4.8125 0H6.5625C7.04575 0 7.4375 0.363769 7.4375 0.8125H10.5C10.9832 0.8125 11.375 1.17627 11.375 1.625V2.4375ZM2.29078 3.25L2.1875 3.29795V10.5625C2.1875 11.0112 2.57925 11.375 3.0625 11.375H8.3125C8.79575 11.375 9.1875 11.0112 9.1875 10.5625V3.29795L9.08422 3.25H2.29078ZM0.875 2.4375V1.625H10.5V2.4375H0.875Z" fill="currentColor"/>
<path fill-rule="evenodd" clip-rule="evenodd" d="M11.375 2.4375C11.375 2.88623 10.9832 3.25 10.5 3.25H10.0625V10.5625C10.0625 11.46 9.279 12.1875 8.3125 12.1875H3.0625C2.096 12.1875 1.3125 11.46 1.3125 10.5625V3.25H0.875C0.391751 3.25 0 2.88623 0 2.4375V1.625C0 1.17627 0.391751 0.8125 0.875 0.8125H3.9375C3.9375 0.363769 4.32925 0 4.8125 0H6.5625C7.04575 0 7.4375 0.363769 7.4375 0.8125H10.5C10.9832 0.8125 11.375 1.17627 11.375 1.625V2.4375ZM2.29078 3.25L2.1875 3.29795V10.5625C2.1875 11.0112 2.57925 11.375 3.0625 11.375H8.3125C8.79575 11.375 9.1875 11.0112 9.1875 10.5625V3.29795L9.08422 3.25H2.29078ZM0.875 2.4375V1.625H10.5V2.4375H0.875Z" fill="currentColor" fill-opacity="0.25"/>
</svg>
