<svg viewBox="0 0 18 18" xmlns="http://www.w3.org/2000/svg" fill="currentColor">
  <path d="M16.5 4.35016C15.9363 4.59473 15.3401 4.7564 14.73 4.83016C15.3736 4.44565 15.856 3.84074 16.0875 3.12766C15.4827 3.4877 14.8206 3.74138 14.13 3.87766C13.6684 3.37709 13.0537 3.04388 12.3824 2.9303C11.711 2.81671 11.0209 2.92918 10.4203 3.25005C9.81978 3.57092 9.3427 4.08206 9.06393 4.70328C8.78516 5.32451 8.72047 6.0207 8.88 6.68266C7.65707 6.6208 6.46083 6.30237 5.36899 5.74805C4.27715 5.19373 3.31413 4.41593 2.5425 3.46516C2.27185 3.93778 2.12964 4.47302 2.13 5.01766C2.12904 5.52344 2.25316 6.02162 2.49132 6.46783C2.72947 6.91404 3.07426 7.29444 3.495 7.57516C3.00598 7.56185 2.52741 7.43063 2.1 7.19266V7.23016C2.10367 7.93883 2.352 8.62448 2.80299 9.17113C3.25398 9.71779 3.87994 10.0919 4.575 10.2302C4.30744 10.3116 4.02966 10.3545 3.75 10.3577C3.55642 10.3554 3.36332 10.3378 3.1725 10.3052C3.37043 10.9148 3.75347 11.4475 4.26831 11.8293C4.78315 12.211 5.40418 12.4228 6.045 12.4352C4.9629 13.2866 3.62691 13.7513 2.25 13.7552C1.9993 13.756 1.7488 13.7409 1.5 13.7102C2.90582 14.6179 4.54411 15.0997 6.2175 15.0977C7.37227 15.1096 8.51785 14.8914 9.58734 14.4557C10.6568 14.02 11.6288 13.3756 12.4464 12.56C13.264 11.7445 13.911 10.7742 14.3494 9.70584C14.7879 8.63747 15.009 7.49245 15 6.33766C15 6.21016 15 6.07516 15 5.94016C15.5885 5.50127 16.0961 4.96323 16.5 4.35016V4.35016Z" />
</svg>
