<svg width="16" height="14" viewBox="0 0 16 14" fill="none" xmlns="http://www.w3.org/2000/svg">
    <path fill-rule="evenodd" clip-rule="evenodd"
        d="M7.32038 13.6795L11.2878 9.67821C11.5528 9.41097 11.7032 9.04262 11.7032 8.65983L11.7032 1.44451C11.7032 0.650028 11.0586 -4.32341e-07 10.2709 -5.01265e-07L3.82562 -1.06519e-06C3.25271 -1.11531e-06 2.73708 0.34668 2.50792 0.873926L0.173301 6.37028C-0.428256 7.80034 0.610147 9.3893 2.14985 9.3893L6.19604 9.3893L5.51571 12.6972C5.44409 13.0584 5.55151 13.4267 5.80933 13.6867C6.23185 14.1056 6.90502 14.1056 7.32038 13.6795ZM14.5677 -1.25316e-07C13.78 -1.9424e-07 13.1354 0.650028 13.1354 1.44451L13.1354 7.22254C13.1354 8.01702 13.78 8.66705 14.5677 8.66705C15.3555 8.66705 16 8.01702 16 7.22254L16 1.44451C16 0.650028 15.3555 -5.63923e-08 14.5677 -1.25316e-07Z"
        fill="currentColor" fill-opacity="0.3" />
</svg>
