<svg width="46" height="46" fill="none" xmlns="http://www.w3.org/2000/svg"><path fill-rule="evenodd" clip-rule="evenodd" d="M33.934 18.287 17.648 2 13.726 5.92c.1.087.197.178.291.273 2.33 2.329 2.341 6.094.026 8.409-2.314 2.314-6.08 2.303-8.408-.027a6.07 6.07 0 0 1-.273-.29L2 17.647l16.287 16.286.958-.958.639.639-.959.958 8.941 8.94 3.362-3.361c-2.053-2.342-1.973-5.897.247-8.118 2.22-2.22 5.776-2.3 8.118-.246l3.92-3.922-8.94-8.94-.958.957-.638-.639.957-.957Zm-2.552 3.832-.639-.64-1.596 1.598.638.638 1.597-1.596Zm-4.473 3.193.639.639-1.597 1.596-.638-.638 1.596-1.597Zm-3.191 4.47-.639-.638-1.596 1.597.638.638 1.597-1.596Z" fill="#485BC1"/></svg>