<svg viewBox="0 0 24 24" fill="none" xmlns="http://www.w3.org/2000/svg">
<path d="M20.3602 16.8333V17.5556C20.3602 18.35 19.5076 19 18.4655 19H5.20235C4.15078 19 3.30762 18.35 3.30762 17.5556V7.44444C3.30762 6.65 4.15078 6 5.20235 6H18.4655C19.5076 6 20.3602 6.65 20.3602 7.44444V8.16667H11.8339C10.7824 8.16667 9.9392 8.81667 9.9392 9.61111V15.3889C9.9392 16.1833 10.7824 16.8333 11.8339 16.8333H20.3602ZM11.8339 15.3889H21.3076V9.61111H11.8339V15.3889ZM15.6234 13.6948C14.8371 13.6948 14.3076 13.0994 14.3076 12.5C14.3076 11.6933 14.8371 11.2051 15.6234 11.2051C16.4097 11.2051 16.8076 11.9006 16.8076 12.5C16.8076 13.0994 16.4097 13.6948 15.6234 13.6948Z" fill="currentColor" fill-opacity="0.7"/>
</svg>
