<svg width="80" height="80" viewBox="0 0 80 80" fill="none" xmlns="http://www.w3.org/2000/svg">
<path fill-rule="evenodd" clip-rule="evenodd" d="M43.1286 6.84948C41.6788 4.38351 38.1129 4.38351 36.6631 6.84948L2.52296 64.9208C1.05328 67.4207 2.8558 70.5713 5.75569 70.5713H74.036C76.9359 70.5713 78.7384 67.4207 77.2688 64.9208L43.1286 6.84948ZM35.6133 29.428C35.6133 27.0622 37.5311 25.1443 39.8969 25.1443C42.2628 25.1443 44.1806 27.0622 44.1806 29.428V42.492C44.1806 44.8579 42.2628 46.7757 39.8969 46.7757C37.5311 46.7757 35.6133 44.8579 35.6133 42.4921V29.428ZM35.6133 57.5938C35.6133 55.2279 37.5311 53.2675 39.8969 53.2675C42.2628 53.2675 44.1806 55.2279 44.1806 57.5938C44.1806 59.9596 42.2628 61.92 39.8969 61.92C37.5311 61.92 35.6133 59.9596 35.6133 57.5938Z" fill="#EEBE13"/>
</svg>
