<svg viewBox="0 0 18 18" xmlns="http://www.w3.org/2000/svg" fill="currentColor">
  <path d="M17.2498 7.28261C17.2869 6.2091 17.0521 5.14362 16.5673 4.18511C16.2383 3.79181 15.7818 3.52639 15.2773 3.43511C13.1904 3.24575 11.0949 3.16814 8.99978 3.20261C6.91226 3.16658 4.82431 3.24169 2.74478 3.42761C2.33364 3.5024 1.95316 3.69524 1.64978 3.98261C0.974776 4.60511 0.899776 5.67011 0.824776 6.57011C0.71596 8.18828 0.71596 9.81194 0.824776 11.4301C0.846474 11.9367 0.921896 12.4395 1.04978 12.9301C1.14021 13.3089 1.32317 13.6594 1.58228 13.9501C1.88773 14.2527 2.27706 14.4565 2.69978 14.5351C4.31671 14.7347 5.94594 14.8174 7.57478 14.7826C10.1998 14.8201 12.5023 14.7826 15.2248 14.5726C15.6579 14.4988 16.0582 14.2948 16.3723 13.9876C16.5822 13.7775 16.7391 13.5204 16.8298 13.2376C17.098 12.4146 17.2297 11.5532 17.2198 10.6876C17.2498 10.2676 17.2498 7.73261 17.2498 7.28261ZM7.30478 11.1376V6.49511L11.7448 8.82761C10.4998 9.51761 8.85728 10.2976 7.30478 11.1376Z" />
</svg>
