<svg width="24" height="22" viewBox="0 0 24 22" fill="none" xmlns="http://www.w3.org/2000/svg">
<path fill-rule="evenodd" clip-rule="evenodd" d="M4.45 4H20.55C22.4521 4 24 5.5479 24 7.45V16.65C24 18.5521 22.4521 20.1 20.55 20.1H4.45C2.5479 20.1 1 18.5521 1 16.65V7.45C1 5.5479 2.5479 4 4.45 4ZM20.5499 8.59995C21.1851 8.59995 21.6999 8.08508 21.6999 7.44995C21.6999 6.8163 21.1847 6.29995 20.5499 6.29995H4.44995C3.81515 6.29995 3.29995 6.8163 3.29995 7.44995C3.29995 8.08508 3.81482 8.59995 4.44995 8.59995H20.5499ZM18.2499 12.7399H20.5499C21.1824 12.7399 21.6999 12.2224 21.6999 11.5899C21.6999 10.9574 21.1824 10.4399 20.5499 10.4399H18.2499C17.6174 10.4399 17.0999 10.9574 17.0999 11.5899C17.0999 12.2224 17.6174 12.7399 18.2499 12.7399ZM4.22008 11.5132C4.22008 10.9205 4.70063 10.4399 5.29342 10.4399H11.7334C12.3262 10.4399 12.8067 10.9205 12.8067 11.5132C12.8067 12.106 12.3262 12.5866 11.7334 12.5866H5.29342C4.70063 12.5866 4.22008 12.106 4.22008 11.5132Z" fill="currentColor"/>
</svg>
