<svg width="24" height="24" viewBox="0 0 24 24" fill="none" xmlns="http://www.w3.org/2000/svg">
<path fill-rule="evenodd" clip-rule="evenodd" d="M5.29252 6.13437C5.29252 4.06002 6.97412 2.37842 9.04848 2.37842C11.1228 2.37842 12.8044 4.06002 12.8044 6.13437V8.28063C12.8044 10.355 11.1228 12.0366 9.04848 12.0366C6.97412 12.0366 5.29252 10.355 5.29252 8.28063V6.13437ZM1 20.6216C1 16.4729 4.3632 13.1097 8.51191 13.1097H9.58504C13.7338 13.1097 17.097 16.4729 17.097 20.6216H1ZM15.4881 8.28063C15.4881 9.71124 14.866 10.9965 13.8776 11.8808C14.2178 11.9822 14.5783 12.0366 14.9515 12.0366C17.0259 12.0366 18.7075 10.355 18.7075 8.28063V6.13437C18.7075 4.06002 17.0259 2.37842 14.9515 2.37842C14.5783 2.37842 14.2178 2.43285 13.8776 2.5342C14.866 3.41846 15.4881 4.70377 15.4881 6.13437V8.28063ZM23 20.6216H19.7806C19.7806 17.3893 17.9943 14.5743 15.355 13.1097H15.4881C19.6368 13.1097 23 16.4729 23 20.6216Z" fill="currentColor"/>
</svg>
