<svg id="Light_1" data-name="Light 1" xmlns="http://www.w3.org/2000/svg" viewBox="0 0 122.69 120"><defs><style>.cls-1 { fill: #b2beed; }
  .cls-3 { fill: #eebe13; }
  .cls-7 { fill: #f84960; }
</style></defs><path class="cls-1" d="M1399.51 1981.81h-100.86v-13.54a3.27 3.27 0 013.28-3.27h94.31a3.26 3.26 0 013.27 3.27v13.54z" transform="translate(-1298.65 -1965)"/><path d="M1396.24 2062.5h-94.31a3.28 3.28 0 01-3.28-3.27v-77.42h100.86v77.42a3.27 3.27 0 01-3.27 3.27z" transform="translate(-1298.65 -1965)" fill="#fff"/><circle class="cls-3" cx="10.93" cy="8.41" r="4.2"/><circle cx="24.37" cy="8.41" r="4.2" fill="#5b8ee5"/><circle cx="37.82" cy="8.41" r="4.2" fill="#02c076"/><path class="cls-1" d="M1413.9 2054.54l7.45-1.83v-9.38l-7.45-1.84a30.22 30.22 0 00-4.05-9.73l4-6.57-6.63-6.64-6.58 4a29.89 29.89 0 00-9.73-4l-1.83-7.45h-9.39l-1.83 7.45a29.89 29.89 0 00-9.73 4l-6.58-4-6.63 6.64 4 6.57a30 30 0 00-4 9.73l-7.45 1.84v9.38l7.45 1.83a29.94 29.94 0 004 9.74l-4 6.57 6.63 6.64 6.58-4a29.89 29.89 0 009.73 4l1.83 7.45h9.39l1.83-7.45a29.89 29.89 0 009.73-4l6.58 4 6.63-6.64-4-6.57a30.38 30.38 0 004.05-9.74z" transform="translate(-1298.65 -1965)"/><circle cx="85.71" cy="83.02" r="23.53" fill="#dbe4fc"/><circle class="cls-3" cx="85.71" cy="83.02" r="13.45"/><path class="cls-7" d="M1316.8 2008.85l-1.72 3.91H1312l7.56-17.17h3.1l7.56 17.17h-3.09l-1.72-3.91zm7.42-2.67l-3.12-7.08-3.12 7.08zM1344.18 1997.09a5.67 5.67 0 011.8 4.62 5.48 5.48 0 01-1.83 4.57q-1.83 1.44-5.61 1.44h-3v5h-2.9v-17.17h5.9q3.85.04 5.64 1.54zm-2 7.08a3.78 3.78 0 00.88-2.7 2.79 2.79 0 00-1.11-2.51 6.29 6.29 0 00-3.46-.74h-3v6.88h3.37q2.4 0 3.27-.93zM1349.39 1995.59h2.9v17.17h-2.9z" transform="translate(-1298.65 -1965)"/><path d="M1389.7 1976.68H1351a3.28 3.28 0 01-3.27-3.28 3.28 3.28 0 013.27-3.27h38.75a3.28 3.28 0 013.27 3.27 3.28 3.28 0 01-3.32 3.28z" transform="translate(-1298.65 -1965)" fill="#f0f3f9"/></svg>
