<svg id="Light_1" data-name="Light 1" xmlns="http://www.w3.org/2000/svg" viewBox="0 0 121.16 115"><defs><style>.cls-1 { fill: #ccc; }
  .cls-2 { fill: #a6bce3; }
  .cls-3 { fill: #5b8ee5; }
  .cls-5 { fill: #96cffa; }
  .cls-6 { fill: #b2beed; }
  .cls-7 { fill: #eebe13; }
  .cls-8 { fill: #fcdf83; }
</style></defs><path class="cls-1" d="M310.58 1623.14v4.18a4.18 4.18 0 01-4.18 4.18h-62.73a4.19 4.19 0 01-4.19-4.18v-4.18z" transform="translate(-189.42 -1562.5)"/><path class="cls-2" d="M256.21 1631.5h-12.54a4.19 4.19 0 01-4.19-4.18v-4.18h16.73z" transform="translate(-189.42 -1562.5)"/><path class="cls-3" d="M302.21 1623.14v-33.46a2.1 2.1 0 00-2.09-2.09h-50.18a2.1 2.1 0 00-2.09 2.09v33.46z" transform="translate(-189.42 -1562.5)"/><path d="M256.21 1623.14h-8.36v-14.64h2.09a6.27 6.27 0 016.27 6.27z" transform="translate(-189.42 -1562.5)" fill="#4356e6"/><path class="cls-2" d="M287.58 1623.14a2.06 2.06 0 01-.62 1.48l-2.09 2.09a2.11 2.11 0 01-1.48.61h-16.72a2.11 2.11 0 01-1.48-.61l-2.09-2.09a2.06 2.06 0 01-.62-1.48z" transform="translate(-189.42 -1562.5)"/><path class="cls-3" d="M252 1648.23v-33.46a2.11 2.11 0 00-2.09-2.09h-50.15a2.1 2.1 0 00-2.09 2.09v33.46z" transform="translate(-189.42 -1562.5)"/><path class="cls-1" d="M258.43 1648.36v4.18a4.18 4.18 0 01-4.18 4.18h-62.73c-2.31 0-2.09-1.87-2.09-4.18v-4.18z" transform="translate(-189.42 -1562.5)"/><path class="cls-2" d="M237.39 1648.23a2.11 2.11 0 01-.61 1.48l-2.09 2.09a2.11 2.11 0 01-1.48.61h-16.73a2.08 2.08 0 01-1.47-.61l-2.1-2.09a2.11 2.11 0 01-.61-1.48z" transform="translate(-189.42 -1562.5)"/><path class="cls-5" d="M279.21 1612.68l6.27-8.36h-12.54z" transform="translate(-189.42 -1562.5)"/><path class="cls-6" d="M281.3 1604.32h-4.18v-35.55a2.11 2.11 0 00-2.09-2.09H229a2.11 2.11 0 00-2.09 2.09v25.09h-4.18v-25.09a6.27 6.27 0 016.27-6.27h46a6.27 6.27 0 016.27 6.27z" transform="translate(-189.42 -1562.5)"/><circle class="cls-7" cx="35.43" cy="41.82" r="14.64"/><path class="cls-8" d="M218.58 1601.18v6.27l6.27 4.19 6.27-4.19v-6.27l-6.27-4.18z" transform="translate(-189.42 -1562.5)"/><path class="cls-5" d="M224.85 1627.32l-6.27 8.36h12.54z" transform="translate(-189.42 -1562.5)"/><path class="cls-6" d="M222.76 1635.68h4.18v35.55a2.11 2.11 0 002.09 2.09h46a2.11 2.11 0 002.09-2.09v-25.09h4.18v25.09a6.27 6.27 0 01-6.27 6.27H229a6.27 6.27 0 01-6.27-6.27z" transform="translate(-189.42 -1562.5)"/><circle class="cls-7" cx="89.79" cy="73.18" r="14.64"/><path class="cls-8" d="M272.94 1632.55v6.27l6.27 4.18 6.27-4.18v-6.27l-6.27-4.19z" transform="translate(-189.42 -1562.5)"/></svg>
