<svg id="Light_1" data-name="Light 1" xmlns="http://www.w3.org/2000/svg" viewBox="0 0 115 115"><defs><style>.cls-1 { fill: #fff; }
  .cls-2 { fill: #ccc; }
  .cls-3 { fill: #f84960; }
  .cls-4 { fill: #eebe13; }
  .cls-5 { fill: #02c076; }
  .cls-6 { fill: #fcdf83; }
</style></defs><g id="Page-1"><g id="_034---Online-Chat" data-name="034---Online-Chat"><path id="Shape" class="cls-1" d="M857.5 1586.38v75.34a6 6 0 01-6 6H748.45a6 6 0 01-6-6v-75.34z" transform="translate(-742.5 -1572.5)"/><path id="Shape-2" data-name="Shape" class="cls-2" d="M857.5 1578.45v9.91h-115v-9.91a6 6 0 016-6h103.1a6 6 0 015.9 6z" transform="translate(-742.5 -1572.5)"/><path id="Shape-3" data-name="Shape" class="cls-3" d="M829.74 1620.09h6.94a8.93 8.93 0 000-17.85h-21.81a8.93 8.93 0 000 17.85z" transform="translate(-742.5 -1572.5)"/><circle id="Oval" class="cls-3" cx="7.93" cy="7.93" r="1.98"/><circle id="Oval-2" data-name="Oval" class="cls-4" cx="15.86" cy="7.93" r="1.98"/><circle id="Oval-3" data-name="Oval" class="cls-5" cx="23.79" cy="7.93" r="1.98"/><path id="Shape-4" data-name="Shape" class="cls-4" d="M848.3 1645.86l-9.48 17.55c-1.94 3.65-3.47 8-6.8 10.67a5.83 5.83 0 00-1.7 2.26 5.73 5.73 0 00-.52 2.38v6.8a2 2 0 01-2 2H806a2 2 0 01-2-2v-5.93a18.15 18.15 0 00-2.48-9.32 24.29 24.29 0 01-3.47-12.51v-17.85a4 4 0 017.93 0v-2a4 4 0 017.93 0v-2a4 4 0 117.93 0v-18.06a4 4 0 014.94-3.85 4.14 4.14 0 013 4.06v33.29a2 2 0 003.73.94l6.19-11.39a5 5 0 017.17-1.76 5.16 5.16 0 011.47 6.68z" transform="translate(-742.5 -1572.5)"/><path id="Shape-5" data-name="Shape" class="cls-5" d="M796 1604.22v15.87a5.94 5.94 0 01-5.94 5.94h-3.47l.84 6.74a2 2 0 01-1 2 2 2 0 01-2.23-.26l-9.7-8.51h-16.14a6 6 0 01-6-5.94v-15.87a6 6 0 016-5.94h31.73a5.94 5.94 0 015.91 5.97z" transform="translate(-742.5 -1572.5)"/><path id="Shape-6" data-name="Shape" class="cls-1" d="M764.31 1610.17h-4a2 2 0 010-4h4a2 2 0 010 4z" transform="translate(-742.5 -1572.5)"/><path id="Shape-7" data-name="Shape" class="cls-1" d="M788.1 1610.17h-15.86a2 2 0 010-4h15.86a2 2 0 110 4z" transform="translate(-742.5 -1572.5)"/><path id="Shape-8" data-name="Shape" class="cls-1" d="M788.1 1618.1h-4a2 2 0 010-4h4a2 2 0 110 4z" transform="translate(-742.5 -1572.5)"/><path id="Shape-9" data-name="Shape" class="cls-1" d="M776.21 1618.1h-15.87a2 2 0 010-4h15.87a2 2 0 110 4z" transform="translate(-742.5 -1572.5)"/><path id="Shape-10" data-name="Shape" class="cls-2" d="M758.36 1661.72h-7.93a2 2 0 01-2-2v-7.93a2 2 0 114 0v6h6a2 2 0 010 4z" transform="translate(-742.5 -1572.5)"/><path id="Shape-11" data-name="Shape" class="cls-6" d="M806 1639.91v9.92a2 2 0 01-4 0V1636a4 4 0 014 3.91z" transform="translate(-742.5 -1572.5)"/><path id="Shape-12" data-name="Shape" class="cls-6" d="M813.88 1637.93v11.9a2 2 0 01-4 0V1634a4 4 0 014 3.93z" transform="translate(-742.5 -1572.5)"/><path id="Shape-13" data-name="Shape" class="cls-6" d="M821.81 1636v13.88a2 2 0 01-4 0V1632a4 4 0 014 4z" transform="translate(-742.5 -1572.5)"/></g></g></svg>
