<svg id="Light_1" data-name="Light 1" xmlns="http://www.w3.org/2000/svg" viewBox="0 0 102.25 100"><defs><style>.cls-2 { fill: #f84960; }
</style></defs><path d="M1398.88 1620a50 50 0 11-50-50 50 50 0 0150 50z" transform="translate(-1298.88 -1570)" fill="#eebe13"/><path class="cls-2" d="M1343.57 1659.59v10.13a49.79 49.79 0 01-29.72-14 4 4 0 011.15-.17h24.49a4.08 4.08 0 014.08 4.04zm-4.08-44.9H1315a4.09 4.09 0 00-4.08 4.09v24.49a4.08 4.08 0 004.08 4.08h24.49a4.08 4.08 0 004.08-4.08v-24.49a4.09 4.09 0 00-4.08-4.09zm0-40.81H1315a4.08 4.08 0 00-4.08 4.08v24.49a4.08 4.08 0 004.08 4.08h24.49a4.08 4.08 0 004.08-4.08V1578a4.08 4.08 0 00-4.08-4.12z" transform="translate(-1298.88 -1570)"/><path class="cls-2" d="M1343.57 1618.78v24.49a4.08 4.08 0 01-4.08 4.08h-16.33a4.08 4.08 0 01-4.08-4.08v-24.49a4.09 4.09 0 014.08-4.09h16.33a4.09 4.09 0 014.08 4.09zm-4.08-44.9h-16.33a4.08 4.08 0 00-4.08 4.08v24.49a4.08 4.08 0 004.08 4.08h16.33a4.08 4.08 0 004.08-4.08V1578a4.08 4.08 0 00-4.08-4.12zM1353.78 1657.55a2 2 0 11-2-2 2 2 0 012 2zm4.08-2a2 2 0 102 2 2 2 0 00-2-2.04zm6.12 0a2 2 0 102 2 2 2 0 00-1.98-2.04zM1401.12 1630v2a1 1 0 01-1 1h-47.34a1 1 0 01-1-1v-2a1 1 0 011-1h47.34a1 1 0 011 1zm-49.39-46.94v-2a1 1 0 011-1h36.73a1 1 0 011 1v2a1 1 0 01-1 1h-36.73a1 1 0 01-1-1zm1 9.19h40.81a1 1 0 001-1v-2a1 1 0 00-1-1h-40.81a1 1 0 00-1 1v2a1 1 0 001.03 1zm0 8.16h24.48a1 1 0 001-1v-2a1 1 0 00-1-1h-24.48a1 1 0 00-1 1v2a1 1 0 001.03 1zm0 24.49h36.73a1 1 0 001-1v-2a1 1 0 00-1-1h-36.73a1 1 0 00-1 1v2a1 1 0 001.03 1zm24.48 12.24h-24.48a1 1 0 00-1 1v2a1 1 0 001 1h24.48a1 1 0 001-1v-2a1 1 0 00-.97-1z" transform="translate(-1298.88 -1570)"/><path d="M1344.9 1574.91l2.28 2.29a1.61 1.61 0 010 2.28l-22.18 22.15a3.24 3.24 0 01-4.57 0l-11.11-11.12a1.61 1.61 0 010-2.28l2.29-2.29a1.61 1.61 0 012.28 0l7.69 7.69a1.61 1.61 0 002.28 0l18.72-18.72a1.62 1.62 0 012.32 0zm-2.29 40.82l-18.72 18.72a1.61 1.61 0 01-2.28 0l-7.69-7.69a1.61 1.61 0 00-2.28 0l-2.29 2.28a1.62 1.62 0 000 2.29l11.11 11.11a3.24 3.24 0 004.57 0l22.15-22.14a1.62 1.62 0 000-2.29l-2.28-2.28a1.62 1.62 0 00-2.29 0z" transform="translate(-1298.88 -1570)" fill="#f0f3f9"/></svg>
