<svg id="Light_1" data-name="Light 1" xmlns="http://www.w3.org/2000/svg" viewBox="0 0 92.82 110.04"><defs><style>.cls-2 { fill: #5b8ee5; }
</style></defs><path d="M296.41 1985.63v27.15a65 65 0 01-45.91 62.14 1.7 1.7 0 01-1 0 65 65 0 01-45.91-62.14v-27.15a1.73 1.73 0 011-1.59l44.69-18.9a1.65 1.65 0 011.34 0l44.69 18.9a1.74 1.74 0 011.05 1.59z" transform="translate(-203.59 -1964.96)" fill="#b2beed"/><path class="cls-2" d="M295.36 1984l-44.69-18.9a1.65 1.65 0 00-1.34 0l-3.63 1.53 41.06 17.37a1.72 1.72 0 011.05 1.59v27.15a65 65 0 01-42.11 60.85 32.74 32.74 0 004.3 1.41 1.69 1.69 0 00.5-.08 65 65 0 0045.91-62.14v-27.15a1.74 1.74 0 00-1.05-1.63z" transform="translate(-203.59 -1964.96)"/><path d="M286.09 1992.5v22a53 53 0 01-33.34 49.25c-2.16.87-2.55 1.14-3.32.87a53.11 53.11 0 01-35.52-50.07v-22a1.71 1.71 0 011-1.57l34.38-15.46a1.63 1.63 0 011.4 0l34.38 15.48a1.71 1.71 0 011 1.57z" transform="translate(-203.59 -1964.96)" fill="#fff"/><path d="M285.08 1990.93l-34.38-15.46a1.63 1.63 0 00-1.4 0l-3.6 1.61 30.79 13.85a1.73 1.73 0 011 1.57v22a53 53 0 01-31.86 48.63c1.24.54 2.5 1 3.79 1.49.81.28 1.31-.07 3.32-.87a53 53 0 0033.34-49.25v-22a1.7 1.7 0 00-1-1.57z" transform="translate(-203.59 -1964.96)" fill="#dbe4fc"/><path d="M272.7 2010l-22.49 22.49a5.15 5.15 0 01-7.27 0l-12.18-12.17a5.37 5.37 0 017.59-7.59l8.23 8.24 18.55-18.55a5.36 5.36 0 117.59 7.58z" transform="translate(-203.59 -1964.96)" fill="#eebe13"/><path class="cls-2" d="M272.7 2002.46a5.36 5.36 0 00-6.48-.85 5.36 5.36 0 012 7.32 5.11 5.11 0 01-.85 1.11c-24.68 24.68-22.71 22.79-23.45 23.25a5.14 5.14 0 006.33-.76L272.7 2010a5.37 5.37 0 000-7.54z" transform="translate(-203.59 -1964.96)"/></svg>
