<?xml version="1.0" encoding="iso-8859-1"?>
<!-- Generator: Adobe Illustrator 16.0.0, SVG Export Plug-In . SVG Version: 6.00 Build 0)  -->
<!DOCTYPE svg PUBLIC "-//W3C//DTD SVG 1.1//EN" "http://www.w3.org/Graphics/SVG/1.1/DTD/svg11.dtd">
<svg version="1.1" id="Capa_1" xmlns="http://www.w3.org/2000/svg" xmlns:xlink="http://www.w3.org/1999/xlink" x="0px" y="0px"
	 width="24" height="24" viewBox="0 0 601.799 601.799" style="enable-background:new 0 0 601.799 601.799;"
	 xml:space="preserve" fill="currentColor">
<g>
	<g>
		<path d="M300.899,0C134.716,0,0,134.716,0,300.899c0,166.183,134.716,300.9,300.899,300.9c166.183,0,300.9-134.717,300.9-300.9
			C601.797,134.716,467.082,0,300.899,0z M329.662,327.377c-15.584,15.486-40.771,15.408-56.257-0.178
			c-15.487-15.584-15.407-40.771,0.178-56.258c9.373-9.312,22.212-12.953,34.33-11.022l103.928-70.288l-70.943,103.483
			C342.756,305.248,339.035,318.066,329.662,327.377z M557.223,224.439c5.211,15.168,8.223,28.914,10.178,40.297
			c0.465,2.855,0.906,5.557,1.322,8.1c0.355,2.629,0.605,5.208,0.871,7.552c0.252,2.362,0.48,4.547,0.695,6.548
			c0.193,1.961,0.236,3.305,0.346,4.743c0.365,5.508,0.557,8.445,0.557,8.445l-61.182,1.549c0,0,0.047-2.944,0.129-8.465
			c0.006-1.319,0.076-3.06,0.037-4.479c-0.047-1.377-0.096-2.883-0.146-4.507c-0.049-1.641-0.102-3.406-0.156-5.288
			c-0.162-2.007-0.338-4.137-0.521-6.389c-0.789-9.002-2.232-19.96-5.369-32.25c-3.066-12.295-7.66-25.97-14.432-40.208
			c-6.732-14.253-15.906-28.893-27.375-43.116c-5.822-7.025-12.113-14.063-19.195-20.618c-3.43-3.406-7.209-6.487-10.936-9.734
			c-1.895-1.582-3.891-3.054-5.846-4.608c-1.945-1.566-3.947-3.075-6.033-4.489c-16.35-11.793-35.064-21.644-55.27-28.749
			c-10.092-3.608-20.613-6.255-31.301-8.437c-5.373-0.927-10.77-1.919-16.236-2.454c-2.727-0.337-5.459-0.692-8.211-0.817
			l-4.125-0.284l-2.064-0.144l-1.035-0.073l-0.518-0.037l-0.257-0.018c0.086-0.009-0.56-0.006,0.128-0.024
			c-5.78-0.037-12.081-0.334-17.164-0.021c-5.285,0.049-10.82,0.566-16.337,1.034c-10.967,1.261-21.901,3.02-32.531,5.805
			c-21.279,5.462-41.564,13.941-59.759,24.801c-2.316,1.294-4.553,2.693-6.738,4.156c-2.194,1.447-4.431,2.824-6.57,4.314
			c-4.217,3.066-8.501,5.995-12.445,9.272c-8.106,6.3-15.462,13.195-22.356,20.187c-13.614,14.153-24.955,29.165-33.685,44.11
			c-8.773,14.93-15.19,29.615-19.801,43.018c-4.685,13.4-7.399,25.56-9.177,35.64c-0.425,2.528-0.829,4.921-1.211,7.173
			c-0.275,2.268-0.533,4.394-0.771,6.374c-0.493,3.959-0.866,7.341-0.985,10.092c-0.355,5.523-0.548,8.461-0.548,8.461
			s-0.046-2.944-0.128-8.467c-0.104-2.77-0.006-6.175,0.162-10.184c0.08-2.007,0.166-4.165,0.254-6.466
			c0.199-2.295,0.407-4.737,0.63-7.313c0.967-10.303,2.705-22.843,6.371-36.904c3.593-14.061,8.941-29.688,16.784-45.921
			c7.8-16.246,18.348-32.91,31.527-49.052c6.677-7.983,13.908-15.949,22.007-23.385c3.938-3.846,8.25-7.356,12.528-11.019
			c2.169-1.79,4.446-3.467,6.686-5.217c2.23-1.766,4.522-3.473,6.903-5.076c18.703-13.333,40.089-24.45,63.152-32.415
			c11.521-4.039,23.507-7.013,35.683-9.412c6.108-1.035,12.209-2.108,18.669-2.711c6.625-0.857,12.111-0.998,18.088-1.45
			l9.776-0.132c3.137-0.098,6.268,0.037,9.396,0.166c6.279,0.116,12.521,0.716,18.773,1.291c12.451,1.478,24.854,3.565,36.914,6.781
			c24.137,6.319,47.092,16.071,67.641,28.467c2.609,1.487,5.139,3.082,7.607,4.746c2.479,1.649,4.996,3.229,7.41,4.927
			c4.768,3.479,9.584,6.839,14.037,10.557c9.125,7.182,17.42,15.006,25.168,22.956c15.324,16.068,28.043,33.109,37.838,50.046
			C544.912,192.633,552.088,209.267,557.223,224.439z"/>
	</g>
</g>
<g>
</g>
<g>
</g>
<g>
</g>
<g>
</g>
<g>
</g>
<g>
</g>
<g>
</g>
<g>
</g>
<g>
</g>
<g>
</g>
<g>
</g>
<g>
</g>
<g>
</g>
<g>
</g>
<g>
</g>
</svg>
