<svg width="24" height="24" viewBox="0 0 24 24" fill="none" xmlns="http://www.w3.org/2000/svg">
<path d="M2 16.9375C2 17.2856 2.15804 17.6194 2.43934 17.8656C2.72064 18.1117 3.10218 18.25 3.5 18.25H16.5C16.8978 18.25 17.2794 18.1117 17.5607 17.8656C17.842 17.6194 18 17.2856 18 16.9375V10.8125C18 10.4644 17.842 10.1306 17.5607 9.88442C17.2794 9.63828 16.8978 9.5 16.5 9.5H3.5C3.10218 9.5 2.72064 9.63828 2.43934 9.88442C2.15804 10.1306 2 10.4644 2 10.8125V16.9375ZM4 8.1875C4 8.30353 4.05268 8.41481 4.14645 8.49686C4.24021 8.57891 4.36739 8.625 4.5 8.625H15.5C15.6326 8.625 15.7598 8.57891 15.8536 8.49686C15.9473 8.41481 16 8.30353 16 8.1875C16 8.07147 15.9473 7.96019 15.8536 7.87814C15.7598 7.79609 15.6326 7.75 15.5 7.75H4.5C4.36739 7.75 4.24021 7.79609 4.14645 7.87814C4.05268 7.96019 4 8.07147 4 8.1875V8.1875ZM6 6.4375C6 6.55353 6.05268 6.66481 6.14645 6.74686C6.24021 6.82891 6.36739 6.875 6.5 6.875H13.5C13.6326 6.875 13.7598 6.82891 13.8536 6.74686C13.9473 6.66481 14 6.55353 14 6.4375C14 6.32147 13.9473 6.21019 13.8536 6.12814C13.7598 6.04609 13.6326 6 13.5 6H6.5C6.36739 6 6.24021 6.04609 6.14645 6.12814C6.05268 6.21019 6 6.32147 6 6.4375V6.4375Z" fill="#909BD7"/>
</svg>
