<svg width="25" height="20" viewBox="0 0 25 20" fill="none" xmlns="http://www.w3.org/2000/svg">
<path fill-rule="evenodd" clip-rule="evenodd" d="M6.15937 4H18.0594C19.4653 4 20.6094 5.1441 20.6094 6.55V13.35C20.6094 14.7559 19.4653 15.9 18.0594 15.9H6.15937C4.75347 15.9 3.60938 14.7559 3.60938 13.35V6.55C3.60938 5.1441 4.75347 4 6.15937 4ZM18.0586 9.39971C18.528 9.39971 18.9086 9.01915 18.9086 8.54971C18.9086 8.08136 18.5278 7.69971 18.0586 7.69971H6.15859C5.68939 7.69971 5.30859 8.08136 5.30859 8.54971C5.30859 9.01915 5.68915 9.39971 6.15859 9.39971H18.0586ZM16.3578 12.4598H18.0578C18.5253 12.4598 18.9078 12.0773 18.9078 11.6098C18.9078 11.1423 18.5253 10.7598 18.0578 10.7598H16.3578C15.8903 10.7598 15.5078 11.1423 15.5078 11.6098C15.5078 12.0773 15.8903 12.4598 16.3578 12.4598ZM5.98828 11.5531C5.98828 11.115 6.34347 10.7598 6.78161 10.7598H11.5416C11.9798 10.7598 12.3349 11.115 12.3349 11.5531C12.3349 11.9912 11.9798 12.3464 11.5416 12.3464H6.78161C6.34347 12.3464 5.98828 11.9912 5.98828 11.5531Z" fill="#909BD7"/>
</svg>
