<svg width="24" height="25" viewBox="0 0 24 25" fill="none" xmlns="http://www.w3.org/2000/svg">
<path d="M4 8.30146C4.00026 9.53215 4.42682 10.7247 5.20701 11.6759C5.9872 12.6271 7.07274 13.2781 8.27869 13.5179C8.34737 12.756 8.54273 12.0108 8.85669 11.3133C7.92594 10.9985 7.32775 10.2838 7.1875 9.26925H6.65625V8.8162H7.15137V8.35464C7.15137 8.30572 7.15138 8.25573 7.15563 8.21107H6.65625V7.75695H7.19919C7.43825 6.4297 8.47631 5.64271 10.0361 5.64271C10.3718 5.64271 10.6629 5.67567 10.9062 5.7331V6.51265C10.6221 6.44936 10.3314 6.42009 10.0403 6.42544C9.06387 6.42544 8.40619 6.92104 8.19794 7.75695H10.2348V8.21107H8.131C8.12781 8.25999 8.12781 8.31422 8.12781 8.3674V8.8162H10.2348V9.27031H8.17562C8.301 9.91054 8.67287 10.3657 9.24344 10.5774C9.80289 9.64994 10.5723 8.86712 11.4895 8.29205C12.4068 7.71697 13.4463 7.36573 14.5241 7.26667C14.2635 5.97506 13.5333 4.82622 12.4748 4.04268C11.4164 3.25914 10.1052 2.89667 8.79502 3.02549C7.48489 3.15431 6.26914 3.76525 5.38328 4.73996C4.49742 5.71468 4.0045 6.98379 4 8.30146ZM21 14.1507C21 15.7021 20.3843 17.1898 19.2884 18.2868C18.1925 19.3837 16.7061 20 15.1562 20C13.6064 20 12.12 19.3837 11.0241 18.2868C9.92818 17.1898 9.3125 15.7021 9.3125 14.1507C9.3125 12.5994 9.92818 11.1116 11.0241 10.0147C12.12 8.91772 13.6064 8.30146 15.1562 8.30146C16.7061 8.30146 18.1925 8.91772 19.2884 10.0147C20.3843 11.1116 21 12.5994 21 14.1507ZM12.7656 15.5567C12.8389 16.4447 13.5582 17.136 14.8524 17.2179V17.873H15.4261V17.2136C16.7638 17.1222 17.5469 16.4266 17.5469 15.4163C17.5469 14.4964 16.9487 14.0231 15.8787 13.7785L15.4261 13.6722V11.8897C15.9999 11.9535 16.3654 12.2588 16.4525 12.682H17.4598C17.3854 11.827 16.6321 11.158 15.4261 11.0847V10.4285H14.8524V11.0974C13.7091 11.207 12.9314 11.8759 12.9314 12.8224C12.9314 13.6594 13.5094 14.1922 14.472 14.4102L14.8524 14.5006V16.3937C14.2637 16.3086 13.8749 15.9938 13.7867 15.5567H12.7656ZM14.8481 13.5413C14.2829 13.4137 13.9769 13.1542 13.9769 12.7629C13.9769 12.3268 14.3073 11.9982 14.8524 11.9025V13.5403H14.8471L14.8481 13.5413ZM15.509 14.6516C16.1943 14.8058 16.5109 15.0558 16.5109 15.4982C16.5109 16.0023 16.1178 16.349 15.4272 16.4128V14.6325L15.509 14.6516Z" fill="#909BD7"/>
</svg>
