<svg width="24" height="24" viewBox="0 0 24 24" fill="none" xmlns="http://www.w3.org/2000/svg">
<g clip-path="url(#clip0_1540_54086)">
<path d="M17.3377 4.48149C17.4232 4.5566 17.4839 4.65585 17.5117 4.76616C17.5396 4.87646 17.5334 4.99262 17.4939 5.09931L12.069 19.7999C12.0311 19.9027 11.964 19.9922 11.8759 20.0574C11.7878 20.1226 11.6827 20.1606 11.5733 20.1669C11.4639 20.1731 11.355 20.1473 11.2601 20.0926C11.1652 20.0378 11.0884 19.9565 11.039 19.8587L8.40097 14.6567L2.90078 12.711C2.79776 12.6744 2.70765 12.6085 2.64146 12.5215C2.57527 12.4345 2.53587 12.3301 2.52809 12.221C2.5203 12.112 2.54447 12.003 2.59763 11.9075C2.65079 11.8119 2.73064 11.7339 2.82741 11.6831L16.7049 4.40638C16.8055 4.35369 16.9197 4.33268 17.0324 4.3461C17.1452 4.35952 17.2512 4.40674 17.3366 4.48156L17.3377 4.48149Z" fill="#909BD7"/>
</g>
<defs>
<clipPath id="clip0_1540_54086">
<rect width="18" height="18" fill="white" transform="translate(2 2.5)"/>
</clipPath>
</defs>
</svg>
