<svg width="24" height="25" viewBox="0 0 24 25" fill="none" xmlns="http://www.w3.org/2000/svg">
<path d="M3 8.83333C3 8.3471 3.21071 7.88079 3.58579 7.53697C3.96086 7.19315 4.46957 7 5 7H17C17.5304 7 18.0391 7.19315 18.4142 7.53697C18.7893 7.88079 19 8.3471 19 8.83333V13.4167H3V8.83333ZM14.5 9.75C14.3674 9.75 14.2402 9.79829 14.1464 9.88424C14.0527 9.9702 14 10.0868 14 10.2083V11.125C14 11.2466 14.0527 11.3631 14.1464 11.4491C14.2402 11.535 14.3674 11.5833 14.5 11.5833H16.5C16.6326 11.5833 16.7598 11.535 16.8536 11.4491C16.9473 11.3631 17 11.2466 17 11.125V10.2083C17 10.0868 16.9473 9.9702 16.8536 9.88424C16.7598 9.79829 16.6326 9.75 16.5 9.75H14.5ZM3 15.25V16.1667C3 16.6529 3.21071 17.1192 3.58579 17.463C3.96086 17.8068 4.46957 18 5 18H17C17.5304 18 18.0391 17.8068 18.4142 17.463C18.7893 17.1192 19 16.6529 19 16.1667V15.25H3Z" fill="#909BD7"/>
</svg>
